<svg xmlns="http://www.w3.org/2000/svg" viewBox="0 0 16 17" class="design-iconfont">
  <path d="M10.5,0 C11.3284271,0 12,0.671572875 12,1.5 L12,2.5 L14,2.5 C15.1045695,2.5 16,3.3954305 16,4.5 L16,14.5 C16,15.6045695 15.1045695,16.5 14,16.5 L2,16.5 C0.8954305,16.5 0,15.6045695 0,14.5 L0,4.5 C0,3.3954305 0.8954305,2.5 2,2.5 L4,2.5 L4,1.5 C4,0.671572875 4.67157288,0 5.5,0 L10.5,0 Z M14.5,10.999 L1.5,10.999 L1.5,14.5 C1.5,14.7761424 1.72385763,15 2,15 L14,15 C14.2761424,15 14.5,14.7761424 14.5,14.5 L14.5,10.999 Z M14,4 L2,4 C1.72385763,4 1.5,4.22385763 1.5,4.5 L1.5,9.499 L4.75,9.499 L4.75,8.19135802 C4.75,7.80953153 5.05953153,7.5 5.44135802,7.5 L5.55864198,7.5 C5.94046847,7.5 6.25,7.80953153 6.25,8.19135802 L6.25,9.499 L9.75,9.499 L9.75,8.19135802 C9.75,7.80953153 10.0595315,7.5 10.441358,7.5 L10.558642,7.5 C10.9404685,7.5 11.25,7.80953153 11.25,8.19135802 L11.25,9.499 L14.5,9.499 L14.5,4.5 C14.5,4.22385763 14.2761424,4 14,4 Z M10.5,1.5 L5.5,1.5 L5.5,2.5 L10.5,2.5 L10.5,1.5 Z" transform="translate(0 .5)" fill="#505766" fill-rule="nonzero"/>
</svg>
