<svg xmlns="http://www.w3.org/2000/svg" viewBox="0 0 17 16" class="design-iconfont">
  <path d="M13.3333333,0 C14.751546,0 15.9111799,1.10710749 15.9951333,2.50422077 L16,2.70139001 C16,3.10305165 15.6743889,3.42866274 15.2727273,3.42866274 C14.8710656,3.42866274 14.5454545,3.10305165 14.5454545,2.70139001 L14.5454545,2.66666667 C14.5454545,1.99723061 14.0027694,1.45454545 13.3333333,1.45454545 L2.66666667,1.45454545 C1.99723061,1.45454545 1.45454545,1.99723061 1.45454545,2.66666667 L1.45454545,13.3333333 C1.45454545,14.0027694 1.99723061,14.5454545 2.66666667,14.5454545 L13.3333333,14.5454545 C14.0027694,14.5454545 14.5454545,14.0027694 14.5454545,13.3333333 L14.5454545,11.8915839 C14.5454545,11.4899223 14.8710656,11.1643112 15.2727273,11.1643112 C15.6743889,11.1643112 16,11.4899223 16,11.8915839 L16,13.3333333 C16,14.8060927 14.8060927,16 13.3333333,16 L2.66666667,16 C1.19390733,16 0,14.8060927 0,13.3333333 L0,2.66666667 C0,1.19390733 1.19390733,0 2.66666667,0 L13.3333333,0 Z M14.3574397,3.79016001 L16.4597498,5.89166 C16.8467498,6.27857 16.8467498,6.90578 16.4597498,7.29269 L10.6430497,13.10723 C10.4574787,13.2927097 10.205942,13.3970528 9.94356975,13.39739 L7.84494973,13.4000913 C7.29765973,13.40072 6.85332974,12.95774 6.85269973,12.41063 L6.849998,10.30553 C6.84965124,10.0423163 6.95408823,9.78978925 7.14024973,9.60371 L12.9558697,3.79016001 C13.3428698,3.40334002 13.9704397,3.40334002 14.3574397,3.79016001 Z M13.6559989,5.21004501 L8.34899887,10.515045 L8.35099887,11.899045 L9.73099887,11.897045 L15.0379989,6.59204501 L13.6559989,5.21004501 Z M6,3 C6.41421356,3 6.75,3.33578644 6.75,3.75 C6.75,4.16421356 6.41421356,4.5 6,4.5 L3.5,4.5 C3.08578644,4.5 2.75,4.16421356 2.75,3.75 C2.75,3.33578644 3.08578644,3 3.5,3 L6,3 Z" fill="#505766" fill-rule="nonzero"/>
</svg>
