<svg xmlns="http://www.w3.org/2000/svg" viewBox="0 0 18 18" class="design-iconfont">
  <path d="M0.75,9 C1.16421356,9 1.5,9.33578644 1.5,9.75 L1.5,13.875 C1.5,14.2546958 1.21784612,14.568491 0.851770557,14.6181534 L0.75,14.625 C0.335786438,14.625 5.07265313e-17,14.2892136 0,13.875 L0,9.75 C-5.07265313e-17,9.33578644 0.335786438,9 0.75,9 Z M17.25,9 C17.6642136,9 18,9.33578644 18,9.75 L18,13.875 C18,14.2546958 17.7178461,14.568491 17.3517706,14.6181534 L17.25,14.625 C16.8357864,14.625 16.5,14.2892136 16.5,13.875 L16.5,9.75 C16.5,9.33578644 16.8357864,9 17.25,9 Z M9,0 C9.93198052,0 10.6875,0.755519485 10.6875,1.6875 C10.6875,2.34949729 10.3063074,2.92246228 9.75144736,3.19886992 L9.75,4.5 L13.75,4.5 C14.9926407,4.5 16,5.50735931 16,6.75 L16,15.75 C16,16.9926407 14.9926407,18 13.75,18 L4.25,18 C3.00735931,18 2,16.9926407 2,15.75 L2,6.75 C2,5.50735931 3.00735931,4.5 4.25,4.5 L8.25,4.5 L8.24955559,3.19936913 C7.69415197,2.92315256 7.3125,2.34989608 7.3125,1.6875 C7.3125,0.755519485 8.06801948,0 9,0 Z M13.75,6 L4.25,6 C3.83578644,6 3.5,6.33578644 3.5,6.75 L3.5,15.75 C3.5,16.1642136 3.83578644,16.5 4.25,16.5 L13.75,16.5 C14.1642136,16.5 14.5,16.1642136 14.5,15.75 L14.5,6.75 C14.5,6.33578644 14.1642136,6 13.75,6 Z M6.1875,9 C6.80882034,9 7.3125,9.50367966 7.3125,10.125 C7.3125,10.704899 6.87373905,11.1823199 6.31008114,11.2433987 L6.1875,11.25 C5.56617966,11.25 5.0625,10.7463203 5.0625,10.125 C5.0625,9.50367966 5.56617966,9 6.1875,9 Z M11.8125,9 C12.4338203,9 12.9375,9.50367966 12.9375,10.125 C12.9375,10.704899 12.4987391,11.1823199 11.9350811,11.2433987 L11.8125,11.25 C11.1911797,11.25 10.6875,10.7463203 10.6875,10.125 C10.6875,9.50367966 11.1911797,9 11.8125,9 Z" fill="#505766" fill-rule="evenodd"/>
</svg>
