<svg xmlns="http://www.w3.org/2000/svg" viewBox="0 0 16 16" class="design-iconfont">
  <path d="M15.25,9.66666667 C15.6642136,9.66666667 16,10.0024531 16,10.4166667 L16,13.3724545 C16,14.8128279 14.8895174,16 13.493741,16 L10.4166667,16 C10.0024531,16 9.66666667,15.6642136 9.66666667,15.25 C9.66666667,14.8357864 10.0024531,14.5 10.4166667,14.5 L13.493741,14.5 C14.0378748,14.5 14.5,14.0059606 14.5,13.3724545 L14.5,10.4166667 C14.5,10.0024531 14.8357864,9.66666667 15.25,9.66666667 Z M0.75,9.66666667 C1.16421356,9.66666667 1.5,10.0024531 1.5,10.4166667 L1.5,13.4133389 C1.5,14.0244346 1.94435731,14.5 2.46613365,14.5 L4.61666667,14.5 C5.03088023,14.5 5.36666667,14.8357864 5.36666667,15.25 C5.36666667,15.6642136 5.03088023,16 4.61666667,16 L2.46613365,16 C1.0923211,16 0,14.8309631 0,13.4133389 L0,10.4166667 C0,10.0024531 0.335786438,9.66666667 0.75,9.66666667 Z M8,4 C11.0301866,4 14,6.04186891 14,8 C14,9.95813109 11.0301866,12 8,12 C4.96981336,12 2,10.0527648 2,8 C2,5.94723519 4.96981336,4 8,4 Z M8,5.5 C5.68320401,5.5 3.5,6.94752484 3.5,8 C3.5,9.05247516 5.68320401,10.5 8,10.5 C10.2674907,10.5 12.5,8.99623086 12.5,8 C12.5,7.00376914 10.2674907,5.5 8,5.5 Z M8,6.5 C8.82842712,6.5 9.5,7.17157288 9.5,8 C9.5,8.82842712 8.82842712,9.5 8,9.5 C7.17157288,9.5 6.5,8.82842712 6.5,8 C6.5,7.17157288 7.17157288,6.5 8,6.5 Z M13.3942572,0 C14.8347866,0 16,1.17504649 16,2.62140323 L16,4.61666667 C16,5.03088023 15.6642136,5.36666667 15.25,5.36666667 C14.8357864,5.36666667 14.5,5.03088023 14.5,4.61666667 L14.5,2.62140323 C14.5,2.00066503 14.0035247,1.5 13.3942572,1.5 L10.4166667,1.5 C10.0024531,1.5 9.66666667,1.16421356 9.66666667,0.75 C9.66666667,0.335786438 10.0024531,0 10.4166667,0 L13.3942572,0 Z M4.61666667,0 C5.03088023,0 5.36666667,0.335786438 5.36666667,0.75 C5.36666667,1.16421356 5.03088023,1.5 4.61666667,1.5 L2.56186056,1.5 C1.97708171,1.5 1.5,1.98182648 1.5,2.57988022 L1.5,4.61666667 C1.5,5.03088023 1.16421356,5.36666667 0.75,5.36666667 C0.335786438,5.36666667 0,5.03088023 0,4.61666667 L0,2.57988022 C0,1.15670408 1.14531349,0 2.56186056,0 L4.61666667,0 Z" fill="#505766" fill-rule="nonzero"/>
</svg>
