<svg xmlns="http://www.w3.org/2000/svg" viewBox="0 0 18 18" class="design-iconfont">
  <path d="M10.4265504,9.7757951 L16.1041297,11.2698949 C16.4045612,11.3489558 16.5840176,11.6565953 16.5049566,11.9570268 C16.4796108,12.0533409 16.4291478,12.1411988 16.3587248,12.2116219 L14.882,13.688 L16.9099605,15.7162745 C17.2028538,16.0091677 17.2028538,16.4840415 16.9099605,16.7769347 C16.8034539,16.8834413 16.6728837,16.9512182 16.5357508,16.9802655 L16.431944,16.9947891 L16.3273169,16.9947891 C16.1531662,16.9826861 15.9824336,16.910068 15.8493004,16.7769347 L13.821,14.749 L12.1752453,16.3951013 C11.9555754,16.6147713 11.5994201,16.6147713 11.3797502,16.3951013 C11.3093271,16.3246783 11.2588641,16.2368203 11.2335183,16.1405063 L9.73941852,10.462927 C9.66035759,10.1624955 9.83981393,9.85485603 10.1402455,9.7757951 C10.234083,9.751101 10.3327129,9.751101 10.4265504,9.7757951 Z M8.875,1.125 C13.1552068,1.125 16.625,4.59479319 16.625,8.875 C16.625,9.28921356 16.2892136,9.625 15.875,9.625 C15.4607864,9.625 15.125,9.28921356 15.125,8.875 C15.125,5.42322031 12.3267797,2.625 8.875,2.625 C5.42322031,2.625 2.625,5.42322031 2.625,8.875 C2.625,12.3267797 5.42322031,15.125 8.875,15.125 C9.28921356,15.125 9.625,15.4607864 9.625,15.875 C9.625,16.2892136 9.28921356,16.625 8.875,16.625 C4.59479319,16.625 1.125,13.1552068 1.125,8.875 C1.125,4.59479319 4.59479319,1.125 8.875,1.125 Z M11.5987176,11.6358013 L12.2683477,14.1806786 L14.1435949,12.3054314 L11.5987176,11.6358013 Z M9,4.25 C11.6233526,4.25 13.75,6.37664744 13.75,9 C13.75,9.41421356 13.4142136,9.75 13,9.75 C12.5857864,9.75 12.25,9.41421356 12.25,9 C12.25,7.20507456 10.7949254,5.75 9,5.75 C7.20507456,5.75 5.75,7.20507456 5.75,9 C5.75,10.7949254 7.20507456,12.25 9,12.25 C9.41421356,12.25 9.75,12.5857864 9.75,13 C9.75,13.4142136 9.41421356,13.75 9,13.75 C6.37664744,13.75 4.25,11.6233526 4.25,9 C4.25,6.37664744 6.37664744,4.25 9,4.25 Z" fill="#505766" fill-rule="nonzero"/>
</svg>
