<?xml version="1.0" standalone="no"?><!DOCTYPE svg PUBLIC "-//W3C//DTD SVG 1.1//EN" "http://www.w3.org/Graphics/SVG/1.1/DTD/svg11.dtd"><svg t="1715676337262" class="icon" viewBox="0 0 1024 1024" version="1.1" xmlns="http://www.w3.org/2000/svg" p-id="9492" xmlns:xlink="http://www.w3.org/1999/xlink" width="200" height="200"><path d="M749.312 896c-6.741333 0-13.525333-1.536-19.754667-4.778667l-217.6-113.664-217.472 113.664a42.752 42.752 0 0 1-61.781333-45.098666l41.386667-240.128-175.786667-170.026667a42.709333 42.709333 0 0 1 23.594667-72.874667l243.2-35.328 108.714666-218.709333c14.421333-29.013333 61.994667-29.013333 76.373334 0l108.757333 218.709333 243.2 35.328a42.581333 42.581333 0 0 1 23.552 72.874667l-175.786667 170.026667 41.386667 240.128a42.666667 42.666667 0 0 1-41.984 49.92z" p-id="9493"></path></svg>