<svg xmlns="http://www.w3.org/2000/svg" viewBox="0 0 16 16" class="design-iconfont">
  <g fill="none" fill-rule="evenodd">
    <rect stroke="#4B5563" stroke-width="1.5" x=".75" y="1.75" width="14.5" height="12.5" rx="2"/>
    <path d="M8,7.33333333 C8.36818983,7.33333333 8.66666667,7.0348565 8.66666667,6.66666667 C8.66666667,6.29847683 8.36818983,6 8,6 C7.63181017,6 7.33333333,6.29847683 7.33333333,6.66666667 C7.33333333,7.0348565 7.63181017,7.33333333 8,7.33333333 Z M8,10 C8.36818983,10 8.66666667,9.70152317 8.66666667,9.33333333 C8.66666667,8.9651435 8.36818983,8.66666667 8,8.66666667 C7.63181017,8.66666667 7.33333333,8.9651435 7.33333333,9.33333333 C7.33333333,9.70152317 7.63181017,10 8,10 Z M9.375,7.04233722 L10.796875,7.04233722 L10.796875,10.8298372 L12.03125,10.8298372 L12.03125,5.03608722 C12.03125,4.96733722 11.975,4.91108722 11.90625,4.91108722 L11.153125,4.91108722 C11.0953125,4.91108722 11.04375,4.95171222 11.0328125,5.00952472 C10.9921875,5.19858722 10.925,5.35796222 10.83125,5.49233722 C10.71875,5.65014972 10.5828125,5.77671222 10.4203125,5.87358722 C10.259375,5.97046222 10.0765625,6.03764972 9.8734375,6.07514972 C9.7109375,6.10483722 9.5453125,6.12202472 9.3734375,6.12358722 C9.3046875,6.12514972 9.25,6.17983722 9.25,6.24858722 L9.25,6.91733722 C9.25,6.98608722 9.30625,7.04233722 9.375,7.04233722 Z M3.375,7.04233722 L4.796875,7.04233722 L4.796875,10.8298372 L6.03125,10.8298372 L6.03125,5.03608722 C6.03125,4.96733722 5.975,4.91108722 5.90625,4.91108722 L5.153125,4.91108722 C5.0953125,4.91108722 5.04375,4.95171222 5.0328125,5.00952472 C4.9921875,5.19858722 4.925,5.35796222 4.83125,5.49233722 C4.71875,5.65014972 4.5828125,5.77671222 4.4203125,5.87358722 C4.259375,5.97046222 4.0765625,6.03764972 3.8734375,6.07514972 C3.7109375,6.10483722 3.5453125,6.12202472 3.3734375,6.12358722 C3.3046875,6.12514972 3.25,6.17983722 3.25,6.24858722 L3.25,6.91733722 C3.25,6.98608722 3.30625,7.04233722 3.375,7.04233722 Z" fill="#4B5563"/>
  </g>
</svg>
