<svg xmlns="http://www.w3.org/2000/svg" viewBox="0 0 16 16" class="design-iconfont">
  <path d="M15.6865981,4.34528483 L12.7190622,1.32013691 C12.4979598,1.09429554 12.1907983,0.978711992 11.8787875,1.00394516 C11.8501033,1.00140367 11.8213271,1.00000398 11.7925348,1.00000398 L10.2114796,1.00000398 L10.1006751,1.06290887 C9.51502081,1.39503676 8.76761958,1.5779274 7.99631035,1.5779274 C7.22500111,1.5779274 6.47769184,1.39503676 5.89203751,1.06290887 L5.78114112,1.00000398 L4.20008592,1.00000398 C3.80168012,0.998912921 3.43520609,1.22205639 3.2472597,1.5801772 L0.314022537,4.57054685 C0.11154007,4.77706046 0,5.05144328 0,5.34335586 C0,5.63526843 0.11154007,5.90974499 0.314022537,6.11616486 L2.45719187,8.30100954 C2.6340547,8.48224567 2.86807065,8.59390876 3.11788058,8.61626387 L3.11788058,13.896563 C3.11788058,14.5049485 3.60339712,15.000004 4.20017787,15.000004 L11.7925348,15.000004 C12.3893155,15.000004 12.874924,14.5049485 12.874924,13.896563 L12.874924,8.39184554 C13.1275759,8.37103948 13.3646252,8.25890362 13.5433369,8.07565379 L15.6867821,5.89080911 C16.1044366,5.46475174 16.1044366,4.7713422 15.6865981,4.34528483 L15.6865981,4.34528483 Z M14.9947371,5.18558808 L12.8514758,7.3705265 C12.8342077,7.38843215 12.8105425,7.39841391 12.7859127,7.39818039 C12.7689012,7.39818039 12.7437978,7.39368077 12.721361,7.37212011 L11.8963507,6.57821916 L11.8963507,13.8966567 C11.8963507,13.9552455 11.8497301,14.0026789 11.7923509,14.0026789 L4.20008592,14.0026789 C4.17251189,14.0026789 4.14606857,13.9915058 4.12657941,13.9716201 C4.10709025,13.9517343 4.09615362,13.9247669 4.09617802,13.8966567 L4.09617802,6.83854068 L3.27760449,7.59841329 C3.2554436,7.61903653 3.23089191,7.62334866 3.21434021,7.62334866 C3.18979152,7.62353446 3.16621189,7.61359463 3.14896099,7.59578851 L1.00579166,5.41085009 C0.983079047,5.38778956 0.978389399,5.36144806 0.978389399,5.34335586 C0.978389399,5.32526365 0.983171001,5.29892215 1.00579166,5.27576788 L3.96689085,2.25708815 L4.0615114,2.17056429 L4.10381019,2.06379216 C4.11965517,2.02369572 4.15777466,1.99732908 4.20017787,1.99732908 L5.53139435,1.99732908 C6.24734734,2.37585926 7.09644957,2.57515474 7.99631035,2.57515474 C8.89626308,2.57515474 9.74536531,2.37585926 10.4614103,1.99732908 L11.7918911,1.99732908 C11.7972244,1.99751657 11.8024658,1.99836024 11.8075233,1.99911018 L11.8775002,2.00932806 L11.9472932,1.99901644 C11.969546,1.99582921 11.9990632,1.9964854 12.0272931,2.0252642 L14.994829,5.05041212 C15.0314016,5.08777334 15.0313604,5.1482786 14.9947371,5.18558808 Z" fill="#4B5563" fill-rule="nonzero"/>
</svg>
