<svg xmlns="http://www.w3.org/2000/svg" viewBox="0 0 30 30" class="design-iconfont">
  <g fill="none" fill-rule="evenodd">
    <rect stroke="#E23" stroke-width="1.5" x=".75" y=".75" width="28.5" height="28.5" rx="4"/>
    <path d="M16,0 L26,0 C28.209139,-4.05812251e-16 30,1.790861 30,4 L30,14 L30,14 L16,0 Z" fill="#E23"/>
    <path d="M27.6014903,2.80756033 C27.822749,2.58703149 28.1886723,2.58013947 28.4188029,2.79216656 C28.6489335,3.00419365 28.6561256,3.3548495 28.4348669,3.57537834 L25.48405,6.46753497 C25.2550122,6.69581728 24.8732302,6.69395869 24.6466245,6.46345824 L22.7535215,4.586744 C22.5346124,4.36407235 22.5455219,4.01350462 22.7778886,3.80372905 C23.0102553,3.59395348 23.3760867,3.60440782 23.5949958,3.82707946 L25.0717676,5.27994045 L27.6014903,2.80756033 Z" fill="#FFF" fill-rule="nonzero"/>
  </g>
</svg>
