<?xml version="1.0" encoding="UTF-8"?>
<svg width="123.477569px" height="98.3838003px" viewBox="0 0 123.477569 98.3838003" version="1.1" xmlns="http://www.w3.org/2000/svg" xmlns:xlink="http://www.w3.org/1999/xlink">
    <title>暂无收藏-1</title>
    <defs>
        <linearGradient x1="50%" y1="0%" x2="50%" y2="116.86621%" id="linearGradient-1">
            <stop stop-color="#7B7B7B" offset="0%"></stop>
            <stop stop-color="#FAFAFA" stop-opacity="0" offset="100%"></stop>
        </linearGradient>
        <linearGradient x1="50%" y1="0%" x2="50%" y2="100%" id="linearGradient-2">
            <stop stop-color="#626262" offset="0%"></stop>
            <stop stop-color="#ECECEC" stop-opacity="0" offset="100%"></stop>
        </linearGradient>
        <linearGradient x1="50%" y1="0%" x2="50%" y2="100%" id="linearGradient-3">
            <stop stop-color="#626262" offset="0%"></stop>
            <stop stop-color="#ECECEC" stop-opacity="0" offset="100%"></stop>
        </linearGradient>
        <linearGradient x1="50%" y1="0%" x2="50%" y2="100%" id="linearGradient-4">
            <stop stop-color="#626262" offset="0%"></stop>
            <stop stop-color="#ECECEC" stop-opacity="0" offset="100%"></stop>
        </linearGradient>
        <linearGradient x1="62.0317227%" y1="50%" x2="15.1255325%" y2="49.5321238%" id="linearGradient-5">
            <stop stop-color="#4B515A" offset="0%"></stop>
            <stop stop-color="#616266" stop-opacity="0.280808669" offset="100%"></stop>
        </linearGradient>
        <filter x="-6.3%" y="-64.6%" width="112.5%" height="229.3%" filterUnits="objectBoundingBox" id="filter-6">
            <feGaussianBlur stdDeviation="1" in="SourceGraphic"></feGaussianBlur>
        </filter>
        <linearGradient x1="50%" y1="19.7745201%" x2="50%" y2="60.8781537%" id="linearGradient-7">
            <stop stop-color="#CACBCF" offset="0%"></stop>
            <stop stop-color="#8C8F9A" offset="100%"></stop>
        </linearGradient>
        <linearGradient x1="63.418188%" y1="18.9192235%" x2="57.7030472%" y2="50%" id="linearGradient-8">
            <stop stop-color="#E3E3E3" offset="0%"></stop>
            <stop stop-color="#ACB2B8" offset="100%"></stop>
        </linearGradient>
        <linearGradient x1="50%" y1="41.8239214%" x2="56.7820561%" y2="58.1760786%" id="linearGradient-9">
            <stop stop-color="#DEDFE6" offset="0%"></stop>
            <stop stop-color="#FCFCFD" offset="100%"></stop>
        </linearGradient>
        <radialGradient cx="32.0058469%" cy="31.1422445%" fx="32.0058469%" fy="31.1422445%" r="112.216794%" gradientTransform="translate(0.320058,0.311422),scale(0.771460,1.000000),rotate(34.136479),scale(1.000000,0.691289),translate(-0.320058,-0.311422)" id="radialGradient-10">
            <stop stop-color="#F4F4F5" offset="0%"></stop>
            <stop stop-color="#B6B7BD" offset="80.5199064%"></stop>
            <stop stop-color="#D2D4DB" offset="100%"></stop>
        </radialGradient>
        <path d="M5.13192941,2.79028349 C-1.29356611,7.28610662 -1.56539572,19.5795908 3.64469757,24.6695996 C7.40497604,28.3432095 17.8500269,28.845674 25.7784463,27.8280998 C33.753464,26.804545 36.5482623,21.2979792 36.6661679,15.9060269 C36.7618401,11.5308347 35.1658563,7.25080736 32.5790878,5.34529288 C32.1225067,5.00895743 31.7268556,4.62689406 31.2625941,4.29590819 C24.1020962,-0.809024657 11.166185,-1.43179494 5.13192941,2.79028349 Z" id="path-11"></path>
        <linearGradient x1="97.6648953%" y1="50%" x2="50%" y2="54.9955709%" id="linearGradient-13">
            <stop stop-color="#B8B8BA" offset="0%"></stop>
            <stop stop-color="#96979E" stop-opacity="0" offset="100%"></stop>
        </linearGradient>
        <radialGradient cx="50%" cy="69.3902714%" fx="50%" fy="69.3902714%" r="70.4045453%" gradientTransform="translate(0.500000,0.693903),scale(0.788907,1.000000),rotate(45.249678),scale(1.000000,1.299773),translate(-0.500000,-0.693903)" id="radialGradient-14">
            <stop stop-color="#F4F4F5" offset="0%"></stop>
            <stop stop-color="#C5C6CB" offset="75.9533435%"></stop>
            <stop stop-color="#D2D4DB" offset="100%"></stop>
        </radialGradient>
        <radialGradient cx="59.5200546%" cy="27.7338612%" fx="59.5200546%" fy="27.7338612%" r="162.254072%" gradientTransform="translate(0.595201,0.277339),scale(1.000000,0.805440),rotate(152.654688),scale(1.000000,1.298249),translate(-0.595201,-0.277339)" id="radialGradient-15">
            <stop stop-color="#FFFFFF" offset="0%"></stop>
            <stop stop-color="#DBDBDB" offset="36.6320203%"></stop>
            <stop stop-color="#D2D3DA" offset="66.5551528%"></stop>
            <stop stop-color="#F1F1F1" offset="100%"></stop>
        </radialGradient>
        <radialGradient cx="32.4989278%" cy="24.0486155%" fx="32.4989278%" fy="24.0486155%" r="86.3604965%" gradientTransform="translate(0.324989,0.240486),scale(1.000000,0.717845),rotate(78.307954),scale(1.000000,0.883837),translate(-0.324989,-0.240486)" id="radialGradient-16">
            <stop stop-color="#F4F4F5" offset="0%"></stop>
            <stop stop-color="#C5C6CB" offset="75.9533435%"></stop>
            <stop stop-color="#D2D4DB" offset="100%"></stop>
        </radialGradient>
        <radialGradient cx="36.0111857%" cy="0%" fx="36.0111857%" fy="0%" r="186.38818%" gradientTransform="translate(0.360112,0.000000),scale(1.000000,0.519636),rotate(97.028141),scale(1.000000,0.883837),translate(-0.360112,-0.000000)" id="radialGradient-17">
            <stop stop-color="#F4F4F5" offset="0%"></stop>
            <stop stop-color="#C5C6CB" offset="75.9533435%"></stop>
            <stop stop-color="#D2D4DB" offset="100%"></stop>
        </radialGradient>
        <radialGradient cx="35.1633593%" cy="23.9093152%" fx="35.1633593%" fy="23.9093152%" r="149.427664%" gradientTransform="translate(0.351634,0.239093),scale(0.433900,1.000000),scale(1.000000,0.472530),translate(-0.351634,-0.239093)" id="radialGradient-18">
            <stop stop-color="#F4F4F5" offset="0%"></stop>
            <stop stop-color="#C5C6CB" offset="80.5199064%"></stop>
            <stop stop-color="#D2D4DB" offset="100%"></stop>
        </radialGradient>
        <linearGradient x1="50%" y1="45.6213501%" x2="38.8912021%" y2="63.3988638%" id="linearGradient-19">
            <stop stop-color="#E4E6ED" offset="0%"></stop>
            <stop stop-color="#D5D8DC" offset="100%"></stop>
        </linearGradient>
        <radialGradient cx="36.0111857%" cy="0%" fx="36.0111857%" fy="0%" r="132.054723%" gradientTransform="translate(0.360112,0.000000),scale(1.000000,0.739032),rotate(99.944846),scale(1.000000,0.883837),translate(-0.360112,-0.000000)" id="radialGradient-20">
            <stop stop-color="#F4F4F5" offset="0%"></stop>
            <stop stop-color="#F4F4F5" offset="0%"></stop>
            <stop stop-color="#C5C6CB" offset="75.9533435%"></stop>
            <stop stop-color="#D2D4DB" offset="100%"></stop>
        </radialGradient>
        <linearGradient x1="68.5441852%" y1="20.8999855%" x2="50%" y2="95.7422371%" id="linearGradient-21">
            <stop stop-color="#E8ECED" stop-opacity="0.701752349" offset="0%"></stop>
            <stop stop-color="#C1C9CE" offset="100%"></stop>
        </linearGradient>
        <linearGradient x1="100%" y1="4.15344915%" x2="24.5935678%" y2="73.961693%" id="linearGradient-22">
            <stop stop-color="#CFD0D5" offset="0%"></stop>
            <stop stop-color="#BCC0CD" offset="48.6669503%"></stop>
            <stop stop-color="#8C929F" offset="100%"></stop>
        </linearGradient>
        <linearGradient x1="50%" y1="24.657827%" x2="50%" y2="100%" id="linearGradient-23">
            <stop stop-color="#EEEEEE" offset="0%"></stop>
            <stop stop-color="#C9C5C5" offset="100%"></stop>
        </linearGradient>
    </defs>
    <g id="页面-1" stroke="none" stroke-width="1" fill="none" fill-rule="evenodd">
        <g id="缺省图-copy" transform="translate(-539.500000, -603.500000)">
            <g id="编组-2" transform="translate(539.500000, 599.009243)">
                <g id="编组-4" transform="translate(-0.000000, 74.989895)">
                    <path d="M3.0209183,23.79537 C17.7111394,15.2159252 35.4541667,10.9262029 56.25,10.9262029 C87.44375,10.9262029 101.005534,15.5612246 110.5,18.0095293 C116.829644,19.6417324 121.1555,21.8052226 123.477569,24.5 L110.5,24.5 L2,24.5 L3.0209183,23.79537 Z" id="矩形" fill="url(#linearGradient-1)" opacity="0.171837216"></path>
                    <path d="M7.25,27.8846624 C11.2540644,27.8846624 14.5,25.5791022 14.5,20.4299 C14.5,15.2806978 10.6676332,10.9387486 7.25,10.8851661 C3.83236679,10.8315836 0,15.2806978 0,20.4299 C0,25.5791022 3.24593556,27.8846624 7.25,27.8846624 Z" id="椭圆形" fill="url(#linearGradient-2)" opacity="0.142072405"></path>
                    <path d="M92.84375,18.4157312 C96.3473064,18.4157312 99.1875,16.2024048 99.1875,11.6920793 C99.1875,7.18175388 95.8341791,3.57234701 92.84375,3.52541267 C89.8533209,3.47847832 86.5,7.18175388 86.5,11.6920793 C86.5,16.2024048 89.3401936,18.4157312 92.84375,18.4157312 Z" id="椭圆形" fill="url(#linearGradient-3)" opacity="0.128063384"></path>
                    <path d="M108.8125,24.5 C115.819613,24.5 121.5,20.8583794 121.5,13.4374704 C121.5,6.0165614 114.793358,0.0779478327 108.8125,0.000726021372 C102.831642,-0.0764957899 96.125,6.0165614 96.125,13.4374704 C96.125,20.8583794 101.805387,24.5 108.8125,24.5 Z" id="椭圆形" fill="url(#linearGradient-4)" opacity="0.128063384"></path>
                </g>
                <polygon id="路径-80" fill="url(#linearGradient-5)" opacity="0.125353859" filter="url(#filter-6)" points="38.6029316 87.2575412 28.0550554 90.5263434 76.0314911 90.5263434 76.0314911 87.2575412 54.5390948 85.8853767"></polygon>
                <g id="编组-8" opacity="0.499886649" transform="translate(28.055055, 39.020482)">
                    <polygon id="路径-82" fill="url(#linearGradient-7)" points="58.9742473 9.74930579 57.8507402 24.9966759 11.6738977 16.8307928 13.4046038 1.0066266"></polygon>
                    <polygon id="路径-82" fill="url(#linearGradient-8)" points="2.59827924 14.4525612 11.7051283 16.5452454 13.4046038 1.0066266"></polygon>
                    <polygon id="路径-80" fill="#F4F6F7" points="61.1645428 9.16925054 58.6513301 35.1311481 47.9764357 51.5058617 51.0508264 24.7335959"></polygon>
                    <polygon id="路径-80" fill="url(#linearGradient-9)" points="61.1645428 9.16925054 58.9742473 9.74930579 50.3909131 22.6922181 2.59827924 14.4525612 13.4046038 1.0066266 58.9742473 9.74930579 61.1645428 9.16925054 12.9278386 0 0 15.4139103 51.0508264 24.7335959"></polygon>
                </g>
                <g id="机器人" transform="translate(66.253425, 30.856350) scale(-1, 1) translate(-66.253425, -30.856350) translate(33.319350, 0.000000)">
                    <g id="编组" transform="translate(8.687500, 15.942346)">
                        <mask id="mask-12" fill="white">
                            <use xlink:href="#path-11"></use>
                        </mask>
                        <use id="路径-15" fill="url(#radialGradient-10)" xlink:href="#path-11"></use>
                        <path d="M15.0483746,2.37466379 C14.1403769,2.28359285 13.0953963,2.28359285 11.9134329,2.37466379 C10.7314696,2.46573473 9.60053614,2.63073273 8.52063269,2.86965779 L5.96969797,1.34654807 L10.9685093,0 L13.7346274,0.893394409 L15.0483746,2.37466379 Z" id="路径-31" fill="url(#linearGradient-13)" mask="url(#mask-12)"></path>
                    </g>
                    <g id="编组-27" transform="translate(35.646829, 31.990757)">
                        <path d="M0.431278799,15.3927587 C5.82544559,14.5012549 9.30143176,13.2152824 10.8592373,11.5348414 C13.1959457,9.01417976 14.6542575,1.8944142 16.6739546,0.53276197 C18.6936517,-0.828890257 24.0406711,0.596785569 24.0406711,2.80753916 C24.0406711,5.01829276 19.5078713,16.0105294 14.646735,17.4195735 C11.4059774,18.3589363 6.90994326,18.7495572 1.15863258,18.5914361 L0.431278799,15.3927587 Z" id="路径-36" fill="url(#radialGradient-14)"></path>
                        <path d="M13.6989077,6.02296037 C13.0261039,5.25013107 12.5386594,3.28118343 12.5386594,2.78548383 C12.5386594,2.28978423 12.8927526,1.61730123 13.3950808,1.49463773 C13.897409,1.37197423 15.9784206,2.10013323 16.3773096,2.84235825 C16.7761987,3.58458327 15.833045,5.08346273 15.4125325,5.5883207 C14.99202,6.09317868 14.3717116,6.79578967 13.6989077,6.02296037 Z" id="路径-45" fill="url(#radialGradient-15)"></path>
                    </g>
                    <path d="M37.8942148,51.8573568 C37.8906513,57.1631594 33.6125382,71.6421052 28.3469334,71.6390299 C23.0808199,71.6354409 18.8220394,57.1503435 18.8250903,51.8445409 C18.8286532,46.5387383 23.0986263,45.0710559 28.3642311,45.0746378 C33.6298359,45.0782328 37.8977739,46.5515542 37.8942148,51.8573568 Z" id="Stroke-11" fill="url(#radialGradient-16)"></path>
                    <g id="编组-3" transform="translate(11.560662, 56.245228)" fill="url(#radialGradient-17)">
                        <path d="M5.92853968,1.79519226 C6.43476541,6.85301376 6.72817558,9.56457775 6.80877017,9.92988422 C6.93408505,10.4978918 9.14689598,12.887632 8.270338,14.0320598 C7.39378001,15.1764876 2.37657724,18.1850693 0.621249788,14.6219502 C-0.157612779,13.0409459 -0.255120222,9.96840072 0.621249788,5.53690261 C0.831878561,4.47182622 1.37388101,2.73869704 2.24725713,0.337515094 C2.7478106,-0.0495180944 3.41125264,-0.103689083 4.23758323,0.175002129 C5.47707911,0.593038946 5.91001869,1.61014465 5.92853968,1.79519226 Z" id="路径-35"></path>
                    </g>
                    <path d="M24.9459063,51.5750208 C26.2165285,48.4142488 34.1952432,47.8452436 35.6011902,51.2593393 C37.0071372,54.673435 32.9118073,64.4341016 30.2735482,64.5122646 C27.6352892,64.5904277 23.675284,54.7357928 24.9459063,51.5750208 Z" id="路径-32" stroke="#AAAAAA" stroke-width="0.305960793" opacity="0.502024333"></path>
                    <g id="编组-5" transform="translate(24.945906, 46.601327)">
                        <path d="M6.67560832,1.55071894 C8.75456196,0.138167402 10.0356927,-0.309363108 10.5190004,0.20812741 C11.2439621,0.984363187 11.4242849,3.78341577 10.5190004,4.64046831 C9.91547745,5.21183668 8.63434674,4.82792292 6.67560832,3.48872705 L6.67560832,1.55071894 Z M4.8774328,1.51526546 C2.22460851,0.586637085 0.683144905,0.479189314 0.253041982,1.19292214 C-0.392112403,2.26352138 0.250972963,5.20481436 1.56319873,5.81109668 C2.43801592,6.2152849 3.63216193,5.47768457 5.14563677,3.59829569 L4.8774328,1.51526546 Z" id="形状结合" fill="#7A7C85"></path>
                        <path d="M5.04150455,2.23426537 C5.2283504,2.20863348 4.91605865,2.17088466 4.1046293,2.12101893 C3.29319995,2.07115319 2.46646246,2.03890389 1.62441681,2.02427101 C2.68503744,2.22439321 3.43151822,2.37502606 3.86385916,2.47616954 C4.29620009,2.57731302 4.68874855,2.62845838 5.04150455,2.62960562 C4.86061464,2.64326264 4.61208479,2.78452024 4.29591498,3.0533784 C3.97974518,3.32223657 3.67894185,3.59960316 3.393505,3.88547817 C4.0023597,3.56927757 4.38654101,3.36903452 4.54604893,3.28474903 C4.70555685,3.20046353 4.90332663,3.12333999 5.13935826,3.0533784 L6.49073707,2.74007839 L8.78199286,3.1421612 C7.93032041,2.8424052 7.42929917,2.67155334 7.27892913,2.62960562 C7.16366279,2.59745054 6.96919953,2.52326437 6.80026443,2.51266919 C6.76596562,2.51051806 6.72948277,2.52589484 6.69081588,2.55879955 L9.5056861,1.58840529 C8.52335576,1.71950898 7.84528678,1.82624556 7.47147917,1.90861505 C7.09767156,1.99098453 6.79873059,2.09953464 6.57465625,2.23426537 L5.87846583,2.47616954 L5.04150455,2.23426537 Z" id="路径-2" fill="#595B65" opacity="0.657323201"></path>
                        <path d="M4.82698548,1.42444446 C5.08977263,1.09064678 6.59624127,1.19016203 6.73701845,1.42444446 C6.87779564,1.65872688 6.87779564,3.32255014 6.67425871,3.55521119 C6.47072179,3.78787224 5.32614519,3.99769274 5.08024144,3.81764196 C4.83433768,3.63759118 4.56419833,1.75824213 4.82698548,1.42444446 Z" id="路径-8" fill="#83848C"></path>
                    </g>
                    <path d="M19.9357063,23.1464148 C18.0293621,25.1135879 17.1522626,28.6542263 17.2108842,32.0956282 C17.2648736,35.2650944 18.1000961,38.3530472 19.9357063,39.9903836 C23.7644193,43.4055375 36.4770966,43.6104707 40.9462058,39.780085 C43.2197464,37.8314779 44.3076789,34.5346878 44.3999401,31.2662067 C44.4890371,28.1098196 43.6641897,24.9848966 41.2730012,22.8456089 C36.4057051,18.4910601 23.5977575,19.3675125 19.9357063,23.1464148 Z" id="路径-18" fill="#8B8D96"></path>
                    <path d="M31.8405245,34.998489 C29.8343225,34.998489 28.2083103,33.2898789 28.2083103,31.181766 C28.2083103,29.0736532 29.8343225,27.365043 31.8405245,27.365043 C33.8467265,27.365043 35.4727387,29.0736532 35.4727387,31.181766 C35.4727387,33.2898789 33.8467265,34.998489 31.8405245,34.998489" id="Fill-21" fill="#FFFFFF"></path>
                    <path d="M23.6957134,18.338199 C23.4780584,17.9891393 23.0253194,17.6160991 22.3374964,17.2190785 C21.8361094,16.9296712 21.2703396,16.6838718 20.4962715,16.5386874 C20.1908547,16.4814034 19.8191276,16.4604212 19.3810903,16.4757408 C19.5271662,15.9714779 19.7734657,15.5219163 20.1199888,15.127056 C21.1277302,13.9787426 23.1276196,13.0314786 25.17132,12.6841621 C27.3823483,12.3084091 29.4662839,12.2371363 31.5444688,12.6841621 C31.8997112,12.7605762 32.4263055,12.9267197 33.1242516,13.1825926 L23.6957134,18.338199 Z" id="路径-3" fill="url(#radialGradient-18)"></path>
                    <path d="M27.3691442,13.0228623 C25.2347483,13.3373146 23.7435488,14.5661977 23.6951523,15.7716536 L23.6664838,16.5421446 L23.6464942,17.2095757 L23.6386696,17.5606653 L23.6331038,17.971295 C23.6328718,18.0027796 23.6326979,18.0335809 23.6325819,18.0636993 C23.6325539,18.1762818 23.6324959,18.2607187 23.6324079,18.31701 C23.6324079,18.345262 23.7938396,18.3215656 24.1167031,18.2459208 C25.8043674,17.7770325 27.560141,17.5274427 29.3840238,17.4971515 C31.2724418,17.4657884 33.143041,17.6007316 34.9958212,17.9019809 C35.3186847,17.9472803 35.4801164,17.9548551 35.4801164,17.9247054 C35.4801164,17.5652307 35.4801164,17.0260186 35.4801164,16.3070692 C35.4801164,15.4626511 35.219798,14.7547985 34.7142558,14.2174295 C34.1311194,13.5975815 33.3590846,13.1445626 32.1553349,12.9318386 C31.0053433,12.7286145 29.1868111,12.7550725 27.3691442,13.0228623 Z" id="路径" fill="#FFFFFF" fill-rule="nonzero"></path>
                    <path d="M24.1167031,18.2459208 C24.1167031,17.6448905 24.1374857,16.8267246 24.1790508,15.7914232 C24.208208,15.0651794 25.2151368,13.8339271 27.4391311,13.5062746 C29.3066921,13.2311341 31.0453323,13.2316616 32.0717676,13.413051 C33.4153423,13.6504846 34.0617679,14.2335643 34.3629701,14.5537289 C34.7702214,14.986619 34.9958212,15.5675615 34.9958212,16.3070692 C34.9958212,16.6174323 34.9958212,17.1490695 34.9958212,17.9019809 C33.033231,17.591834 31.1626319,17.4568908 29.3840238,17.4971515 C27.6054157,17.5374121 25.8496421,17.7870019 24.1167031,18.2459208 Z" id="路径-19" fill="#7A7C85"></path>
                </g>
                <g id="编组-6" opacity="0.5046" transform="translate(25.110835, 54.434392)" fill="url(#linearGradient-19)">
                    <polygon id="路径-80" points="2.94422043 0 0 25.828231 50.9206561 36.0919513 53.9950468 9.31968554"></polygon>
                </g>
                <g id="编组-3" transform="translate(82.243808, 60.630971) scale(-1, 1) translate(-82.243808, -60.630971) translate(76.860779, 48.706899)">
                    <path d="M7.55918452,0.546289058 C8.4916217,-0.363119175 9.65368931,0.0464686074 10.208912,0.461033063 C10.7641346,0.875597519 10.8585335,1.7716374 10.6916606,2.53616215 C10.5804119,3.04584532 8.71914403,5.82600554 5.1078569,10.8766428 L2.72787435,7.68258233 C5.32712301,3.53132564 6.93755973,1.15256121 7.55918452,0.546289058 Z" id="路径-33" fill="url(#radialGradient-20)"></path>
                    <path d="M5.92853968,9.3335212 C6.43476541,14.3913427 6.72817558,17.1029067 6.80877017,17.4682132 C6.93408505,18.0362207 9.14689598,20.4259609 8.270338,21.5703887 C7.39378001,22.7148165 2.37657724,25.7233982 0.621249788,22.1602791 C-0.157612779,20.5792749 -0.255120222,17.5067297 0.621249788,13.0752315 C0.831878561,12.0101551 1.37388101,10.277026 2.24725713,7.87584403 C2.7478106,7.48881084 3.41125264,7.43463985 4.23758323,7.71333106 C5.47707911,8.13136788 5.91001869,9.14847358 5.92853968,9.3335212 Z" id="路径-35" fill="url(#radialGradient-17)"></path>
                </g>
                <g id="编组-7" opacity="0.498872" transform="translate(12.285963, 4.490757)">
                    <polygon id="路径-81" fill="url(#linearGradient-21)" points="3.74735508 42.825127 0 31.1208518 40.2667944 0 44.7739038 10.0730209"></polygon>
                    <polygon id="路径-81" fill="url(#linearGradient-22)" points="3.74735508 42.825127 8.17614751 48.3948711 48.8865823 15.5220047 44.7739038 10.0730209"></polygon>
                    <polygon id="路径-81" fill="url(#linearGradient-23)" points="48.8865823 15.5220047 46.3513639 8.77492952 40.2667944 0 44.7739038 10.0730209"></polygon>
                </g>
            </g>
        </g>
    </g>
</svg>