<?xml version="1.0" encoding="UTF-8"?>
<svg width="122.582091px" height="127.401404px" viewBox="0 0 122.582091 127.401404" version="1.1" xmlns="http://www.w3.org/2000/svg" xmlns:xlink="http://www.w3.org/1999/xlink">
    <title>404-1</title>
    <defs>
        <linearGradient x1="50%" y1="0%" x2="50%" y2="116.86621%" id="linearGradient-1">
            <stop stop-color="#7B7B7B" offset="0%"></stop>
            <stop stop-color="#FAFAFA" stop-opacity="0" offset="100%"></stop>
        </linearGradient>
        <linearGradient x1="80.5701219%" y1="45.7586575%" x2="39.1085873%" y2="58.1083544%" id="linearGradient-2">
            <stop stop-color="#4B515A" offset="0%"></stop>
            <stop stop-color="#616266" stop-opacity="0.280808669" offset="100%"></stop>
        </linearGradient>
        <filter x="-11.6%" y="-28.8%" width="123.2%" height="157.6%" filterUnits="objectBoundingBox" id="filter-3">
            <feGaussianBlur stdDeviation="1" in="SourceGraphic"></feGaussianBlur>
        </filter>
        <linearGradient x1="62.0317227%" y1="50%" x2="15.1255325%" y2="49.0354938%" id="linearGradient-4">
            <stop stop-color="#4B515A" offset="0%"></stop>
            <stop stop-color="#616266" stop-opacity="0.280808669" offset="100%"></stop>
        </linearGradient>
        <filter x="-16.7%" y="-120.0%" width="133.3%" height="340.0%" filterUnits="objectBoundingBox" id="filter-5">
            <feGaussianBlur stdDeviation="1" in="SourceGraphic"></feGaussianBlur>
        </filter>
        <linearGradient x1="50%" y1="0%" x2="50%" y2="100%" id="linearGradient-6">
            <stop stop-color="#626262" offset="0%"></stop>
            <stop stop-color="#ECECEC" stop-opacity="0" offset="100%"></stop>
        </linearGradient>
        <linearGradient x1="62.1125506%" y1="50%" x2="27.5548641%" y2="125.013077%" id="linearGradient-7">
            <stop stop-color="#626262" offset="0%"></stop>
            <stop stop-color="#ECECEC" stop-opacity="0" offset="100%"></stop>
        </linearGradient>
        <linearGradient x1="50%" y1="56.8576067%" x2="94.4636956%" y2="-1.06475636e-11%" id="linearGradient-8">
            <stop stop-color="#ADB5C3" offset="0%"></stop>
            <stop stop-color="#A7AABA" stop-opacity="0.225047292" offset="75.7584152%"></stop>
            <stop stop-color="#BDBFC7" stop-opacity="0.437955203" offset="100%"></stop>
        </linearGradient>
        <path d="M29.0518514,6.27313314 L29.3452169,6.58024483 C29.3952254,6.63348241 29.4457971,6.68774811 29.4969411,6.74304487 C30.3156423,7.62822326 30.9558533,8.5699053 31.4142702,9.56654469 C30.8628612,9.72757153 30.3212811,9.90672198 29.7895217,10.1028 C29.4145134,9.33637223 28.9026575,8.60163114 28.2519255,7.89806073 L27.9958797,7.62529275 L27.7530091,7.37468732 L27.5237483,7.14638611 L27.3085317,6.94053081 C27.2738568,6.90809996 27.2397852,6.87661026 27.2063259,6.84606465 L27.062902,6.7179561 C27.5617569,6.42768114 27.9704988,6.00036277 28.2371477,5.48780295 C28.4892645,5.71188591 28.760424,5.97350478 29.0518514,6.27313314 Z" id="path-9"></path>
        <filter x="-80.4%" y="-75.8%" width="260.8%" height="251.7%" filterUnits="objectBoundingBox" id="filter-10">
            <feGaussianBlur stdDeviation="2" in="SourceAlpha" result="shadowBlurInner1"></feGaussianBlur>
            <feOffset dx="0" dy="-3" in="shadowBlurInner1" result="shadowOffsetInner1"></feOffset>
            <feComposite in="shadowOffsetInner1" in2="SourceAlpha" operator="arithmetic" k2="-1" k3="1" result="shadowInnerInner1"></feComposite>
            <feColorMatrix values="0 0 0 0 0.49958346   0 0 0 0 0.543461352   0 0 0 0 0.620247661  0 0 0 0.666930726 0" type="matrix" in="shadowInnerInner1"></feColorMatrix>
        </filter>
        <linearGradient x1="-14.4151773%" y1="37.818252%" x2="60.9427543%" y2="37.7233712%" id="linearGradient-11">
            <stop stop-color="#ADB5C3" offset="0%"></stop>
            <stop stop-color="#A7AABA" stop-opacity="0.225047292" offset="75.7584152%"></stop>
            <stop stop-color="#F9FAFF" stop-opacity="0.437955203" offset="100%"></stop>
        </linearGradient>
        <ellipse id="path-12" cx="25.4056741" cy="3.68259318" rx="3.69527018" ry="3.68259318"></ellipse>
        <filter x="-47.4%" y="-47.5%" width="194.7%" height="195.0%" filterUnits="objectBoundingBox" id="filter-13">
            <feGaussianBlur stdDeviation="2" in="SourceAlpha" result="shadowBlurInner1"></feGaussianBlur>
            <feOffset dx="0" dy="-3" in="shadowBlurInner1" result="shadowOffsetInner1"></feOffset>
            <feComposite in="shadowOffsetInner1" in2="SourceAlpha" operator="arithmetic" k2="-1" k3="1" result="shadowInnerInner1"></feComposite>
            <feColorMatrix values="0 0 0 0 0.49958346   0 0 0 0 0.543461352   0 0 0 0 0.620247661  0 0 0 0.666930726 0" type="matrix" in="shadowInnerInner1"></feColorMatrix>
        </filter>
        <linearGradient x1="100%" y1="50%" x2="-4.38959904%" y2="53.501512%" id="linearGradient-14">
            <stop stop-color="#ADB5C3" offset="0%"></stop>
            <stop stop-color="#A7AABA" stop-opacity="0.225047292" offset="75.7584152%"></stop>
            <stop stop-color="#F9FAFF" stop-opacity="0.437955203" offset="100%"></stop>
        </linearGradient>
        <path d="M38.75,8.52287082 C49.7476844,8.52287082 58.9804582,15.2710327 61.539516,24.3836475 C55.1440135,22.5924212 47.2679653,21.5356627 38.75,21.5356627 C30.2322108,21.5356627 22.3563123,22.5923775 15.9606568,24.3834577 C18.5195418,15.2710327 27.7523156,8.52287082 38.75,8.52287082 Z" id="path-15"></path>
        <filter x="-7.7%" y="-22.1%" width="115.4%" height="144.1%" filterUnits="objectBoundingBox" id="filter-16">
            <feGaussianBlur stdDeviation="2" in="SourceAlpha" result="shadowBlurInner1"></feGaussianBlur>
            <feOffset dx="0" dy="-3" in="shadowBlurInner1" result="shadowOffsetInner1"></feOffset>
            <feComposite in="shadowOffsetInner1" in2="SourceAlpha" operator="arithmetic" k2="-1" k3="1" result="shadowInnerInner1"></feComposite>
            <feColorMatrix values="0 0 0 0 0.49958346   0 0 0 0 0.543461352   0 0 0 0 0.620247661  0 0 0 0.548186189 0" type="matrix" in="shadowInnerInner1"></feColorMatrix>
        </filter>
        <linearGradient x1="15.4887552%" y1="48.5546352%" x2="118.967937%" y2="50%" id="linearGradient-17">
            <stop stop-color="#ADB5C3" offset="0%"></stop>
            <stop stop-color="#A7AABA" stop-opacity="0.225047292" offset="75.7584152%"></stop>
            <stop stop-color="#EFF0F6" stop-opacity="0.41101518" offset="100%"></stop>
        </linearGradient>
        <path d="M38.75,51.3346572 C60.1510341,51.3346572 77.5,44.663925 77.5,36.4351599 C77.5,28.2063949 60.1510341,21.5356627 38.75,21.5356627 C17.3489659,21.5356627 1.76783033e-11,28.2063949 1.76783033e-11,36.4351599 C1.76783033e-11,44.663925 17.3489659,51.3346572 38.75,51.3346572 Z" id="path-18"></path>
        <filter x="-4.5%" y="-11.7%" width="109.0%" height="123.5%" filterUnits="objectBoundingBox" id="filter-19">
            <feGaussianBlur stdDeviation="2" in="SourceAlpha" result="shadowBlurInner1"></feGaussianBlur>
            <feOffset dx="0" dy="-3" in="shadowBlurInner1" result="shadowOffsetInner1"></feOffset>
            <feComposite in="shadowOffsetInner1" in2="SourceAlpha" operator="arithmetic" k2="-1" k3="1" result="shadowInnerInner1"></feComposite>
            <feColorMatrix values="0 0 0 0 0.49958346   0 0 0 0 0.543461352   0 0 0 0 0.620247661  0 0 0 1 0" type="matrix" in="shadowInnerInner1"></feColorMatrix>
        </filter>
        <linearGradient x1="41.230781%" y1="57.8307053%" x2="74.8488976%" y2="37.395063%" id="linearGradient-20">
            <stop stop-color="#F9FAFF" offset="0%"></stop>
            <stop stop-color="#E4E7F4" offset="24.2415848%"></stop>
            <stop stop-color="#B1BAC9" offset="100%"></stop>
        </linearGradient>
        <linearGradient x1="50%" y1="50%" x2="139.510214%" y2="33.4164745%" id="linearGradient-21">
            <stop stop-color="#A2ADBE" offset="0%"></stop>
            <stop stop-color="#A7AABA" stop-opacity="0.225047292" offset="75.7584152%"></stop>
            <stop stop-color="#F9FAFF" stop-opacity="0.437955203" offset="100%"></stop>
        </linearGradient>
        <path d="M39.0053029,48.2939434 C49.790076,48.2939434 58.532862,44.3459591 58.532862,39.4758737 C58.532862,34.6057882 49.790076,30.6578039 39.0053029,30.6578039 C28.2205298,30.6578039 19.4777439,34.6057882 19.4777439,39.4758737 C19.4777439,44.3459591 28.2205298,48.2939434 39.0053029,48.2939434 Z" id="path-22"></path>
        <filter x="-9.0%" y="-19.8%" width="117.9%" height="139.7%" filterUnits="objectBoundingBox" id="filter-23">
            <feGaussianBlur stdDeviation="2" in="SourceAlpha" result="shadowBlurInner1"></feGaussianBlur>
            <feOffset dx="0" dy="-3" in="shadowBlurInner1" result="shadowOffsetInner1"></feOffset>
            <feComposite in="shadowOffsetInner1" in2="SourceAlpha" operator="arithmetic" k2="-1" k3="1" result="shadowInnerInner1"></feComposite>
            <feColorMatrix values="0 0 0 0 0.49958346   0 0 0 0 0.543461352   0 0 0 0 0.620247661  0 0 0 0.811789773 0" type="matrix" in="shadowInnerInner1"></feColorMatrix>
        </filter>
        <linearGradient x1="56.4463981%" y1="-3.05311332e-14%" x2="56.4463981%" y2="100%" id="linearGradient-24">
            <stop stop-color="#ADB5C3" offset="0%"></stop>
            <stop stop-color="#A7AABA" stop-opacity="0.109293051" offset="63.1002474%"></stop>
            <stop stop-color="#F9FAFF" stop-opacity="0.0188483392" offset="100%"></stop>
        </linearGradient>
        <linearGradient x1="48.840181%" y1="69.1689686%" x2="65.9885101%" y2="29.8290996%" id="linearGradient-25">
            <stop stop-color="#ADB5C3" offset="0%"></stop>
            <stop stop-color="#A7AABA" stop-opacity="0.225047292" offset="75.7584152%"></stop>
            <stop stop-color="#EFF0F6" stop-opacity="0.41101518" offset="100%"></stop>
        </linearGradient>
        <path d="M28.2923739,28.4224921 L22.4022886,30.2877126 L27.4688958,45.793782 C27.9048114,47.1279275 29.326213,47.8699329 30.6700435,47.464857 L32.5443302,46.8998838 C33.3856563,46.6462797 34.002253,46.0021912 34.2556043,45.2256745 L34.1752168,45.7416293 C34.0263197,46.7142182 33.3207869,47.5090264 32.3727181,47.7722091 L29.6491836,48.5282589 C28.311287,48.8996574 26.919111,48.1470634 26.4970764,46.8242667 L21.3293739,30.6274921 L28.2923739,28.4224921 Z M15.897955,8.88564186 C15.7539843,9.36099022 15.7452847,9.88289371 15.9025879,10.3932343 L15.9090711,10.413958 C15.9112612,10.4208568 15.9134803,10.4277463 15.9157283,10.4346265 L16.2052886,11.3197126 L20.4013739,9.99062368 L15.2855357,11.6117809 C15.2175764,11.2356724 15.2338401,10.848549 15.333799,10.478611 L15.3976938,10.2757164 Z" id="path-26"></path>
        <filter x="-18.4%" y="-8.8%" width="136.8%" height="117.6%" filterUnits="objectBoundingBox" id="filter-27">
            <feGaussianBlur stdDeviation="2" in="SourceAlpha" result="shadowBlurInner1"></feGaussianBlur>
            <feOffset dx="0" dy="-3" in="shadowBlurInner1" result="shadowOffsetInner1"></feOffset>
            <feComposite in="shadowOffsetInner1" in2="SourceAlpha" operator="arithmetic" k2="-1" k3="1" result="shadowInnerInner1"></feComposite>
            <feColorMatrix values="0 0 0 0 0.49958346   0 0 0 0 0.543461352   0 0 0 0 0.620247661  0 0 0 0.530539773 0" type="matrix" in="shadowInnerInner1"></feColorMatrix>
        </filter>
        <linearGradient x1="56.1087419%" y1="110.023013%" x2="50%" y2="2.56463617e-13%" id="linearGradient-28">
            <stop stop-color="#ADB5C3" offset="0%"></stop>
            <stop stop-color="#A7AABA" stop-opacity="0.225047292" offset="75.7584152%"></stop>
            <stop stop-color="#EFF0F6" stop-opacity="0.41101518" offset="100%"></stop>
        </linearGradient>
        <path d="M29.0322886,28.1877126 L34.2458736,43.5986786 C34.2550957,43.6259408 34.2638617,43.6533552 34.2721677,43.6809104 C34.6839335,45.0469345 33.9103543,46.488118 32.5443302,46.8998838 L30.6700435,47.464857 C29.326213,47.8699329 27.9048114,47.1279275 27.4688958,45.793782 L22.4022886,30.2877126 L29.0322886,28.1877126 Z M19.1112813,6.70094728 C20.4485669,6.28875328 21.8709185,7.01628752 22.3193308,8.34186773 L22.6372886,9.28271256 L16.2052886,11.3197126 L15.9157283,10.4346265 C15.9134803,10.4277463 15.9112612,10.4208568 15.9090711,10.413958 L15.9025879,10.3932343 C15.4823333,9.02979782 16.2469334,7.58383053 17.6103699,7.16357598 Z" id="path-29"></path>
        <filter x="-18.8%" y="-8.5%" width="137.6%" height="117.1%" filterUnits="objectBoundingBox" id="filter-30">
            <feGaussianBlur stdDeviation="2" in="SourceAlpha" result="shadowBlurInner1"></feGaussianBlur>
            <feOffset dx="0" dy="-3" in="shadowBlurInner1" result="shadowOffsetInner1"></feOffset>
            <feComposite in="shadowOffsetInner1" in2="SourceAlpha" operator="arithmetic" k2="-1" k3="1" result="shadowInnerInner1"></feComposite>
            <feColorMatrix values="0 0 0 0 0.49958346   0 0 0 0 0.543461352   0 0 0 0 0.620247661  0 0 0 0.530539773 0" type="matrix" in="shadowInnerInner1"></feColorMatrix>
        </filter>
        <linearGradient x1="11.3524456%" y1="58.5644808%" x2="105.269542%" y2="50%" id="linearGradient-31">
            <stop stop-color="#90959C" offset="0%"></stop>
            <stop stop-color="#A7AABA" stop-opacity="0.225047292" offset="75.7584152%"></stop>
            <stop stop-color="#EFF0F6" stop-opacity="0.41101518" offset="100%"></stop>
        </linearGradient>
        <path d="M4.45388058,17.6862108 L8.58066702,31.8903748 C8.9787219,33.260457 10.4120802,34.0484409 11.7821624,33.650386 C11.801964,33.644633 11.821696,33.6386431 11.8413542,33.6324176 L38.4537434,25.2045995 C39.2869072,24.9407468 39.8924196,24.2937722 40.1375573,23.5194229 L39.9775197,24.4898842 C39.8195137,25.4565776 39.1283652,26.2507566 38.1927452,26.5407176 L11.7030735,34.750218 C11.6861526,34.755462 11.6691889,34.7605667 11.652184,34.7655315 C9.94023924,35.2653593 8.14724329,34.2827444 7.64741547,32.5707996 L3.86069246,19.601012 C3.71899189,19.1156778 3.72282355,18.599431 3.87171256,18.1162536 L4.53330314,15.9692473 L4.55379854,15.9626971 C4.33124842,16.4903389 4.28201412,17.0946562 4.45388058,17.6862108 Z" id="path-32"></path>
        <filter x="-9.6%" y="-18.5%" width="119.2%" height="137.0%" filterUnits="objectBoundingBox" id="filter-33">
            <feGaussianBlur stdDeviation="2" in="SourceAlpha" result="shadowBlurInner1"></feGaussianBlur>
            <feOffset dx="0" dy="-3" in="shadowBlurInner1" result="shadowOffsetInner1"></feOffset>
            <feComposite in="shadowOffsetInner1" in2="SourceAlpha" operator="arithmetic" k2="-1" k3="1" result="shadowInnerInner1"></feComposite>
            <feColorMatrix values="0 0 0 0 0.509858464   0 0 0 0 0.543524474   0 0 0 0 0.602439991  0 0 0 1 0" type="matrix" in="shadowInnerInner1"></feColorMatrix>
        </filter>
        <linearGradient x1="66.1018039%" y1="67.6262695%" x2="84.0992189%" y2="-42.0115786%" id="linearGradient-34">
            <stop stop-color="#A4ABB6" offset="0%"></stop>
            <stop stop-color="#E7E9F2" stop-opacity="0.225047292" offset="75.7584152%"></stop>
            <stop stop-color="#EFF0F6" stop-opacity="0.41101518" offset="100%"></stop>
        </linearGradient>
        <radialGradient cx="26.7008083%" cy="13.5132865%" fx="26.7008083%" fy="13.5132865%" r="101.063812%" gradientTransform="translate(0.267008,0.135133),scale(0.730883,1.000000),rotate(107.983740),scale(1.000000,0.883837),translate(-0.267008,-0.135133)" id="radialGradient-35">
            <stop stop-color="#F4F4F5" offset="0%"></stop>
            <stop stop-color="#F4F4F5" offset="10.2855249%"></stop>
            <stop stop-color="#C5C6CB" offset="75.9533435%"></stop>
            <stop stop-color="#D2D4DB" offset="100%"></stop>
        </radialGradient>
        <linearGradient x1="86.9273295%" y1="46.369244%" x2="-11.6816495%" y2="55.0426046%" id="linearGradient-36">
            <stop stop-color="#A9ABB4" offset="0%"></stop>
            <stop stop-color="#DEDFE3" offset="100%"></stop>
        </linearGradient>
        <radialGradient cx="32.4989278%" cy="24.0486155%" fx="32.4989278%" fy="24.0486155%" r="85.3087048%" gradientTransform="translate(0.324989,0.240486),scale(1.000000,0.727082),rotate(78.161726),scale(1.000000,0.883837),translate(-0.324989,-0.240486)" id="radialGradient-37">
            <stop stop-color="#F4F4F5" offset="0%"></stop>
            <stop stop-color="#C5C6CB" offset="75.9533435%"></stop>
            <stop stop-color="#D2D4DB" offset="100%"></stop>
        </radialGradient>
        <radialGradient cx="36.0111857%" cy="0%" fx="36.0111857%" fy="0%" r="166.358495%" gradientTransform="translate(0.360112,0.000000),scale(1.000000,0.583333),rotate(97.879415),scale(1.000000,0.883837),translate(-0.360112,-0.000000)" id="radialGradient-38">
            <stop stop-color="#F4F4F5" offset="0%"></stop>
            <stop stop-color="#C5C6CB" offset="75.9533435%"></stop>
            <stop stop-color="#D2D4DB" offset="100%"></stop>
        </radialGradient>
        <radialGradient cx="59.5200546%" cy="27.7338612%" fx="59.5200546%" fy="27.7338612%" r="159.161344%" gradientTransform="translate(0.595201,0.277339),scale(1.000000,0.888889),rotate(154.892634),scale(1.000000,1.298249),translate(-0.595201,-0.277339)" id="radialGradient-39">
            <stop stop-color="#FFFFFF" offset="0%"></stop>
            <stop stop-color="#DBDBDB" offset="36.6320203%"></stop>
            <stop stop-color="#D2D3DA" offset="66.5551528%"></stop>
            <stop stop-color="#F1F1F1" offset="100%"></stop>
        </radialGradient>
        <radialGradient cx="36.0111857%" cy="0%" fx="36.0111857%" fy="0%" r="132.054723%" gradientTransform="translate(0.360112,0.000000),scale(1.000000,0.739032),rotate(99.944846),scale(1.000000,0.883837),translate(-0.360112,-0.000000)" id="radialGradient-40">
            <stop stop-color="#F4F4F5" offset="0%"></stop>
            <stop stop-color="#F4F4F5" offset="0%"></stop>
            <stop stop-color="#C5C6CB" offset="75.9533435%"></stop>
            <stop stop-color="#D2D4DB" offset="100%"></stop>
        </radialGradient>
        <radialGradient cx="36.0111857%" cy="0%" fx="36.0111857%" fy="0%" r="186.38818%" gradientTransform="translate(0.360112,0.000000),scale(1.000000,0.519636),rotate(97.028141),scale(1.000000,0.883837),translate(-0.360112,-0.000000)" id="radialGradient-41">
            <stop stop-color="#F4F4F5" offset="0%"></stop>
            <stop stop-color="#C5C6CB" offset="75.9533435%"></stop>
            <stop stop-color="#D2D4DB" offset="100%"></stop>
        </radialGradient>
        <radialGradient cx="32.0058469%" cy="31.1422445%" fx="32.0058469%" fy="31.1422445%" r="114.503646%" gradientTransform="translate(0.320058,0.311422),scale(0.749273,1.000000),rotate(33.364169),scale(1.000000,0.691289),translate(-0.320058,-0.311422)" id="radialGradient-42">
            <stop stop-color="#F4F4F5" offset="0%"></stop>
            <stop stop-color="#B6B7BD" offset="80.5199064%"></stop>
            <stop stop-color="#D2D4DB" offset="100%"></stop>
        </radialGradient>
        <path d="M34.4544427,20.0630663 C35.2569344,18.5291838 35.5,14.3857354 35.5,12.7360565 C35.5,5.35288465 27.2450799,0 18.12419,0 C9.00330016,0 5.76052649,2.54872087 2.85045679,5.59735031 C0.871713639,7.67030912 0.0369755454,9.64713436 0.0369755454,12.3829926 C0.0369755454,14.23007 -0.244381514,15.5557607 0.745146349,18.3944694 C1.73467421,21.2331782 4.15997316,23.0999921 4.56158105,23.3677397 C5.70681569,24.1312551 6.98784311,24.4911683 8.46104344,24.9516546 C11.6675752,25.9539379 12.7341442,26.2557261 16.143491,26.5327937 C16.1663701,26.5347282 21.2457919,26.8001869 25.9402152,26.255865 C30.6346384,25.7115431 33.1227101,22.6085397 34.4544427,20.0630663 Z" id="path-43"></path>
        <linearGradient x1="54.0811836%" y1="53.5704293%" x2="32.1118091%" y2="40.1255483%" id="linearGradient-45">
            <stop stop-color="#96979E" stop-opacity="0" offset="0%"></stop>
            <stop stop-color="#9FA0A6" stop-opacity="0.194656906" offset="49.934531%"></stop>
            <stop stop-color="#B8B8BA" offset="100%"></stop>
        </linearGradient>
        <radialGradient cx="35.1633593%" cy="23.9093152%" fx="35.1633593%" fy="23.9093152%" r="164.403529%" gradientTransform="translate(0.351634,0.239093),scale(0.394375,1.000000),scale(1.000000,0.472530),translate(-0.351634,-0.239093)" id="radialGradient-46">
            <stop stop-color="#F4F4F5" offset="0%"></stop>
            <stop stop-color="#C5C6CB" offset="80.5199064%"></stop>
            <stop stop-color="#D2D4DB" offset="100%"></stop>
        </radialGradient>
    </defs>
    <g id="页面-1" stroke="none" stroke-width="1" fill="none" fill-rule="evenodd">
        <g id="缺省图-copy" transform="translate(-369.500000, -958.500000)">
            <g id="404-1" transform="translate(369.500000, 958.500000)">
                <g id="编组-4" transform="translate(64.211974, 112.281608) scale(-1, 1) translate(-64.211974, -112.281608) translate(5.841857, 100.046961)">
                    <path d="M1.0209183,23.7646647 C15.7111394,15.1852199 33.4541667,10.8954976 54.25,10.8954976 C85.44375,10.8954976 101.641273,15.4063787 108.5,17.978824 C113.072485,19.6937875 115.81923,21.8572777 116.740235,24.4692947 L108.5,24.4692947 L0,24.4692947 L1.0209183,23.7646647 Z" id="矩形" fill="url(#linearGradient-1)" opacity="0.171837216"></path>
                    <polygon id="路径-29" fill="url(#linearGradient-2)" opacity="0.196022" filter="url(#filter-3)" transform="translate(98.184600, 19.143138) scale(-1, 1) translate(-98.184600, -19.143138) " points="111.12552 16.0368927 100.004931 24.3544434 85.2436798 24.3544434 104.506472 14.59853 109.486608 13.9318329"></polygon>
                    <ellipse id="椭圆形" fill="url(#linearGradient-4)" opacity="0.196022" filter="url(#filter-5)" cx="36.6964885" cy="16.3544434" rx="9" ry="1.25"></ellipse>
                    <path d="M15.6399366,1.35444336 C16.536241,1.35444336 17.2628393,2.08104162 17.2628393,2.977346 L17.2628393,13.8902851 L17.2628393,13.8902851 C17.9005762,14.1810592 18.4093873,14.0754162 18.7892725,13.5733559 C19.1733282,13.0657838 19.2699444,11.3967792 19.0791211,8.56634215 C20.5407559,7.76729467 21.3293265,7.9404928 21.4448328,9.08593654 C21.6180924,10.8041021 21.4178551,12.5435804 20.3450011,14.1098999 C19.6662392,15.1008623 18.638852,15.4613833 17.2628393,15.1914628 L17.2628393,20.3544434 L14.017034,20.3544434 L14.017034,11.9000153 C12.6018115,12.0811038 11.6805365,11.7935446 11.2532089,11.0373378 C10.6122176,9.90302768 9.31170811,5.06010287 10.4518832,3.51067123 C10.8914613,2.91331003 11.5939777,3.01656651 12.5594322,3.82044067 C12.3899787,6.85870632 12.3899787,8.77581681 12.5594322,9.57177214 C12.7288857,10.3677275 13.214753,10.6875809 14.017034,10.5313324 L14.017034,2.977346 C14.017034,2.08104162 14.7436322,1.35444336 15.6399366,1.35444336 Z" id="矩形备份-7" fill="url(#linearGradient-6)" opacity="0.336830502" transform="translate(15.750000, 10.854443) scale(-1, 1) rotate(19.000000) translate(-15.750000, -10.854443) "></path>
                    <path d="M77.6783538,7.35444336 C78.1864039,7.35444336 78.5982599,7.76629938 78.5982599,8.27434952 L78.5982599,14.6120359 L78.5982599,14.6120359 C78.9597469,14.7803789 79.2481551,14.7192171 79.4634846,14.4285506 C79.681178,14.1346931 79.7359427,13.1684273 79.6277788,11.5297532 C80.4562739,11.0671468 80.9032575,11.1674194 80.9687297,11.830571 C81.066938,12.8252984 80.953438,13.8323648 80.3453146,14.7391814 C79.9605736,15.3128965 79.378222,15.5216191 78.5982599,15.3653494 L78.5982599,18.3544434 L76.7584476,18.3544434 L76.7584476,13.4597745 C75.9562603,13.5646152 75.4340561,13.3981336 75.191835,12.9603296 C74.8285034,12.3036238 74.0913386,9.49982518 74.7376214,8.60278581 C74.9867865,8.25694512 75.3849922,8.31672518 75.9322386,8.78212601 C75.8361876,10.5411219 75.8361876,11.651028 75.9322386,12.1118442 C76.0282895,12.5726605 76.3036925,12.7578388 76.7584476,12.6673791 L76.7584476,8.27434952 C76.7584476,7.76629938 77.1703036,7.35444336 77.6783538,7.35444336 Z" id="矩形备份-7" fill="url(#linearGradient-7)" opacity="0.114081247"></path>
                </g>
                <g id="编组-21" opacity="0.499506" transform="translate(51.591857, 52.651404) rotate(-23.000000) translate(-51.591857, -52.651404) translate(12.841857, 11.901404)">
                    <g id="形状结合">
                        <use fill="url(#linearGradient-8)" fill-rule="evenodd" xlink:href="#path-9"></use>
                        <use fill="black" fill-opacity="1" filter="url(#filter-10)" xlink:href="#path-9"></use>
                    </g>
                    <g id="椭圆形">
                        <use fill="url(#linearGradient-11)" fill-rule="evenodd" xlink:href="#path-12"></use>
                        <use fill="black" fill-opacity="1" filter="url(#filter-13)" xlink:href="#path-12"></use>
                    </g>
                    <g id="形状结合">
                        <use fill="url(#linearGradient-14)" fill-rule="evenodd" xlink:href="#path-15"></use>
                        <use fill="black" fill-opacity="1" filter="url(#filter-16)" xlink:href="#path-15"></use>
                    </g>
                    <g id="椭圆形">
                        <use fill="url(#linearGradient-17)" fill-rule="evenodd" xlink:href="#path-18"></use>
                        <use fill="black" fill-opacity="1" filter="url(#filter-19)" xlink:href="#path-18"></use>
                    </g>
                    <ellipse id="椭圆形" fill="url(#linearGradient-20)" cx="38.75" cy="39.2340794" rx="38.75" ry="14.2913545"></ellipse>
                    <g id="椭圆形">
                        <use fill="url(#linearGradient-21)" fill-rule="evenodd" xlink:href="#path-22"></use>
                        <use fill="black" fill-opacity="1" filter="url(#filter-23)" xlink:href="#path-22"></use>
                    </g>
                    <path d="M58.532862,39.2340794 L74.7516116,81.5 L3.48346739,81.5 L19.4777439,39.2340794 C19.4801533,39.3144317 19.4777439,39.3950256 19.4777439,39.4758737 C19.4777439,44.3459591 28.2205298,48.2939434 39.0053029,48.2939434 C49.790076,48.2939434 58.532862,44.3459591 58.532862,39.4758737 C58.532862,39.3950256 58.5304525,39.3144317 58.5256643,39.2341057 Z" id="形状结合" fill="url(#linearGradient-24)" opacity="0.573195685"></path>
                </g>
                <g id="编组-22" opacity="0.502697173" transform="translate(3.084508, 73.315912)">
                    <g id="形状结合">
                        <use fill="url(#linearGradient-25)" fill-rule="evenodd" xlink:href="#path-26"></use>
                        <use fill="black" fill-opacity="1" filter="url(#filter-27)" xlink:href="#path-26"></use>
                    </g>
                    <g id="形状结合" opacity="0.742443266">
                        <use fill="url(#linearGradient-28)" fill-rule="evenodd" xlink:href="#path-29"></use>
                        <use fill="black" fill-opacity="1" filter="url(#filter-30)" xlink:href="#path-29"></use>
                    </g>
                    <g id="形状结合">
                        <use fill="url(#linearGradient-31)" fill-rule="evenodd" xlink:href="#path-32"></use>
                        <use fill="black" fill-opacity="1" filter="url(#filter-33)" xlink:href="#path-32"></use>
                    </g>
                    <path d="M32.3490863,6.20829202 C33.7037187,5.7793508 35.1504626,6.52493818 35.5872066,7.87707507 L40.1320858,21.9477844 L40.1365945,21.9618808 C40.56734,23.3220393 39.813902,24.773854 38.4537434,25.2045995 L11.8413542,33.6324176 C11.821696,33.6386431 11.801964,33.644633 11.7821624,33.650386 C10.4120802,34.0484409 8.9787219,33.260457 8.58066702,31.8903748 L4.45388058,17.6862108 C4.06253892,16.3392351 4.81755493,14.9260877 6.15478975,14.5026554 Z M22.6247283,23.0352658 C22.3432171,23.1106965 22.1333304,23.2694471 21.9951743,23.5115966 C21.856932,23.7536618 21.8259318,24.0168848 21.9021074,24.3011759 C21.9753753,24.5746152 22.1323637,24.7815869 22.373123,24.9221204 C22.613839,25.0627299 22.8749869,25.0952886 23.1564982,25.0198579 C23.4380095,24.9444272 23.6478908,24.7856565 23.7861315,24.5435059 C23.9243685,24.3014206 23.9568386,24.0436837 23.8835708,23.7702444 C23.8073952,23.4859532 23.6489368,23.2734956 23.4081828,23.1329821 C23.1673822,22.9923738 22.9062396,22.9598351 22.6247283,23.0352658 Z M20.5054244,14.8660349 C19.8449763,15.0430015 19.3269128,15.3078044 18.9514123,15.660396 C18.5759173,16.0130076 18.2974628,16.3923216 18.1161535,16.7983314 C17.9348458,17.2044267 17.8376392,17.5996395 17.8245734,17.9839594 C17.8115291,18.3683594 17.8426614,18.6793981 17.9178911,18.9170968 C18.0049116,19.198482 18.1499284,19.3822664 18.3529232,19.4685406 C18.5559127,19.5547948 18.755623,19.5745666 18.9519174,19.5277422 C19.1483179,19.4809967 19.3123197,19.3784469 19.4439733,19.2201221 C19.5756017,19.0617826 19.6120914,18.8732911 19.5534964,18.6546118 C19.5183352,18.5233882 19.5157847,18.3512159 19.5456702,18.1380775 C19.575642,17.9250232 19.6375457,17.712104 19.7313934,17.4994451 C19.8253007,17.2867703 19.9563007,17.0934915 20.1244118,16.9195181 C20.2924633,16.7455606 20.501017,16.6252147 20.7500729,16.5584804 C21.2372803,16.4279335 21.6600489,16.4465212 22.0183123,16.6141538 C22.3765972,16.7818665 22.5947444,17.0545116 22.6726639,17.4320702 C22.7224766,17.6179737 22.7144997,17.804705 22.6487081,17.9922495 C22.5829326,18.1798541 22.4858579,18.3699225 22.3575741,18.5624735 C22.2293117,18.7551045 22.0902027,18.950556 21.9403298,19.1489776 C21.7903562,19.3473403 21.6527172,19.5482779 21.5273894,19.7518609 C21.4020401,19.9553638 21.307378,20.165301 21.2435077,20.3816657 C21.1796212,20.5979704 21.1715592,20.8169781 21.2193886,21.038542 L21.4025693,21.6574693 C21.4465128,21.8214688 21.5641132,21.9570195 21.7552085,22.063993 C21.9464244,22.1710201 22.1679223,22.1966064 22.4199272,22.1407987 C22.6659745,22.0631537 22.8416575,21.9282247 22.9467602,21.7359194 C23.051969,21.5436929 23.0727773,21.3506049 23.0091797,21.1566353 L22.9037067,20.7630045 C22.8459837,20.5909589 22.904463,20.3761245 23.0791016,20.1183412 C23.2537403,19.8605579 23.4496336,19.5736886 23.6666807,19.2576746 C23.8837547,18.9417606 24.0710631,18.6014401 24.228694,18.2368825 C24.3863715,17.8724197 24.4233052,17.490417 24.3394228,17.0910009 C24.2468358,16.6587024 24.0966123,16.2711825 23.8887164,15.9283866 C23.6807627,15.585692 23.4164546,15.3136559 23.0956025,15.1125224 C22.7747702,14.9113835 22.3955284,14.7844153 21.9578354,14.7317791 C21.5201621,14.6791375 21.0360114,14.7238646 20.5054244,14.8660349 Z" id="形状结合" fill="url(#linearGradient-34)"></path>
                </g>
                <g id="编组-19" transform="translate(54.694984, 53.901404)">
                    <g id="编组-6" transform="translate(23.886982, 41.173692) scale(-1, 1) rotate(-6.000000) translate(-23.886982, -41.173692) translate(1.434099, 26.277285)">
                        <path d="M32.6345319,8.05761974 C32.4014649,7.33191594 31.6242276,6.93255493 30.8985238,7.16562196 C30.8928339,7.16744931 30.887156,7.1693136 30.8814904,7.17121471 L21.6783446,10.259341 L21.6783446,10.259341 L22.3413285,15.0465987 L31.8255338,10.0413702 C32.5407287,9.66393069 32.8818082,8.82756701 32.6345319,8.05761974 Z" id="路径-76" fill="url(#radialGradient-35)" transform="translate(27.370200, 10.886517) scale(-1, 1) rotate(-26.000000) translate(-27.370200, -10.886517) "></path>
                        <g id="编组-10" transform="translate(16.371254, 15.233155) rotate(7.000000) translate(-16.371254, -15.233155) translate(6.836598, 1.734864)">
                            <path d="M14.6304652,0.772442135 C14.5184969,0.737065258 14.4362557,0.713149303 14.3837417,0.70069427 C14.2282761,0.663821686 13.2802828,0.410687613 12.7862545,0.381734259 C10.6038214,0.253829115 9.82669873,1.26022879 8.4715816,1.42661625 C7.56817018,1.53754122 6.03464322,1.67170745 3.8710007,1.82911492 L5.175992,3.61982527 L14.4458611,4.25951207 L14.6304652,0.772442135 Z" id="路径-4" fill="url(#linearGradient-36)" transform="translate(9.250733, 2.315023) rotate(4.000000) translate(-9.250733, -2.315023) "></path>
                            <path d="M19.0693123,7.21476239 C19.0656685,12.520565 14.7875554,26.9995108 9.52195064,26.9965828 C4.2558371,26.9928465 -0.00294335791,12.507749 2.84217094e-14,7.20194644 C0.00216498723,4.11605204 1.44743696,2.32846798 3.6923954,1.37354069 C3.9612442,1.25918176 8.32730959,3.20687587 11.8615624,2.39278162 C14.0162094,1.89647143 12.9115599,0.579123691 13.7191363,0.792604409 C13.8301719,0.821956365 13.9408873,0.845760558 14.0498662,0.874497823 C17.0446378,1.66420626 19.0716942,3.54925723 19.0693123,7.21476239 Z" id="Stroke-11" fill="url(#radialGradient-37)"></path>
                            <path d="M6.12092347,6.93242636 C7.39154571,3.77165435 15.3702604,3.20264918 16.7762074,6.61674488 C18.1821544,10.0308406 14.0868245,19.7915071 11.4485654,19.8696702 C8.81030642,19.9478332 4.85030123,10.0931984 6.12092347,6.93242636 Z" id="路径-32" stroke="#AAAAAA" stroke-width="0.305960793" opacity="0.502024333"></path>
                            <g id="编组-5" transform="translate(6.629574, 2.449930)">
                                <path d="M6.0759419,1.55071894 C7.96814422,0.138167402 9.13419162,-0.309363108 9.5740841,0.20812741 C10.2339228,0.984363187 10.3980473,3.78341577 9.5740841,4.64046831 C9.02477527,5.21183668 7.85872787,4.82792292 6.0759419,3.48872705 L6.0759419,1.55071894 Z M4.43929555,1.51526546 C2.02477309,0.586637085 0.621778354,0.479189314 0.230311352,1.19292214 C-0.35688915,2.26352138 0.228428193,5.20481436 1.42277741,5.81109668 C2.21901022,6.2152849 3.30588671,5.47768457 4.6834069,3.59829569 L4.43929555,1.51526546 Z" id="形状结合" fill="#7A7C85"></path>
                                <path d="M4.58862882,2.23426537 C4.75869041,2.20863348 4.47445166,2.17088466 3.73591259,2.12101893 C2.99737352,2.07115319 2.24490142,2.03890389 1.4784963,2.02427101 C2.44384193,2.22439321 3.12326673,2.37502606 3.5167707,2.47616954 C3.91027467,2.57731302 4.26756071,2.62845838 4.58862882,2.62960562 C4.42398816,2.64326264 4.19778361,2.78452024 3.91001518,3.0533784 C3.62224674,3.32223657 3.34846442,3.59960316 3.08866821,3.88547817 C3.64282981,3.56927757 3.99250032,3.36903452 4.13767973,3.28474903 C4.28285913,3.20046353 4.46286335,3.12333999 4.67769238,3.0533784 L5.90767754,2.74007839 L7.99311101,3.1421612 C7.21794386,2.8424052 6.76192909,2.67155334 6.62506671,2.62960562 C6.52015469,2.59745054 6.34315996,2.52326437 6.18940022,2.51266919 C6.15818245,2.51051806 6.12497684,2.52589484 6.08978337,2.55879955 L8.65179527,1.58840529 C7.75770715,1.71950898 7.14054875,1.82624556 6.80032009,1.90861505 C6.46009142,1.99098453 6.18800416,2.09953464 5.9840583,2.23426537 L5.35040631,2.47616954 L4.58862882,2.23426537 Z" id="路径-2" fill="#595B65" opacity="0.657323201"></path>
                                <path d="M4.39337989,1.42444446 C4.63256101,1.09064678 6.00370435,1.19016203 6.13183559,1.42444446 C6.25996684,1.65872688 6.25996684,3.32255014 6.07471353,3.55521119 C5.88946022,3.78787224 4.84770035,3.99769274 4.62388599,3.81764196 C4.40007164,3.63759118 4.15419877,1.75824213 4.39337989,1.42444446 Z" id="路径-8" fill="#83848C"></path>
                            </g>
                        </g>
                        <g id="编组-11" transform="translate(37.011680, 10.218900) scale(-1, 1) rotate(-19.000000) translate(-37.011680, -10.218900) translate(31.761680, 1.218900)">
                            <path d="M10.4701349,16.8173195 C10.6427422,16.5238418 10.0231016,15.3637151 9.7395186,13.3847149 C9.21536126,9.7268525 8.68529546,4.04432924 7.36230377,2.09462385 C5.32353866,-0.909923619 1.1564228,-0.696591024 0.210720107,2.8278853 C-0.734982583,6.35236162 1.69486842,13.3917518 3.67621501,16.3116811 C5.65756159,19.2316103 9.97849084,17.6532434 10.4701349,16.8173195 Z" id="路径-77" fill="url(#radialGradient-38)"></path>
                            <path d="M5.51948113,2.30546871 C4.90150397,2.75286416 5.18239048,4.3731656 5.62412927,5.22274185 C6.06586805,6.0723181 6.50480056,6.61853302 7.43643255,6.10289799 C8.36806454,5.58726296 9.46700046,3.16610014 9.08324882,2.30546871 C8.69949718,1.44483728 6.1374583,1.85807326 5.51948113,2.30546871 Z" id="路径-78" fill="url(#radialGradient-39)"></path>
                        </g>
                        <g id="编组-23" transform="translate(0.000000, 3.863765)">
                            <path d="M7.3149316,0.546289058 C8.24736878,-0.363119175 9.40943639,0.0464686074 9.96465904,0.461033063 C10.5198817,0.875597519 10.6142806,1.7716374 10.4474076,2.53616215 C10.336159,3.04584532 8.47489111,5.82600554 4.86360398,10.8766428 L2.48362143,7.68258233 C5.08287009,3.53132564 6.69330682,1.15256121 7.3149316,0.546289058 Z" id="路径-33" fill="url(#radialGradient-40)"></path>
                            <path d="M5.92853968,9.24955544 C6.43476541,14.3073769 6.72817558,17.0189409 6.80877017,17.3842474 C6.93408505,17.952255 9.14689598,20.3419952 8.270338,21.486423 C7.39378001,22.6308508 2.37657724,25.6394325 0.621249788,22.0763133 C-0.157612779,20.4953091 -0.255120222,17.4227639 0.621249788,12.9912658 C0.831878561,11.9261894 1.37388101,10.1930602 2.24725713,7.79187827 C2.7478106,7.40484508 3.41125264,7.35067409 4.23758323,7.62936531 C5.47707911,8.04740212 5.91001869,9.06450782 5.92853968,9.24955544 Z" id="路径-35" fill="url(#radialGradient-41)"></path>
                        </g>
                    </g>
                    <g id="编组-17" transform="translate(13.146873, 0.000000)">
                        <g id="编组-18" transform="translate(0.000000, 1.900802)">
                            <mask id="mask-44" fill="white">
                                <use xlink:href="#path-43"></use>
                            </mask>
                            <use id="椭圆形" fill="url(#radialGradient-42)" xlink:href="#path-43"></use>
                            <path d="M21.5119042,8.15508431 C20.6081928,7.24493715 19.9615264,6.64993233 19.571905,6.37006986 C19.1822835,6.09020738 17.9916486,5.61543286 16,4.9457463 L20.0683331,1.48947396 L25.7735527,1.48947396 L27.544714,1.48947396 L24.8511074,3.21761013 L21.5119042,8.15508431 Z" id="路径-31" fill="url(#linearGradient-45)" mask="url(#mask-44)"></path>
                        </g>
                        <path d="M16.0418764,6.75624319 C16.1269813,6.78865424 16.1895399,6.78865424 16.229552,6.75624319 C17.7132668,5.55438932 19.1509837,4.5728007 20.5575662,4.10678902 C22.0210469,3.62192655 23.9383361,3.37117081 26.3094339,3.35452181 C25.1396227,2.72102099 24.2731981,2.29582055 23.7101601,2.0789205 C19.5251264,0.466713034 16.3049022,-0.0924170022 14.1685827,0.0121780277 C11.6011451,0.137880764 9.91704292,0.688195122 9.1162761,1.6631211 L16.0418764,6.75624319 Z" id="路径-11" fill="url(#radialGradient-46)"></path>
                        <path d="M6.64917241,7.5461154 C7.02095451,7.5461154 7.521533,7.60089428 7.88371127,7.68467048 L14.5438805,9.28180931 C18.9925979,10.3108513 21.9486799,14.2890611 21.8494265,18.8501649 L21.6944227,21.8663406 C21.6191785,25.3241219 18.9202614,27.913697 15.1683421,27.7715315 C14.7471672,27.7555726 14.3275423,27.7107829 13.9165086,27.6175283 L8.88276656,26.5056248 C3.91681582,25.3789588 0.465736439,20.8155746 0.648439584,15.8278643 L0.704341757,13.2017715 C0.815876042,10.0111644 3.33836022,7.5461154 6.64917241,7.5461154 Z" id="路径" fill="#8B8D96" fill-rule="nonzero"></path>
                        <ellipse id="椭圆形" fill="#FFFFFF" transform="translate(8.762218, 17.835779) rotate(-12.000000) translate(-8.762218, -17.835779) " cx="8.7622182" cy="17.8357788" rx="3.13394053" ry="3.8539054"></ellipse>
                        <path d="M9.00330016,5.21654762 C9.63548707,5.165061 10.6274796,5.27384647 11.9792776,5.54290402 C13.3310757,5.81196158 14.6569724,6.24487764 15.9569679,6.84165222 L15.999505,4.43275956 C16.0247146,2.99202685 14.9848695,1.75280358 13.5616398,1.52749647 C13.1381212,1.46040283 12.7595488,1.41408403 12.4259225,1.38854008 C11.880855,1.34680725 11.2264968,1.30487228 10.4628478,1.26273517 C9.66596835,1.21793034 8.98357695,1.82752734 8.93867874,2.62440157 C8.93638135,2.66517677 8.93581343,2.70603103 8.93691219,2.74685617 L9.00330016,5.21654762 L9.00330016,5.21654762 Z" id="路径-7" fill="#7A7C85"></path>
                        <path d="M15.9569679,6.84165222 L15.9995029,4.43287777 C16.024947,2.99212952 14.9843012,1.75273906 13.5597739,1.52720096 C13.1370092,1.46026681 12.7590588,1.41404651 12.4259225,1.38854008 C11.8807919,1.34680241 11.2263451,1.30486255 10.4625823,1.26272052 C9.66492316,1.21870958 8.98258076,1.82906418 8.93852779,2.62598707 C8.93632254,2.6654438 8.93578633,2.7049733 8.93684821,2.74447592 L9.00330016,5.21654762 L9.00330016,5.21654762" id="路径" stroke="#FFFFFF" stroke-width="0.337203258"></path>
                    </g>
                </g>
            </g>
        </g>
    </g>
</svg>