<?xml version="1.0" encoding="UTF-8"?>
<svg width="58.5454545px" height="58.5454545px" viewBox="0 0 58.5454545 58.5454545" version="1.1" xmlns="http://www.w3.org/2000/svg" xmlns:xlink="http://www.w3.org/1999/xlink">
    <title>数据展示/头像/空状态</title>
    <defs>
        <circle id="path-1" cx="28" cy="28" r="28"></circle>
        <rect id="path-3" x="0" y="0" width="56" height="56" rx="28"></rect>
    </defs>
    <g id="组件示例" stroke="none" stroke-width="1" fill="none" fill-rule="evenodd">
        <g id="头像Avatar" transform="translate(-14.727273, -414.727273)">
            <g id="Group-7-Copy-3" transform="translate(0.000000, 378.000000)">
                <g id="表单/评分" transform="translate(0.000000, 26.000000)">
                    <g id="head-portrait/im/application/1" transform="translate(16.000000, 12.000000)">
                        <mask id="mask-2" fill="white">
                            <use xlink:href="#path-1"></use>
                        </mask>
                        <circle stroke="#FFFFFF" stroke-width="1.27272727" cx="28" cy="28" r="28.6363636"></circle>
                        <g mask="url(#mask-2)" id="Group-4备份-2">
                            <g id="Group-31">
                                <mask id="mask-4" fill="white">
                                    <use xlink:href="#path-3"></use>
                                </mask>
                                <use id="蒙版" fill="#F5F5F5" xlink:href="#path-3"></use>
                                <g mask="url(#mask-4)">
                                    <g transform="translate(7.700000, 11.067448)">
                                        <path d="M39.9,44.9325521 L0,44.6659076 C0.933333333,40.797078 2.13198172,38.0345031 3.59594516,36.378183 C7.63755462,32.2376295 13.8064354,29.1162776 19.9996088,29.1162776 C26.3383821,29.1162776 32.6515291,32.3859571 36.6846149,36.6713053 C38.828205,39.6999533 39.9,42.4537022 39.9,44.9325521 Z" id="Combined-Shape" fill="#D0D6DD"></path>
                                        <path d="M19.9996088,22.7659546 C22.1634765,22.7659546 23.9177668,24.5154283 23.9177668,26.6737823 L23.9177668,30.5816101 C23.9177668,32.7399046 22.1634765,34.4896764 19.9996088,34.4896764 C17.8359204,34.4896764 16.0816302,32.7399046 16.0816302,30.5816101 L16.0816302,26.6737823 C16.0816302,24.5154283 17.8359204,22.7659546 19.9996088,22.7659546" id="Fill-6" fill="#FFFFFF"></path>
                                        <path d="M8.24579843,17.880982 L8.24579843,8.44202904 C8.24579843,5.82321496 10.9027016,3.22652348 13.5814856,3.22652348 L26.4179233,3.22652348 C29.0967671,3.22652348 31.7536105,5.82321496 31.7536105,8.44202904 L31.7536105,17.880982 L8.24579843,17.880982 Z" id="Fill-8" fill="#BBC1C8"></path>
                                        <path d="M7.4375,19.2961444 C7.4375,20.2825177 7.96280899,21.1941607 8.81563702,21.6873715 C9.66841697,22.1805341 10.719083,22.1805341 11.571863,21.6873715 C12.4246429,21.1941607 12.95,20.2825177 12.95,19.2961444 C12.95,17.7711539 11.7160598,16.5350212 10.193726,16.5350212 C8.6715844,16.5350212 7.4375,17.7711539 7.4375,19.2961444" id="Fill-10" fill="#DDE1E5"></path>
                                        <path d="M27.0375,19.2962046 C27.0375,20.2825564 27.5628525,21.1941795 28.415625,21.6873796 C29.2683975,22.1805314 30.3190544,22.1805314 31.171875,21.6873796 C32.0246475,21.1941795 32.55,20.2825564 32.55,19.2962046 C32.55,18.3097082 32.0246475,17.3982296 31.171875,16.9048851 C30.3190544,16.4117333 29.2683975,16.4117333 28.415625,16.9048851 C27.5628525,17.3982296 27.0375,18.3097082 27.0375,19.2962046" id="Fill-12" fill="#DDE1E5"></path>
                                        <path d="M19.9991126,6.64592496 C25.409051,6.64592496 29.7940592,11.0198179 29.7940592,16.4155839 L29.7940592,20.3234713 C29.7940592,25.7192372 25.409051,30.0931301 19.9991126,30.0931301 C14.5894133,30.0931301 10.204166,25.7192372 10.204166,20.3234713 L10.204166,16.4155839 C10.204166,11.0198179 14.5898916,6.64592496 19.9991126,6.64592496" id="Fill-14" fill="#FFFFFF"></path>
                                        <path d="M19.9996088,8.86543519 C23.8927772,8.86543519 27.0491725,7.10803074 27.0491725,4.94013593 L27.0491725,0 C23.7995746,0.676617407 21.4497798,1.01507519 19.9996088,1.01507519 C16.1066197,1.01507519 12.9502843,2.77277778 12.9502843,4.94061296 C12.9502843,7.10844815 16.1066197,8.86543519 19.9996088,8.86543519" id="Fill-16" fill="#BBC1C8"></path>
                                    </g>
                                </g>
                            </g>
                        </g>
                    </g>
                </g>
            </g>
        </g>
    </g>
</svg>