<svg width="34" height="29" viewBox="0 0 34 29" fill="none" xmlns="http://www.w3.org/2000/svg">
<path id="&#229;&#189;&#162;&#231;&#138;&#182;" d="M34 3.95454C34 6.13858 32.2436 7.90909 30.0769 7.90909C27.9103 7.90909 26.1538 6.13858 26.1538 3.95454C26.1538 1.77051 27.9103 0 30.0769 0C32.2441 0 34 1.77264 34 3.95454ZM22.258 11.7169L14.6834 25.4822C14.2849 26.2077 14.285 27.101 14.6838 27.8263C15.0826 28.5516 15.8196 28.9989 16.6177 29H31.7669C32.565 28.9989 33.302 28.5516 33.7008 27.8263C34.0996 27.101 34.0997 26.2077 33.7012 25.4822L26.1292 11.7169C25.7295 10.9919 24.9918 10.5455 24.1936 10.5455C23.3954 10.5455 22.6577 10.9919 22.258 11.7169ZM12.0018 24.0803L18.3077 12.7399L14.8082 6.44357C14.4044 5.71896 13.659 5.27273 12.8525 5.27273C12.0461 5.27273 11.3007 5.71896 10.8969 6.44357L0.301922 25.484C-0.101012 26.2095 -0.100616 27.103 0.302964 27.8281C0.706543 28.5532 1.45205 29 2.25885 29H11.908C11.1218 27.4516 11.1572 25.5925 12.0018 24.0776V24.0803Z" fill="#BFBFBF"/>
</svg>
