<?xml version="1.0" encoding="UTF-8"?>
<svg width="56.6363636px" height="56.6363636px" viewBox="0 0 56.6363636 56.6363636" version="1.1" xmlns="http://www.w3.org/2000/svg" xmlns:xlink="http://www.w3.org/1999/xlink">
    <title>数据展示/头像/缺省/图标</title>
    <defs>
        <circle id="path-1" cx="28" cy="28" r="28"></circle>
    </defs>
    <g id="组件示例" stroke="none" stroke-width="1" fill="none" fill-rule="evenodd">
        <g id="头像Avatar" transform="translate(-146.828592, -279.230205)">
            <g id="Group-7-Copy-2" transform="translate(0.000000, 242.000000)">
                <g id="表单/评分" transform="translate(0.000000, 26.000000)">
                    <g id="数据展示/头像/缺省/图标" transform="translate(147.146774, 11.548387)">
                        <mask id="mask-2" fill="white">
                            <use xlink:href="#path-1"></use>
                        </mask>
                        <use id="蒙版" stroke="#FF5735" stroke-width="0.636363636" fill-opacity="0.1" fill="#EE2233" xlink:href="#path-1"></use>
                        <g id="icon/个人" mask="url(#mask-2)" fill="#FF5735" fill-rule="nonzero">
                            <g transform="translate(15.851240, 14.231405)" id="形状结合">
                                <path d="M14.9834711,0 L10.1239669,0 C7.66378942,0 5.66942149,1.99436793 5.66942149,4.45454545 L5.66942149,8.50413223 C5.66942149,12.3062248 8.75162647,15.3884298 12.553719,15.3884298 C16.3558115,15.3884298 19.4380165,12.3062248 19.4380165,8.50413223 L19.4380165,4.45454545 C19.4380165,1.99436793 17.4436486,0 14.9834711,0 Z M10.1239669,2.42975207 L14.9834711,2.42975207 C16.1017336,2.42975207 17.0082645,3.33628294 17.0082645,4.45454545 L17.0082645,8.50413223 C17.0082645,10.9643098 15.0138965,12.9586777 12.553719,12.9586777 C10.0935415,12.9586777 8.09917355,10.9643098 8.09917355,8.50413223 L8.09917355,4.45454545 C8.09917355,3.33628294 9.00570443,2.42975207 10.1239669,2.42975207 Z M4.32141473,19.4423234 C3.26521092,19.5108778 2.42975207,20.3892779 2.42975207,21.4628099 L2.42975207,25.107438 L18.2231405,25.107438 L18.3401412,25.1129994 C18.9562063,25.171868 19.4380165,25.6908246 19.4380165,26.322314 C19.4380165,26.9932716 18.894098,27.5371901 18.2231405,27.5371901 L1.21487603,27.5371901 L1.09787536,27.5316287 C0.481810183,27.4727601 0,26.9538035 0,26.322314 L0,21.4628099 L0.00353707429,21.2836504 C0.0975633433,18.9065326 2.05437226,17.0082645 4.45454545,17.0082645 L20.6528926,17.0082645 C23.0530658,17.0082645 25.0098747,18.9065326 25.1039009,21.2836504 L25.107438,21.4628099 L25.107438,26.322314 C25.107438,26.9932716 24.5635195,27.5371901 23.892562,27.5371901 C23.2610726,27.5371901 22.7421159,27.0553799 22.6832473,26.4393147 L22.677686,26.322314 L22.677686,21.4628099 C22.677686,20.3892779 21.8422271,19.5108778 20.7860233,19.4423234 L20.6528926,19.4380165 L4.45454545,19.4380165 Z"></path>
                            </g>
                        </g>
                    </g>
                </g>
            </g>
        </g>
    </g>
</svg>