<svg xmlns="http://www.w3.org/2000/svg" viewBox="0 0 16 16" class="design-iconfont">
  <path d="M14.7839355,7.26879883 L1.1940918,7.26879883 C1.10620117,7.26879883 1.03588867,7.33911133 1.03588867,7.42504883 L1.03588867,8.59692383 C1.03588867,8.68286133 1.10620117,8.75317383 1.1940918,8.75317383 L14.7839355,8.75317383 C14.8718262,8.75317383 14.9421387,8.68286133 14.9421387,8.59692383 L14.9421387,7.42504883 C14.9421387,7.33911133 14.8718262,7.26879883 14.7839355,7.26879883 Z M7.87768555,5.93481445 C7.93432617,6.00708008 8.04370117,6.00708008 8.09838867,5.93481445 L10.0671387,3.44458008 C10.1394043,3.3527832 10.0749512,3.21606445 9.95581055,3.21606445 L8.73120117,3.21606445 L8.73120117,0.167236328 C8.73120117,0.0812988281 8.66088867,0.0109863281 8.57495117,0.0109863281 L7.40307617,0.0109863281 C7.31713867,0.0109863281 7.24682617,0.0812988281 7.24682617,0.167236328 L7.24682617,3.21411133 L6.02026367,3.21411133 C5.90307617,3.21411133 5.83666992,3.35083008 5.90893555,3.44262695 L7.87768555,5.93481445 L7.87768555,5.93481445 Z M8.1003418,10.0651855 C8.04370117,9.99291992 7.93432617,9.99291992 7.87963867,10.0651855 L5.91088867,12.557373 C5.83862305,12.6491699 5.90307617,12.7858887 6.0222168,12.7858887 L7.24682617,12.7858887 L7.24682617,15.8327637 C7.24682617,15.9187012 7.31713867,15.9890137 7.40307617,15.9890137 L8.57495117,15.9890137 C8.66088867,15.9890137 8.73120117,15.9187012 8.73120117,15.8327637 L8.73120117,12.7858887 L9.95776367,12.7858887 C10.0749512,12.7858887 10.1413574,12.6491699 10.0690918,12.557373 L8.1003418,10.0651855 Z" fill="#4B5563" fill-rule="nonzero"/>
</svg>
