<svg xmlns="http://www.w3.org/2000/svg" viewBox="0 0 16 16" class="design-iconfont">
  <g fill="none" fill-rule="evenodd">
    <path d="M6.65364426,1.18437311 L8.31658983,3.1799078 C8.49337187,3.39204625 8.46470984,3.7073286 8.25257139,3.88411064 C8.16271389,3.95899189 8.04944745,4 7.93247919,4 L5.06752081,4 C4.79137843,4 4.56752081,3.77614237 4.56752081,3.5 C4.56752081,3.38303175 4.60852892,3.2697653 4.68341017,3.1799078 L6.34635574,1.18437311 C6.41706856,1.09951773 6.5431815,1.08805292 6.62803688,1.15876573 C6.63732949,1.16650958 6.64590041,1.1750805 6.65364426,1.18437311 Z" fill="#4B5563" transform="rotate(-90 6.5 2.5)"/>
    <rect stroke="#4B5563" stroke-width="1.5" x=".75" y="6.75" width="10.5" height="8.5" rx="2"/>
    <path d="M8,2.49999979 C12.6905592,2.96167843 15.0358388,5.46167843 15.0358388,9.99999979" stroke="#4B5563" stroke-width="1.5" stroke-linecap="round" stroke-linejoin="round"/>
  </g>
</svg>
