<svg xmlns="http://www.w3.org/2000/svg" viewBox="0 0 16 16" class="design-iconfont">
  <g fill="none" fill-rule="evenodd">
    <path d="M9.66803024,1.1871446 L11.3292331,3.17613286 C11.5062485,3.38807662 11.4779335,3.70339032 11.2659898,3.88040573 C11.1760696,3.95550705 11.0626323,3.99664762 10.945475,3.99664762 L8.08357898,3.99664762 C7.80743661,3.99664762 7.58357898,3.77278999 7.58357898,3.49664762 C7.58357898,3.37949028 7.62471955,3.26605302 7.69982087,3.17613286 L9.36102374,1.1871446 C9.43182991,1.1023671 9.55795539,1.09104109 9.6427329,1.16184726 C9.65190412,1.16950706 9.66037043,1.17797337 9.66803024,1.1871446 Z" fill="#4B5563" transform="scale(-1 1) rotate(-90 0 12.014527)"/>
    <rect stroke="#4B5563" stroke-width="1.5" transform="matrix(-1 0 0 1 20.02682 0)" x="4.77681906" y="6.75" width="10.4731809" height="8.5" rx="2"/>
    <path d="M0.997765078,2.49999979 C5.67784128,2.96167843 8.01787938,5.46167843 8.01787938,9.99999979" stroke="#4B5563" stroke-width="1.5" stroke-linecap="round" stroke-linejoin="round" transform="matrix(-1 0 0 1 9.015644 0)"/>
  </g>
</svg>
