<svg xmlns="http://www.w3.org/2000/svg" viewBox="0 0 16 16" class="design-iconfont">
  <path d="M10.4323289,6.65697692 L8.13598078,6.65697692 L8.13598078,4.04925959 C8.13598078,3.96363305 8.06592271,3.89357497 7.98029617,3.89357497 L6.81266154,3.89357497 C6.727035,3.89357497 6.65697692,3.96363305 6.65697692,4.04925959 L6.65697692,6.65697692 L4.36062882,6.65697692 C4.27500228,6.65697692 4.2049442,6.727035 4.2049442,6.81266154 L4.2049442,7.98029617 C4.2049442,8.06592271 4.27500228,8.13598078 4.36062882,8.13598078 L6.65697692,8.13598078 L6.65697692,10.7436981 C6.65697692,10.8293247 6.727035,10.8993827 6.81266154,10.8993827 L7.98029617,10.8993827 C8.06592271,10.8993827 8.13598078,10.8293247 8.13598078,10.7436981 L8.13598078,8.13598078 L10.4323289,8.13598078 C10.5179554,8.13598078 10.5880135,8.06592271 10.5880135,7.98029617 L10.5880135,6.81266154 C10.5880135,6.727035 10.5179554,6.65697692 10.4323289,6.65697692 Z M15.9591328,14.9082616 L13.1178885,12.0670174 C15.494025,9.16933743 15.3286101,4.87633411 12.6119135,2.1615836 C9.73174811,-0.720527868 5.05342537,-0.720527868 2.1615836,2.1615836 C-0.720527868,5.05342537 -0.720527868,9.73174811 2.1615836,12.6119135 C4.87633411,15.3286101 9.16933743,15.494025 12.0670174,13.1178885 L14.9082616,15.9591328 C14.9705355,16.0136224 15.0697844,16.0136224 15.122328,15.9591328 L15.9591328,15.122328 C16.0136224,15.0697844 16.0136224,14.9705355 15.9591328,14.9082616 Z M11.5805029,11.5805029 C9.26858637,13.8904734 5.52437133,13.8904734 3.21245477,11.5805029 C0.902484264,9.26858637 0.902484264,5.52437133 3.21245477,3.21245477 C5.52437133,0.902484264 9.26858637,0.902484264 11.5805029,3.21245477 C13.8904734,5.52437133 13.8904734,9.26858637 11.5805029,11.5805029 Z" fill="#4B5563" fill-rule="nonzero"/>
</svg>
