<svg xmlns="http://www.w3.org/2000/svg" viewBox="0 0 18 18" class="design-iconfont">
  <path d="M4.64080713,0.9375 C5.0550207,0.9375 5.39080713,1.27328644 5.39080713,1.6875 C5.39080713,2.10171356 5.0550207,2.4375 4.64080713,2.4375 L3.77678571,2.4375 C3.02599683,2.4375 2.4375,2.98676371 2.4375,3.6375 L2.4375,14.3625 C2.4375,15.0132363 3.02599683,15.5625 3.77678571,15.5625 L14.2232143,15.5625 C14.9740032,15.5625 15.5625,15.0132363 15.5625,14.3625 L15.5625,3.6375 C15.5625,2.98676371 14.9740032,2.4375 14.2232143,2.4375 L13.3943601,2.4375 C12.9801465,2.4375 12.6443601,2.10171356 12.6443601,1.6875 C12.6443601,1.27328644 12.9801465,0.9375 13.3943601,0.9375 L14.2232143,0.9375 C15.7801867,0.9375 17.0625,2.13432577 17.0625,3.6375 L17.0625,14.3625 C17.0625,15.8656742 15.7801867,17.0625 14.2232143,17.0625 L3.77678571,17.0625 C2.21981332,17.0625 0.9375,15.8656742 0.9375,14.3625 L0.9375,3.6375 C0.9375,2.13432577 2.21981332,0.9375 3.77678571,0.9375 L4.64080713,0.9375 Z M12.75,10.25 C13.1642136,10.25 13.5,10.5857864 13.5,11 C13.5,11.3796958 13.2178461,11.693491 12.8517706,11.7431534 L12.75,11.75 L5.25,11.75 C4.83578644,11.75 4.5,11.4142136 4.5,11 C4.5,10.5857864 4.83578644,10.25 5.25,10.25 L12.75,10.25 Z M12.75,5.75 C13.1642136,5.75 13.5,6.08578644 13.5,6.5 C13.5,6.87969577 13.2178461,7.19349096 12.8517706,7.24315338 L12.75,7.25 L5.25,7.25 C4.83578644,7.25 4.5,6.91421356 4.5,6.5 C4.5,6.08578644 4.83578644,5.75 5.25,5.75 L12.75,5.75 Z M10.6875,0.9375 C11.1017136,0.9375 11.4375,1.27328644 11.4375,1.6875 C11.4375,2.10171356 11.1017136,2.4375 10.6875,2.4375 L7.3125,2.4375 C6.89828644,2.4375 6.5625,2.10171356 6.5625,1.6875 C6.5625,1.27328644 6.89828644,0.9375 7.3125,0.9375 L10.6875,0.9375 Z" fill="#505766" fill-rule="nonzero"/>
</svg>
