<svg xmlns="http://www.w3.org/2000/svg" viewBox="0 0 18 18" class="design-iconfont">
  <g stroke="#505766" stroke-width="1.5" fill="none" fill-rule="evenodd">
    <path d="M10.5 6.75A2.75 2.75 0 1 0 10.5 12.25A2.75 2.75 0 1 0 10.5 6.75Z"/>
    <path d="M6.5 0.75A1.75 1.75 0 1 0 6.5 4.25A1.75 1.75 0 1 0 6.5 0.75Z"/>
    <path d="M2 6.75A1.25 1.25 0 1 0 2 9.25A1.25 1.25 0 1 0 2 6.75Z"/>
    <path d="M4.5 13.75A1.75 1.75 0 1 0 4.5 17.25A1.75 1.75 0 1 0 4.5 13.75Z"/>
    <path d="M16 13.75A1.25 1.25 0 1 0 16 16.25A1.25 1.25 0 1 0 16 13.75Z"/>
    <path d="M15 2.75A1.25 1.25 0 1 0 15 5.25A1.25 1.25 0 1 0 15 2.75Z"/>
    <path d="M7.26480801 4.10054746L8.85980454 7.03990615"/>
    <path d="M14.1243603 5.07022635L12.4222075 7.15063528"/>
    <path d="M12.5743177 11.5743177L14.9349113 13.9349113"/>
    <path d="M8.37176622 11.6282338L5.92013681 14.0798632"/>
    <path d="M3.51789207 8.26786331L7.55835263 8.98088576"/>
  </g>
</svg>
