<svg xmlns="http://www.w3.org/2000/svg" viewBox="0 0 16 16" class="design-iconfont">
  <path d="M14,0 C15.1045695,0 16,0.8954305 16,2 L16,14 C16,15.1045695 15.1045695,16 14,16 L2,16 C0.8954305,16 0,15.1045695 0,14 L0,2 C0,0.8954305 0.8954305,0 2,0 L14,0 Z M4,6 L1.5,6 L1.5,14 C1.5,14.2761424 1.72385763,14.5 2,14.5 L4,14.5 L4,6 Z M14.5,6 L5.5,6 L5.5,14.5 L14,14.5 C14.2761424,14.5 14.5,14.2761424 14.5,14 L14.5,6 Z M14,1.5 L2,1.5 C1.72385763,1.5 1.5,1.72385763 1.5,2 L1.5,4.5 L14.5,4.5 L14.5,2 C14.5,1.72385763 14.2761424,1.5 14,1.5 Z" fill="#505766" fill-rule="nonzero"/>
</svg>
