<svg xmlns="http://www.w3.org/2000/svg" viewBox="0 0 18 18" class="design-iconfont">
  <path d="M9,0 C13.9705627,0 18,4.02943725 18,9 C18,13.9705627 13.9705627,18 9,18 C4.02943725,18 0,13.9705627 0,9 C0,4.02943725 4.02943725,0 9,0 Z M11.3823653,13.3408731 L11.3458626,13.3456097 C10.5979547,13.4462965 9.81152045,13.5 9,13.5 C8.17502693,13.5 7.37597869,13.4445013 6.61697493,13.3405637 C7.21647327,15.2726668 8.15571583,16.5 9,16.5 C9.84428417,16.5 10.7835267,15.2726668 11.3823653,13.3408731 Z M2.06840642,11.8704231 L2.1119073,11.9720169 C2.88365244,13.7582401 4.32986099,15.1849248 6.12954737,15.9310852 C5.65077327,15.1376013 5.25558001,14.1489592 4.97432993,13.0263328 C3.8510408,12.74442 2.86239866,12.3492267 2.06840642,11.8704231 Z M15.9310852,11.8704526 L15.8427181,11.9231938 C15.0643027,12.3782976 14.107447,12.75482 13.0263328,13.0256701 C12.74442,14.1489592 12.3492267,15.1376013 11.8704231,15.9315936 C13.7041205,15.1708359 15.1708359,13.7041205 15.9310852,11.8704526 Z M9,6 C8.01658915,6 7.08659106,6.08711185 6.23797064,6.238051 C6.08711185,7.08659106 6,8.01658915 6,9 C6,9.98341085 6.08711185,10.9134089 6.238051,11.7620294 C7.08659106,11.9128881 8.01658915,12 9,12 C9.98341085,12 10.9134089,11.9128881 11.7620294,11.761949 C11.9128881,10.9134089 12,9.98341085 12,9 C12,8.01658915 11.9128881,7.08659106 11.761949,6.23797064 C10.9134089,6.08711185 9.98341085,6 9,6 Z M4.65943628,6.61697493 L4.56792154,6.64632651 C2.68878501,7.24618462 1.5,8.16908027 1.5,9 C1.5,9.84428417 2.72733318,10.7835267 4.65912685,11.3823653 C4.5554987,10.6240213 4.5,9.82497307 4.5,9 C4.5,8.17502693 4.5554987,7.37597869 4.65943628,6.61697493 Z M13.3408731,6.61763473 L13.3456097,6.65413745 C13.4462965,7.40204533 13.5,8.18847955 13.5,9 C13.5,9.82497307 13.4445013,10.6240213 13.3405637,11.3830251 C15.2726668,10.7835267 16.5,9.84428417 16.5,9 C16.5,8.15571583 15.2726668,7.21647327 13.3408731,6.61763473 Z M6.12957689,2.06840642 L6.02798313,2.1119073 C4.24175985,2.88365244 2.81507523,4.32986099 2.06891482,6.12954737 C2.86239866,5.65077327 3.8510408,5.25558001 4.9736672,4.97432993 C5.25558001,3.8510408 5.65077327,2.86239866 6.12957689,2.06840642 Z M11.8704526,2.06891482 L11.9231938,2.1572819 C12.3782976,2.93569734 12.75482,3.89255298 13.0256701,4.9736672 C14.1489592,5.25558001 15.1376013,5.65077327 15.9315936,6.12957689 C15.1708359,4.2958795 13.7041205,2.82916415 11.8704526,2.06891482 Z M9,1.5 C8.15571583,1.5 7.21647327,2.72733318 6.61763473,4.65912685 C7.37597869,4.5554987 8.17502693,4.5 9,4.5 C9.82497307,4.5 10.6240213,4.5554987 11.3830251,4.65943628 C10.8061944,2.80045682 9.9149022,1.59392517 9.09625992,1.50524731 L9,1.5 Z" fill="#505766" fill-rule="nonzero"/>
</svg>
