<svg xmlns="http://www.w3.org/2000/svg" viewBox="0 0 18 18" class="design-iconfont">
  <path d="M7.5,0 C9.15685425,0 10.5,1.34314575 10.5,3 L13,3 C14.1045695,3 15,3.8954305 15,5 L15,7.5 C16.6568542,7.5 18,8.84314575 18,10.5 C18,12.1568542 16.6568542,13.5 15,13.5 L15,16 C15,17.1045695 14.1045695,18 13,18 L9,18 L9,16.5 C9,15.6715729 8.32842712,15 7.5,15 C6.67157288,15 6,15.6715729 6,16.5 L6,18 L2,18 C0.8954305,18 0,17.1045695 0,16 L0,12 L1.5,12 C2.32842712,12 3,11.3284271 3,10.5 C3,9.67157288 2.32842712,9 1.5,9 L0,9 L0,5 C0,3.8954305 0.8954305,3 2,3 L4.5,3 C4.5,1.34314575 5.84314575,0 7.5,0 Z M7.5,1.5 C6.72030388,1.5 6.07955132,2.09488808 6.00686658,2.85553999 L6,3 C6,3.82842712 5.32842712,4.5 4.5,4.5 L2,4.5 C1.72385763,4.5 1.5,4.72385763 1.5,5 L1.5,7.5 L1.67627279,7.50509269 C3.19275384,7.59295962 4.40704038,8.80724616 4.49490731,10.3237272 L4.5,10.5 C4.5,12.0976809 3.25108004,13.4036609 1.67627279,13.4949073 L1.5,13.5 L1.5,16 C1.5,16.2454599 1.67687516,16.4496084 1.91012437,16.4919443 L2,16.5 L4.5,16.5 L4.50509269,16.3237272 C4.59295962,14.8072462 5.80724616,13.5929596 7.32372721,13.5050927 L7.5,13.5 C9.09768088,13.5 10.4036609,14.74892 10.4949073,16.3237272 L10.5,16.5 L13,16.5 C13.2454599,16.5 13.4496084,16.3231248 13.4919443,16.0898756 L13.5,16 L13.5,13.5 C13.5,12.7203039 14.0948881,12.0795513 14.85554,12.0068666 L15,12 C15.8284271,12 16.5,11.3284271 16.5,10.5 C16.5,9.72030388 15.9051119,9.07955132 15.14446,9.00686658 L15,9 C14.1715729,9 13.5,8.32842712 13.5,7.5 L13.5,5 C13.5,4.72385763 13.2761424,4.5 13,4.5 L10.5,4.5 C9.72030388,4.5 9.07955132,3.90511192 9.00686658,3.14446001 L9,3 C9,2.17157288 8.32842712,1.5 7.5,1.5 Z" fill="#505766" fill-rule="nonzero"/>
</svg>
