<svg xmlns="http://www.w3.org/2000/svg" viewBox="0 0 18 16" class="design-iconfont">
  <path d="M16,0 C17.1045695,0 18,0.8954305 18,2 L18,13 C18,14.1045695 17.1045695,15 16,15 L2,15 C0.8954305,15 0,14.1045695 0,13 L0,2 C0,0.8954305 0.8954305,0 2,0 L16,0 Z M16,1.5 L2,1.5 C1.72385763,1.5 1.5,1.72385763 1.5,2 L1.5,13 C1.5,13.2761424 1.72385763,13.5 2,13.5 L16,13.5 C16.2761424,13.5 16.5,13.2761424 16.5,13 L16.5,2 C16.5,1.72385763 16.2761424,1.5 16,1.5 Z M11.25,7.5 C11.6641687,7.50006341 11.9998852,7.83583127 11.9998852,8.25 C11.9998852,8.66416872 11.6641687,8.99993659 11.25,9 L7.50000001,9 C7.08583128,8.99993659 6.75011482,8.66416872 6.75011482,8.25 C6.75011482,7.83583127 7.08583128,7.50006341 7.50000001,7.5 L11.25,7.5 Z M4.28025001,3.34799984 L6.39225,5.46074984 L6.40200001,5.46974984 C6.69478646,5.76262473 6.69478646,6.23737496 6.40200001,6.53024985 L6.39149999,6.53924985 L4.28025001,8.65199985 C3.98719391,8.94484884 3.512224,8.94468095 3.21937501,8.65162485 C2.92652602,8.35856876 2.92669391,7.88359884 3.21975,7.59074985 L4.80974999,5.99999985 L3.21975,4.40924985 C3.07891722,4.26857366 2.999785,4.07768179 2.999785,3.87862485 C2.999785,3.67956791 3.07891722,3.48867603 3.21975,3.34799984 C3.51262489,3.05521339 3.98737512,3.05521339 4.28025001,3.34799984 Z" transform="translate(0 .5)" fill="#505766" fill-rule="nonzero"/>
</svg>
