<svg xmlns="http://www.w3.org/2000/svg" viewBox="0 0 16 16" class="design-iconfont">
  <g fill="#505766" fill-rule="nonzero">
    <path d="M14.1176471,0 C15.1572419,0 16,0.795938223 16,1.77777778 L16,11.5555556 C16,14.0101544 13.8931047,16 11.2941176,16 L1.88235294,16 C0.842758118,16 0,15.2040618 0,14.2222222 L0,4.44444444 C0,1.98984556 2.10689529,0 4.70588235,0 L14.1176471,0 Z M14.1176471,1.5 L4.70588235,1.5 C2.91675845,1.5 1.5,2.83804965 1.5,4.44444444 L1.5,14.2222222 C1.5,14.3558577 1.65262127,14.5 1.88235294,14.5 L11.2941176,14.5 C13.0832416,14.5 14.5,13.1619504 14.5,11.5555556 L14.5,1.77777778 C14.5,1.64414231 14.3473787,1.5 14.1176471,1.5 Z M9.80864198,5 C10.1904685,5 10.5,5.30953153 10.5,5.69135802 L10.5,5.80864198 C10.5,6.19046847 10.1904685,6.5 9.80864198,6.5 L4.19135802,6.5 C3.80953153,6.5 3.5,6.19046847 3.5,5.80864198 L3.5,5.69135802 C3.5,5.30953153 3.80953153,5 4.19135802,5 L9.80864198,5 Z"/>
    <rect x="3.5" y="9" width="9" height="1.5" rx=".69135802"/>
  </g>
</svg>
