<svg xmlns="http://www.w3.org/2000/svg" viewBox="0 0 16 16" class="design-iconfont">
  <path d="M14,0 C15.1045695,0 16,0.8954305 16,2 L16,14 C16,15.1045695 15.1045695,16 14,16 L2,16 C0.8954305,16 0,15.1045695 0,14 L0,2 C0,0.8954305 0.8954305,0 2,0 L14,0 Z M14.5,7 L1.5,7 L1.5,14 C1.5,14.2761424 1.72385763,14.5 2,14.5 L14,14.5 C14.2761424,14.5 14.5,14.2761424 14.5,14 L14.5,7 Z M14,1.5 L2,1.5 C1.72385763,1.5 1.5,1.72385763 1.5,2 L1.5,5.5 L14.5,5.5 L14.5,2 C14.5,1.72385763 14.2761424,1.5 14,1.5 Z M3.5,2.5 C4.05228475,2.5 4.5,2.94771525 4.5,3.5 C4.5,4.05228475 4.05228475,4.5 3.5,4.5 C2.94771525,4.5 2.5,4.05228475 2.5,3.5 C2.5,2.94771525 2.94771525,2.5 3.5,2.5 Z M6.5,2.5 C7.05228475,2.5 7.5,2.94771525 7.5,3.5 C7.5,4.05228475 7.05228475,4.5 6.5,4.5 C5.94771525,4.5 5.5,4.05228475 5.5,3.5 C5.5,2.94771525 5.94771525,2.5 6.5,2.5 Z M9.5,2.5 C10.0522847,2.5 10.5,2.94771525 10.5,3.5 C10.5,4.05228475 10.0522847,4.5 9.5,4.5 C8.94771525,4.5 8.5,4.05228475 8.5,3.5 C8.5,2.94771525 8.94771525,2.5 9.5,2.5 Z" fill="#505766" fill-rule="nonzero"/>
</svg>
