<svg xmlns="http://www.w3.org/2000/svg" viewBox="0 0 18 18" class="design-iconfont">
  <path d="M8.5,0 C13.1944204,0 17,3.80557963 17,8.5 C17,13.1944204 13.1944204,17 8.5,17 C3.80557963,17 0,13.1944204 0,8.5 C0,3.80557963 3.80557963,0 8.5,0 Z M8.5,1.5 C4.63400675,1.5 1.5,4.63400675 1.5,8.5 C1.5,12.3659932 4.63400675,15.5 8.5,15.5 C12.3659932,15.5 15.5,12.3659932 15.5,8.5 C15.5,4.63400675 12.3659932,1.5 8.5,1.5 Z M12.7295465,4.85813251 C12.8146227,5.0843508 12.8148922,5.33372633 12.7303052,5.56012798 L10.9436758,10.3421335 C10.8424435,10.6130872 10.6288488,10.8269349 10.3580151,10.9284879 L5.56663486,12.7250853 C5.0495085,12.9189893 4.47310448,12.6569659 4.27920046,12.1398395 C4.19401821,11.9126653 4.19433137,11.6622703 4.28008159,11.4353099 L6.08779612,6.65072033 C6.18945121,6.38166354 6.40203407,6.16940431 6.67124542,6.06815926 L11.4415405,4.27414583 C11.958477,4.07973626 12.5351369,4.341196 12.7295465,4.85813251 Z M7.115,8.172 L6.073,10.932 L8.846,9.891 L7.115,8.172 Z M10.94,6.065 L8.17,7.106 L9.906,8.83 L10.94,6.065 Z" transform="translate(.5 .5)" fill="#505766" fill-rule="nonzero"/>
</svg>
