<?xml version="1.0" standalone="no"?><!DOCTYPE svg PUBLIC "-//W3C//DTD SVG 1.1//EN" "http://www.w3.org/Graphics/SVG/1.1/DTD/svg11.dtd"><svg t="1715676328857" class="icon" viewBox="0 0 1024 1024" version="1.1" xmlns="http://www.w3.org/2000/svg" p-id="9349" xmlns:xlink="http://www.w3.org/1999/xlink" width="200" height="200"><path d="M554.529114 680.175443a42.452697 42.452697 0 0 1-84.910487 0V467.896677a42.457791 42.457791 0 0 1 84.910487 0v212.278766zM554.529114 340.533493a42.452697 42.452697 0 1 0-84.910487 0 42.452697 42.452697 0 0 0 84.910487 0z" p-id="9350"></path><path d="M512.076418 934.906905c234.470527 0 424.552438-190.08191 424.552438-424.552437 0-234.475622-190.08191-424.552438-424.552438-424.552438-234.475622 0-424.552438 190.076816-424.552438 424.552438 0 234.470527 190.076816 424.552438 424.552438 424.552437z m0-63.686686c-199.303005 0-360.870846-161.562746-360.870846-360.865751s161.567841-360.870846 360.870846-360.870846c199.303005 0 360.865751 161.567841 360.865751 360.870846 0 199.303005-161.562746 360.865751-360.865751 360.865751z" p-id="9351"></path></svg>