<?xml version="1.0" encoding="UTF-8"?>
<svg width="64px" height="64px" viewBox="0 0 64 64" version="1.1" xmlns="http://www.w3.org/2000/svg"
>
    <title>编组 14@3x</title>
    <g id="页面-1" stroke="none" stroke-width="1" fill="none" fill-rule="evenodd">
        <g id="设计组件-表格输入备份-3" transform="translate(-535.000000, -327.000000)">
            <g id="编组-4" transform="translate(535.000000, 327.000000)">
                <g id="编组-2" transform="translate(2.122867, 2.747109)" fill="#FFFFFF" fill-rule="nonzero">
                    <path d="M37.4369924,51.946586 C37.8761431,52.4688478 38.2064821,52.9736427 38.4053036,53.4477996 C38.4589943,53.575843 38.5025195,53.7005569 38.5357297,53.8216829 C39.0064759,55.5388602 39.6686014,56.8672098 40.5042372,57.6430701 C37.7422115,58.6703614 34.7867558,59.3037567 31.7070903,59.4760667 C32.9593878,59.4007281 34.1785523,59.2441007 35.3614828,59.012555 L35.3614828,59.012555 L35.421323,58.8663078 C36.3360935,56.6377455 37.0621287,54.0786755 37.4369924,51.946586 Z M21.663036,52.4726159 C22.0562414,54.4891679 22.7335594,56.8129235 23.5718902,58.8672044 L23.5592153,58.8377607 C22.3152877,58.568005 21.1002275,58.2216426 19.919308,57.8039066 C20.530684,56.8864947 20.9419532,55.5821899 21.2058424,54.0252672 C21.295189,53.4979362 21.450244,52.9757392 21.663036,52.4726159 Z M29.9918334,1.56887836e-11 C38.3401056,1.56887836e-11 45.891725,3.3847338 51.3291229,8.84673122 C50.7585413,9.61248032 49.9901045,10.2287084 49.097465,10.6278606 C50.2916064,11.1608044 51.2634729,12.083258 51.8398478,13.2278388 C52.2279773,12.4566156 52.7958226,11.7862407 53.4902877,11.2676047 C57.555719,16.345831 59.9836668,22.7725309 59.9836668,29.761962 C59.9836668,40.609601 54.135414,50.1017766 45.3970128,55.3030566 C45.2361208,53.9675657 44.2213883,52.3415245 42.566704,50.5635998 C40.7461469,48.6074482 38.123566,46.517513 36.5401721,45.6277847 C35.2153383,44.0660231 32.8072574,43.363505 29.506078,43.3611388 C26.1079471,43.3590167 23.6550793,44.1001224 22.35588,45.7579659 C22.1673155,45.8980499 21.9546843,46.0639241 21.7131078,46.2569933 L21.7131078,46.2569933 L21.1186571,46.7378834 C19.7422727,47.8603304 18.3580124,49.1519751 17.2216265,50.4250885 C15.7760036,52.0446456 14.8000518,53.5489439 14.4348076,54.8791439 C14.4079389,54.976998 14.3844534,55.0738192 14.3643678,55.1695615 C5.74951216,49.9407331 1.96109795e-12,40.5176366 1.96109795e-12,29.761962 C1.96109795e-12,23.4389329 1.98703739,17.5764443 5.37526634,12.7558516 C6.18341891,14.4299076 7.89532212,15.5864774 9.88139256,15.5864774 C12.6472553,15.5864774 14.8813926,13.3434023 14.8813926,10.5864774 C14.8813926,8.54968498 13.6619719,6.79335829 11.9096142,6.01479329 C16.937351,2.23961854 23.2010267,1.56887836e-11 29.9918334,1.56887836e-11 Z M29.5457015,17.7514674 C28.7867557,17.7511039 28.113952,17.773082 27.5223902,17.8151989 C25.7377798,17.9407536 24.6260051,18.5951247 24.4743066,19.9600164 C16.6572204,20.8649279 13.4979282,24.1847629 13.4947259,29.4861733 L13.4947259,29.4861733 L13.4930932,31.9987214 C13.4886878,38.280429 17.906627,41.7657706 29.1054501,41.7733754 C40.8202712,41.781239 45.2617914,38.3351206 45.2657105,31.9559237 L45.2657105,31.9559237 L45.2673437,29.5636333 C45.2710993,24.3854759 42.3106026,21.118153 34.761838,20.0682179 C34.5132336,18.6195799 33.5265559,17.9739097 31.7749735,17.8332744 C31.1205401,17.7803097 30.3790583,17.7518452 29.5457015,17.7514674 Z"
                          id="形状结合" opacity="0.123535156"></path>
                    <path d="M29.506078,43.3611388 C32.8072574,43.363505 35.2153383,44.0660231 36.5401721,45.6277847 C38.123566,46.517513 40.7461469,48.6074482 42.566704,50.5635998 C45.5541092,53.7735061 46.4555581,56.4883399 44.0163168,57.897573 C41.4290026,59.3925753 39.5436717,57.4984306 38.5357297,53.8216829 C38.5025195,53.7005569 38.4589943,53.575843 38.4053036,53.4477996 C38.2064821,52.9736427 37.8761431,52.4688478 37.4369924,51.946586 C37.0621287,54.0786755 36.3360935,56.6377455 35.421323,58.8663078 L35.3614828,59.012555 C33.4802071,59.3807941 31.5072877,59.5595484 29.456851,59.5266903 C27.4135598,59.4939467 25.4472463,59.2679014 23.5718902,58.8672044 C22.7335594,56.8129235 22.0562414,54.4891679 21.663036,52.4726159 C21.450244,52.9757392 21.295189,53.4979362 21.2058424,54.0252672 C20.9321937,55.6397701 20.5000622,56.9826242 19.8521321,57.9042952 C18.9531735,59.1830505 17.6689539,59.5621372 16.1499476,58.7844908 C14.5143655,57.9473381 13.9713939,56.5668715 14.4348076,54.8791439 C14.8000518,53.5489439 15.7760036,52.0446456 17.2216265,50.4250885 C18.3580124,49.1519751 19.7422727,47.8603304 21.1186571,46.7378834 L21.7131078,46.2569933 C21.9546843,46.0639241 22.1673155,45.8980499 22.35588,45.7579659 C23.6550793,44.1001224 26.1079471,43.3590167 29.506078,43.3611388 Z M29.5457015,17.7514674 C30.3790583,17.7518452 31.1205401,17.7803097 31.7749735,17.8332744 C33.5265559,17.9739097 34.5132336,18.6195799 34.761838,20.0682179 C42.3106026,21.118153 45.2710993,24.3854759 45.2673437,29.5636333 L45.2657105,31.9559237 C45.2617914,38.3351206 40.8202712,41.781239 29.1054501,41.7733754 C17.906627,41.7657706 13.4886878,38.280429 13.4930932,31.9987214 L13.4947259,29.4861733 C13.4979282,24.1847629 16.6572204,20.8649279 24.4743066,19.9600164 C24.6260051,18.5951247 25.7377798,17.9407536 27.5223902,17.8151989 C28.113952,17.773082 28.7867557,17.7511039 29.5457015,17.7514674 Z"
                          id="形状结合备份-3" opacity="0.298711868"></path>
                    <path d="M14.8813926,10.5864774 C14.8813926,7.82955255 12.6472553,5.58647745 9.88139256,5.58647745 C7.1155298,5.58647745 4.88139256,7.82955255 4.88139256,10.5864774 C4.88139256,13.3434023 7.1155298,15.5864774 9.88139256,15.5864774 C12.6472553,15.5864774 14.8813926,13.3434023 14.8813926,10.5864774 Z"
                          id="路径备份" opacity="0.291364397"></path>
                    <path d="M51.8394731,8.02680119 L51.8348638,8.03672696 C51.2578795,9.17673941 50.2881712,10.0954251 49.097465,10.6278606 C50.2916064,11.1608044 51.2634729,12.083258 51.8398478,13.2278388 C52.4159775,12.0830543 53.3880875,11.160476 54.5825205,10.6265477 C53.3880689,10.0942091 52.4159473,9.1716104 51.8394731,8.02680119 Z"
                          id="路径备份-2" opacity="0.302525112"></path>
                </g>
                <g id="编组-14" transform="translate(0.000000, 2.000000)">
                    <g id="编组">
                        <path d="M8.5372527,42.0067401 C9.08465717,42.9909738 9.41833381,44.0782798 9.51675911,45.1985224 C10.6067065,45.3129476 11.6619345,45.6459942 12.6185294,46.1774901 C11.6668689,46.7048854 10.6178048,47.035894 9.53425031,47.150665 C9.43127911,48.272363 9.11259962,50.5556462 8.55828545,51.5381776 C8.00401276,50.5639705 7.64315856,48.2882354 7.54025511,47.1738359 C6.35995233,47.0851667 5.2126404,46.7453711 4.17611699,46.1774901 C5.2121746,45.6075875 6.35951179,45.2658088 7.54025511,45.1753515 C7.64489237,44.0612969 7.98460284,42.9816449 8.5372527,42.0067401 Z M60.2164465,24.4454235 L61.0257622,26.9506396 L63.5012074,27.846893 L60.9957515,28.6568709 L60.0988279,31.1325327 L59.2895122,28.6273166 L56.814067,27.7310632 L59.3195229,26.9210853 L60.2164465,24.4454235 Z M19.7995454,5.54502905 C20.6888266,6.76901953 19.7847482,8.90298244 17.7730712,11.1234305 C17.7339373,12.8827963 16.8744921,14.6297871 15.3047851,15.770246 C13.7350781,16.9107049 11.8080079,17.188236 10.1226262,16.6818637 C7.38954914,17.9089491 5.08010032,18.1096204 4.19072532,16.8855007 C3.2999602,15.6594677 4.16831894,13.577215 6.21769725,11.3139016 C6.25434184,9.55272336 7.11400077,7.80233597 8.68597232,6.66023178 C10.2579439,5.51812759 12.1883104,5.24144281 13.875424,5.75081049 L13.8282552,5.77167965 C16.6361859,4.50323248 18.9037798,4.31211335 19.7995454,5.54502905 Z M53.99899,5.81542214 C54.2966593,5.81542214 54.537968,6.05488133 54.537968,6.35026921 C54.537968,6.54850517 54.527222,6.74428305 54.5062656,6.93708834 C54.8025836,9.12119441 56.7396679,10.8110273 59.0907847,10.8110273 C59.3586871,10.8110273 59.5809374,11.0049892 59.6227084,11.2591194 L59.6295761,11.3600902 L59.6297628,11.403038 C59.6297628,11.6984259 59.3884541,11.9378851 59.0907847,11.9378851 C56.7396679,11.9378851 54.8025836,13.627718 54.5047737,15.8117598 C54.527222,16.0046293 54.537968,16.2004072 54.537968,16.3986432 C54.537968,16.6644922 54.342508,16.8850391 54.086415,16.92649 L53.980588,16.9331843 L53.9260924,16.9334902 C53.6284231,16.9334902 53.3871144,16.694031 53.3871144,16.3986432 C53.3871144,16.2000654 53.3978975,16.0039542 53.4189253,15.8108268 C53.1219114,13.6272055 51.185058,11.9378851 48.8342977,11.9378851 C48.5663953,11.9378851 48.344145,11.7439232 48.302374,11.489793 L48.2953197,11.3458743 C48.2953197,11.0504865 48.5366284,10.8110273 48.8342977,10.8110273 C51.185058,10.8110273 53.1219114,9.12170683 53.4201731,6.93814602 C53.3978975,6.74495814 53.3871144,6.54884695 53.3871144,6.35026921 C53.3871144,6.08442012 53.5825744,5.86387327 53.8386674,5.82242239 L53.9447895,5.81573793 L53.99899,5.81542214 Z M6.38008036,12.7751956 L6.23075073,12.9664331 C5.08290279,14.4691202 4.66795755,15.7084261 5.06281012,16.251894 C5.50716826,16.8635005 6.93216161,16.7688152 8.77668626,16.0732812 C8.19859929,15.7124601 7.68124523,15.2386917 7.25847619,14.6568 C6.83569222,14.0748878 6.54497724,13.4364278 6.38008036,12.7751956 Z M16.4784103,12.4228098 C15.7961633,13.0505495 15.036358,13.672169 14.2143509,14.2693921 C13.3917348,14.8670577 12.5651242,15.3979351 11.7569542,15.8530568 L11.9545813,15.8493702 C12.8935009,15.8174686 13.8446248,15.5088999 14.6760346,14.9048452 C15.5653825,14.2586962 16.1755039,13.3777916 16.4784103,12.4228098 Z M9.31472276,7.52563251 C7.17681168,9.07891582 6.65248757,11.9887998 8.13056099,14.0231933 C8.63487687,14.7173246 9.308161,15.2212491 10.0613195,15.5222572 C11.1777926,14.9886535 12.3844156,14.2767033 13.5856005,13.4039914 C14.786767,12.5312928 15.8367006,11.6037632 16.688196,10.7078398 C16.6357167,9.8974682 16.3645123,9.10141571 15.8601964,8.40728445 C14.382123,6.37289092 11.4526338,5.97234919 9.31472276,7.52563251 Z M53.9623404,8.77391068 L53.9577311,8.78383645 C53.3807468,9.9238489 52.4110385,10.8425346 51.2203323,11.3749701 C52.4144737,11.9079139 53.3863402,12.8303675 53.9627151,13.9749483 C54.5388448,12.8301638 55.5109548,11.9075855 56.7053878,11.3736572 C55.5109362,10.8413186 54.5388146,9.91871989 53.9623404,8.77391068 Z M43.4332717,7.36925235 C43.4967644,7.38870418 43.5464621,7.43840183 43.5659139,7.50189462 L44.101428,9.24986863 L45.8572187,9.77956347 C45.9629681,9.81146643 46.0228325,9.92305573 45.9909296,10.0288051 C45.9715746,10.0929615 45.9213751,10.143161 45.8572187,10.162516 L44.101428,10.6922108 L43.5659139,12.4401848 C43.5335584,12.5457967 43.4217138,12.6051826 43.3161019,12.5728271 C43.2526091,12.5533753 43.2029115,12.5036776 43.1834597,12.4401848 L42.6479456,10.6922108 L40.8921549,10.162516 C40.7864054,10.130613 40.7265411,10.0190237 40.758444,9.91327431 C40.777799,9.84911794 40.8279985,9.79891845 40.8921549,9.77956347 L42.6479456,9.24986863 L43.1834597,7.50189462 C43.2158152,7.39628279 43.3276598,7.33689683 43.4332717,7.36925235 Z M15.214414,6.35636517 L15.3753714,6.46153579 C15.8884473,6.80791055 16.3491953,7.24640519 16.7322812,7.77367776 C17.1550502,8.35556942 17.4457596,8.99400487 17.6106596,9.65521213 C18.841682,8.11578005 19.3717639,6.79016672 18.9274607,6.17863574 C18.516392,5.61284828 17.1154429,5.64812388 15.214414,6.35636517 Z"
                              id="形状结合" fill="#E6E6E6" fill-rule="nonzero" opacity="0.897600446"></path>
                        <g id="Group-6-Copy-5" transform="translate(0.069618, 0.204448)"></g>
                        <g id="通用空页面-copy-3" transform="translate(15.098115, 18.279715)" fill="#E6E6E6"
                           fill-rule="nonzero" opacity="0.895182292">
                            <g id="分组">
                                <path d="M16.53083,25.8286843 C19.8320094,25.8308993 22.2400903,26.5334174 23.5649241,28.095179 C25.148318,28.9849073 27.7708989,31.0748425 29.591456,33.0309941 C32.5788612,36.2409004 33.4803101,38.9557342 31.0410688,40.3649673 C28.4537546,41.8599696 26.5684237,39.9658248 25.5604817,36.2890772 C25.5272715,36.1679512 25.4837463,36.0432373 25.4300556,35.9151939 C25.2312341,35.441037 24.9008951,34.9362421 24.4617444,34.4139802 C24.0868807,36.5460697 23.3608455,39.1051398 22.446075,41.333702 L22.3855809,41.4800773 C21.9682993,41.5617449 21.5465091,41.6340903 21.1203645,41.6968718 C21.230238,41.4491326 21.3397298,41.1933613 21.447761,40.9301759 L21.4478453,40.9268617 L21.4498453,40.9228617 L21.4678453,40.8768617 L21.4718453,40.8678617 L21.4728453,40.8658617 L21.4788453,40.8498617 L21.4958453,40.8078617 L21.5048453,40.7858617 L21.5208453,40.7458617 L21.5458453,40.6838617 L21.5458453,40.6858617 L21.5710492,40.6247802 L21.5710492,40.6247802 L21.5868453,40.5818617 L21.5858453,40.5828617 L21.5908453,40.5708617 L21.5868453,40.5818617 L21.5928453,40.5668617 L21.5918453,40.5678617 L21.5958453,40.5578617 L21.6018453,40.5438617 L21.6028453,40.5408617 L21.6038453,40.5388617 L21.6088453,40.5258617 L21.6158453,40.5088617 L21.6188453,40.5008617 L21.6228453,40.4908617 L21.6918391,40.3155447 L21.6918391,40.3155447 C21.7347176,40.2039658 21.7772486,40.0913221 21.8192534,39.9781237 C21.8409942,39.9195297 21.8622932,39.8616124 21.8834525,39.8035641 C21.9300951,39.6756065 21.9761141,39.5468524 22.0214222,39.4176025 C22.0236235,39.4113225 22.0255995,39.4056802 22.0275743,39.400037 C22.0839997,39.2387958 22.1394871,39.0762836 22.1938014,38.9132846 C22.2039805,38.8827383 22.2142584,38.8517506 22.2244936,38.8207472 C22.3281119,38.5068635 22.4272215,38.1917995 22.5215468,37.8771172 C22.5292648,37.8513699 22.5370316,37.8253528 22.5447656,37.7993393 C22.5833607,37.6695185 22.6210419,37.5401184 22.6578779,37.4109489 C22.6845589,37.3173927 22.7108979,37.2235911 22.7367788,37.1299645 C22.8077061,36.8733708 22.8751244,36.6183658 22.9388825,36.3657632 C22.9579084,36.2903843 22.9765978,36.2152624 22.9949556,36.1403832 L23.0670399,35.8403757 L23.0670399,35.8403757 C23.0897316,35.7439677 23.1120254,35.6472559 23.1337223,35.5510921 C23.1488158,35.4841992 23.1636949,35.4172312 23.1782777,35.3505533 C23.2029404,35.2377682 23.2265531,35.1267901 23.2493106,35.0167327 C23.2554768,34.9869176 23.2617751,34.9562124 23.268006,34.9255814 C23.3619242,34.4638463 23.4404764,34.0194087 23.5021197,33.5996417 C23.5093412,33.550494 23.5165585,33.500051 23.5235254,33.449983 L23.5268691,33.4258417 C23.5837422,33.0130072 23.6233515,32.6277252 23.6443603,32.2757097 L23.652754,32.0913938 C23.6590754,31.9659568 23.661796,31.8454734 23.6618749,31.7300728 L23.6618453,31.7198617 L23.6578453,31.4958617 L23.6539582,31.395404 L23.6539582,31.395404 L23.6467067,31.2720567 L23.6467067,31.2720567 L23.6371183,31.1505618 C23.6134466,30.8852526 23.5728435,30.6336062 23.5153892,30.3952194 C23.5126104,30.3836735 23.5094614,30.370834 23.5062633,30.358033 C23.4507643,30.1360365 23.3807491,29.9262864 23.2961144,29.7278229 L23.2542435,29.6331562 L23.2542435,29.6331562 C23.2373257,29.596247 23.2197878,29.5595485 23.2017207,29.523256 C23.1914417,29.5026068 23.180951,29.4820114 23.1702877,29.4615482 C23.1436159,29.4103691 23.1159451,29.3601544 23.0872025,29.3107561 L23.0658038,29.2744616 L23.0658038,29.2744616 C22.9914009,29.1499286 22.9102052,29.0308292 22.8221307,28.9168952 L22.8119621,28.9038031 C22.3807561,28.3516439 21.7881713,27.9221929 21.0360888,27.6046787 C21.017037,27.5972693 20.9984633,27.5895247 20.979793,27.5818477 C20.9238891,27.5582888 20.866521,27.5357124 20.8082731,27.5137492 L20.7199703,27.4816119 L20.7199703,27.4816119 C20.6650224,27.4613262 20.6092586,27.4419955 20.5527349,27.4231903 L20.4904383,27.4031164 L20.4904383,27.4031164 C20.3316418,27.3515409 20.1675261,27.3045049 19.9975894,27.2614316 C19.9633219,27.2529234 19.9286992,27.2443622 19.8938379,27.235963 C19.8263336,27.2195476 19.7576567,27.203841 19.6880806,27.1887413 C19.6719847,27.1853717 19.6565999,27.1820707 19.6411714,27.1787991 C19.5596095,27.1613935 19.4761274,27.1447987 19.3914055,27.1290342 L19.3469107,27.1209304 L19.3469107,27.1209304 C19.253672,27.1039081 19.1589283,27.0879553 19.0627004,27.072988 C19.0294324,27.0678646 18.9966489,27.0629046 18.9636949,27.0580576 C18.8933156,27.0476624 18.8215129,27.0377428 18.7489201,27.0283438 C18.724304,27.0251881 18.7003273,27.0221513 18.6762649,27.0191708 C18.6064554,27.0104962 18.5353511,27.0022609 18.4635159,26.9945037 C18.4124572,26.9890063 18.3607574,26.9837052 18.3086844,26.9786471 C18.2685944,26.9747415 18.2288619,26.9710456 18.1889147,26.967489 C18.1255078,26.9618521 18.0612494,26.9565318 17.9964451,26.9515642 C17.7949121,26.9361096 17.5879196,26.9240652 17.37566,26.9153769 C17.3253096,26.9133168 17.2746581,26.9114443 17.2237102,26.9097599 C17.1544644,26.9074698 17.0845813,26.9055257 17.0141501,26.9039279 C16.9627247,26.9027614 16.9110092,26.9017793 16.8590018,26.9009811 L16.8405184,26.9007053 L16.5301022,26.8983781 L16.2428453,26.8998617 L16.3602722,26.8988918 L16.3602722,26.8988918 L16.5301022,26.8983781 L16.2818529,26.8995606 L16.2818529,26.8995606 L16.2378453,26.8998617 L16.2368453,26.8998617 L16.0379059,26.9034552 L16.0379059,26.9034552 C15.9564003,26.9052266 15.875461,26.9074689 15.7952599,26.9101818 C15.7618896,26.9113105 15.7286094,26.9125222 15.6954573,26.9138157 C15.6030889,26.9174196 15.5117103,26.9216594 15.4213277,26.9265398 C15.3970752,26.927849 15.372603,26.9292212 15.3482042,26.9306408 C15.2306336,26.9374839 15.1151322,26.9453976 15.0013296,26.9544149 C14.9971226,26.954748 14.9920968,26.9551484 14.9870743,26.9555509 C14.8739923,26.96462 14.7634021,26.9746991 14.654472,26.9858656 C14.6464993,26.9866825 14.6378267,26.9875791 14.6291647,26.9884826 C14.5234734,26.9995119 14.4200174,27.0114861 14.3181143,27.0244862 L14.286749,27.0285263 L14.286749,27.0285263 C14.1805964,27.042336 14.0766608,27.0571858 13.9744072,27.0731565 C13.9470981,27.0774232 13.920503,27.0816729 13.8940227,27.0859992 C13.8317566,27.0961687 13.7695171,27.106872 13.7079259,27.1180103 C13.6582227,27.1270015 13.6094903,27.1361687 13.5611711,27.1456143 L13.4052508,27.1773655 L13.4052508,27.1773655 L13.29341,27.2017624 L13.29341,27.2017624 C13.231138,27.2157346 13.1692557,27.2302893 13.1081162,27.2453505 L13.0283906,27.2653856 L13.0283906,27.2653856 C12.8485418,27.3114783 12.6750474,27.3621318 12.5081621,27.4173694 C12.4871572,27.4243213 12.4661077,27.4313969 12.4451644,27.4385462 C12.3890712,27.457694 12.3336812,27.4773933 12.2790559,27.4976266 C12.2544915,27.506727 12.2304462,27.5157954 12.206551,27.5249689 C12.1271697,27.5554451 12.0495244,27.5870467 11.9735352,27.6198159 C11.9594441,27.6258911 11.9449652,27.6322024 11.9305469,27.6385564 C11.8703156,27.665105 11.8114912,27.6922326 11.7537139,27.7201036 L11.6834066,27.7546449 L11.6834066,27.7546449 C11.6314101,27.7806603 11.5802872,27.8072983 11.5300396,27.8345624 C11.5126032,27.8440221 11.4950333,27.8536904 11.4775719,27.8634364 C11.3454992,27.9371649 11.2199262,28.0151313 11.1005445,28.097593 L11.0742715,28.1158835 C10.7125946,28.3698063 10.409355,28.6647638 10.1641147,29.0035513 L10.161965,29.0065242 L10.1427514,29.0333816 L10.1084844,29.0826088 L10.1084844,29.0826088 L10.0868453,29.1138617 L10.0750123,29.1324385 L10.0750123,29.1324385 L10.0076156,29.2385483 L10.0076156,29.2385483 L9.98118274,29.2824901 L9.98118274,29.2824901 C9.96028634,29.3177822 9.93984464,29.3536737 9.91996109,29.3899928 C9.85553777,29.5076522 9.79689176,29.6299936 9.74414017,29.7569035 C9.73357181,29.7823298 9.72326,29.8078886 9.71318399,29.8336305 L9.68311519,29.9128981 L9.65507993,29.9916741 L9.63978396,30.0369117 L9.63978396,30.0369117 C9.62668033,30.0763924 9.61396411,30.116709 9.60177631,30.15744 C9.59309446,30.1864585 9.58472821,30.2155161 9.57662722,30.2447822 C9.56861909,30.2737085 9.56082812,30.303003 9.55329938,30.3325041 L9.49895252,30.5714981 L9.49895252,30.5714981 L9.45560918,30.8197903 C9.44751465,30.8739205 9.44015204,30.9289565 9.43356519,30.9846139 L9.41781793,31.1347463 L9.41781793,31.1347463 C9.41505864,31.1648173 9.41248614,31.1954719 9.41013759,31.2263069 L9.40291027,31.3336429 L9.40291027,31.3336429 L9.39745137,31.4428292 L9.39543577,31.4968091 L9.39172654,31.7012732 L9.39168712,31.720605 L9.39168712,31.720605 L9.39378375,31.938203 C9.40583448,32.3816262 9.45197623,32.8921342 9.52893845,33.4488552 L9.52860418,33.4514168 L9.53399929,33.4852135 C9.56462911,33.7037773 9.59996216,33.9293496 9.63976218,34.1607923 C9.65247572,34.2375907 9.66648042,34.316653 9.68098816,34.3963458 C9.75134922,34.7808268 9.83304296,35.180264 9.92543889,35.5893998 C9.94568338,35.6800895 9.96674304,35.7714339 9.98831885,35.8632027 C10.0128485,35.9666959 10.0379943,36.0714283 10.0637895,36.1766274 C10.1189779,36.4023239 10.1773868,36.6303897 10.2386241,36.85982 C10.2668038,36.9650116 10.2955383,37.0707499 10.3248549,37.1766993 C10.3452481,37.2507048 10.3661039,37.3251312 10.3872405,37.3996353 C10.4221734,37.5225295 10.4576881,37.6452672 10.4939381,37.7680962 C10.5087121,37.8183318 10.5237099,37.8687389 10.5388297,37.9191534 C10.5736267,38.0350407 10.6090714,38.1511261 10.6451423,38.2671505 L10.6827403,38.3874211 L10.6827403,38.3874211 L10.7207795,38.5074607 C10.7661895,38.6500444 10.8125379,38.7923953 10.8597734,38.9343659 C10.9617894,39.2409724 11.0680732,39.5461956 11.1781198,39.8477717 C11.1960464,39.896904 11.2140653,39.9459129 11.2321823,39.994817 C11.2667131,40.0880262 11.301659,40.1810129 11.3369507,40.2735617 C11.3660922,40.3499808 11.395362,40.4258248 11.4248594,40.5013411 L11.4396985,40.5392535 L11.54692,40.8087008 C11.5624497,40.847162 11.5780376,40.8855247 11.5936828,40.9237845 C11.6849654,41.147013 11.7773047,41.3649147 11.8705969,41.5773168 C11.4413784,41.5053418 11.0172653,41.4244545 10.5977045,41.3348256 L10.5948309,41.3259979 C9.7583114,39.2803178 9.08099337,36.9565622 8.68778802,34.9400102 C8.47499599,35.4431335 8.31994097,35.9653305 8.23059445,36.4926615 C7.95694575,38.1071644 7.52481422,39.4500185 6.87688409,40.3716895 C5.97792552,41.6504448 4.69370594,42.0295315 3.17469961,41.2518851 C1.53911749,40.4147324 0.996145897,39.0342658 1.45955958,37.3465382 C1.82480385,36.0163382 2.8007556,34.5120399 4.24637847,32.8924828 C5.38276441,31.6193694 6.76702469,30.3277247 8.14340915,29.2052777 C8.64695194,28.7946366 9.05064423,28.4705072 9.38063197,28.2253602 C10.6798314,26.5675167 13.1326991,25.826411 16.53083,25.8286843 Z M17.0206424,29.7983081 C17.1340077,29.7983081 17.34483,29.8712745 17.3902798,30.1474527 L17.3990583,30.2607995 L17.3990583,30.6677318 L21.0976028,29.8906562 C21.293198,29.8492789 21.4838256,29.9573938 21.5162031,30.1132301 L21.5206272,30.1737069 L21.3769247,32.7677128 C21.3645706,32.9824135 21.1676904,33.1439911 20.9331641,33.1752428 C20.7914746,36.4304093 18.7456692,41.6116173 16.673705,41.6116173 C14.6002495,41.6116173 12.5529905,36.4229486 12.4144955,33.1659445 C12.1835202,33.1814192 12.0082467,33.0430651 11.9620606,32.836811 L11.9509351,32.7564508 L11.7766958,30.162445 C11.7672653,29.998208 11.8843604,29.8690356 12.0611942,29.8704932 L12.1404429,29.8793943 L15.6027764,30.6316935 L15.6027764,30.2607995 C15.6027764,29.9703416 15.8104263,29.830828 15.9467742,29.8034109 L15.9940175,29.7983081 L17.0206424,29.7983081 Z M17.3990583,32.0589598 L17.3990583,32.4809081 C17.3990583,32.5729344 17.3337323,32.7427373 17.2347535,32.7893743 L17.1826063,32.8014987 L15.9940175,32.8014987 C15.8816376,32.8014987 15.6663785,32.6951024 15.6143197,32.5965778 L15.6027764,32.555168 L15.6027764,32.1122664 L13.2511651,32.9063081 L13.253807,33.0180585 C13.3371787,35.8917236 15.2290932,40.7470106 16.673705,40.7470106 C18.1278432,40.7470106 20.035203,35.8274767 20.0950158,32.9614683 L17.3990583,32.0589598 Z M8.43684526,30.3558617 L8.82781635,30.0317068 C7.49253008,31.120638 6.1487026,32.3745551 5.05330434,33.6017494 C3.70788396,35.1090478 2.8120341,36.4898798 2.49959946,37.62775 C2.16521457,38.8455617 2.50306078,39.7045116 3.66888137,40.3012226 C4.68782801,40.8228664 5.39136964,40.6151891 5.99279524,39.75967 C6.21378391,39.4453169 6.40993625,39.0545172 6.58164345,38.6005352 L6.50855665,38.4254246 C6.45595297,38.3059824 6.40027199,38.1874499 6.36282569,38.1281658 C6.07978025,37.6800545 5.59946132,37.4835369 4.6400389,37.6651993 C4.36871737,37.7165729 4.10712133,37.5382698 4.05574777,37.2669483 C4.00437422,36.9956268 4.18267728,36.7340307 4.4539988,36.6826572 C5.62005827,36.4618689 6.44391421,36.7018434 6.97405566,37.2849908 C7.04554004,36.9777342 7.11025772,36.6533723 7.16756436,36.3152682 C7.35407997,35.2144367 7.78601283,34.1386913 8.4091082,33.1822798 C8.34642893,32.6444699 8.31347878,32.1515755 8.31373111,31.7199321 C8.31398101,31.3540912 8.33754362,31.0068844 8.38389975,30.677877 L8.43684526,30.3558617 Z M24.5367146,30.0105853 L24.5672518,30.1299259 C24.6820109,30.617979 24.7402266,31.1510268 24.7398311,31.7307976 C24.739565,32.1200833 24.7122197,32.5591628 24.6603733,33.0360357 C25.4781161,33.8727434 26.0873923,34.6984141 26.4252914,35.5042482 C26.4963023,35.6735977 26.5549351,35.8415995 26.6006313,36.0082652 C27.4498278,39.1059448 28.7745023,40.436812 30.4986783,39.4405483 C32.0431094,38.5482777 31.3687184,36.517259 28.7995568,33.756747 C27.554619,32.4190865 25.9017895,31.0054758 24.5367146,30.0105853 Z M16.5704536,0.218866227 C17.4038103,0.219239518 18.1452922,0.247703956 18.7997255,0.300668671 C20.5513079,0.441303944 21.5379856,1.08697415 21.78659,2.53561222 C29.3353546,3.58554729 32.2958513,6.85287014 32.2920921,12.0310276 L32.2904625,14.423318 C32.2865434,20.8025149 27.8450232,24.2486332 16.1302021,24.2407562 C4.93137898,24.2331649 0.513439798,20.7478233 0.51784856,14.4661157 L0.519477925,11.9535676 C0.522680202,6.6521572 3.68197238,3.33232216 11.4990586,2.42741067 C11.6507572,1.06251894 12.7625318,0.408147885 14.5471422,0.282593168 C15.138704,0.24047632 15.8115077,0.218498202 16.5704536,0.218866227 Z M16.5699466,1.2885649 C15.836011,1.28820449 15.1889766,1.30934082 14.6238291,1.34957688 C13.1939606,1.45017418 12.5609229,1.86534008 12.560393,2.75699669 L12.5587644,5.24827856 L11.4808085,5.24758462 L11.4809751,3.50669321 C4.30142305,4.36891233 1.60028024,7.24192524 1.5974338,11.9542317 L1.59580771,14.466832 C1.5918536,20.0965242 5.47991501,23.1638417 16.1309354,23.1710488 C27.3002052,23.1785719 31.2089906,20.1457957 31.2125066,14.4226312 L31.2141327,12.0302811 C31.2174712,7.43596787 28.7038758,4.61574903 21.81608,3.62047526 L21.8147463,5.34448874 L20.7367904,5.34381601 L20.7383968,2.80905147 C20.6055841,1.84484294 20.0606969,1.47510238 18.7124465,1.3668507 C18.0875031,1.31627277 17.3750058,1.28892101 16.5699466,1.2885649 Z M16.0783299,6.06895854 C17.576607,6.06977006 18.8973921,6.14725741 20.0610866,6.28938445 C26.8767573,7.12231455 28.2963055,10.1844984 28.3412952,13.199375 L28.3424156,13.3579967 L28.3411892,15.2309421 C28.338741,18.8567877 26.4928245,22.5043137 16.0673132,22.4978983 C6.29961022,22.4911595 4.2768994,18.989054 4.22494254,15.4160723 L4.22390388,15.2650687 L4.22513027,13.2981749 C4.22757844,9.68035908 6.17305368,6.06254326 16.0783299,6.06895854 Z M16.2831597,11.3842038 C14.6011499,11.3842038 13.2378931,12.7361611 13.2378931,14.4042295 C13.2378931,16.0722978 14.6011499,17.4242552 16.2831597,17.4242552 C17.9651695,17.4242552 19.3284263,16.0722978 19.3284263,14.4042295 C19.3284263,12.7361611 17.9651695,11.3842038 16.2831597,11.3842038 Z M16.5947382,2.20332565 C17.1900041,2.2037082 17.6837294,2.22477154 18.0907136,2.25636655 C19.0165967,2.32858371 19.6212964,2.59271362 19.7893117,3.38648506 L19.815669,3.5416064 L19.8144357,5.10255032 C17.1791163,5.10038472 15.2452472,5.09915426 14.0128286,5.09885895 L13.4815144,5.09878901 L13.4827477,3.52957021 C13.4831588,2.62271821 14.2412183,2.31241008 15.2373019,2.24470649 C15.6105764,2.21912957 16.0586701,2.20295594 16.5947382,2.20332565 Z"
                                      id="形状结合"></path>
                            </g>
                        </g>
                        <g id="通用空页面-copy-3备份" transform="translate(15.098115, 18.279715)">
                            <g id="分组"></g>
                        </g>
                    </g>
                </g>
            </g>
        </g>
    </g>
</svg>
