<?xml version="1.0" encoding="UTF-8"?>
<svg width="63.4064516px" height="84.1083871px" viewBox="0 0 63.4064516 84.1083871" version="1.1" xmlns="http://www.w3.org/2000/svg" xmlns:xlink="http://www.w3.org/1999/xlink">
    <title>暂无数据-简单</title>
    <defs>
        <linearGradient x1="23.7511675%" y1="40.1094904%" x2="95.8641053%" y2="50%" id="linearGradient-1">
            <stop stop-color="#F3F3F3" offset="0%"></stop>
            <stop stop-color="#FFFFFF" offset="53.3502094%"></stop>
            <stop stop-color="#F5F5F5" offset="100%"></stop>
        </linearGradient>
        <linearGradient x1="34.0210418%" y1="5.84785588%" x2="77.9197417%" y2="50%" id="linearGradient-2">
            <stop stop-color="#F3F3F3" offset="0%"></stop>
            <stop stop-color="#FFFFFF" offset="53.3502094%"></stop>
            <stop stop-color="#F5F5F5" offset="100%"></stop>
        </linearGradient>
        <linearGradient x1="34.4420184%" y1="38.1965995%" x2="64.7810893%" y2="141.527061%" id="linearGradient-3">
            <stop stop-color="#C0C4D0" offset="0%"></stop>
            <stop stop-color="#777C8F" offset="100%"></stop>
        </linearGradient>
        <linearGradient x1="50%" y1="28.7566633%" x2="49.9615045%" y2="98.5279751%" id="linearGradient-4">
            <stop stop-color="#FAFBFF" offset="0%"></stop>
            <stop stop-color="#F5F6FB" offset="37.2776556%"></stop>
            <stop stop-color="#CCCFD8" offset="100%"></stop>
        </linearGradient>
        <path d="M14.6353091,0 L53.3496572,0 C56.3657175,0 58.7884545,2.42527551 58.7884545,5.44449605 L58.7884545,35.3892243 L56.9363237,41.2188819 C55.8998405,44.5953782 47.1612252,52.1436254 44.7929557,54.5439514 C42.1163527,57.2567843 33.7971708,60.8620734 27.3900745,60.830836 L4.49936868,60.7803741 C2.02718809,60.7803741 0,58.751062 0,56.2267956 C0,55.6328506 0.0988872237,55.0389056 0.346105283,54.5439514 L9.24595542,32.864958 L9.24595542,5.44449605 C9.24595542,2.42527551 11.6686924,0 14.6353091,0 Z" id="path-5"></path>
        <linearGradient x1="99.879266%" y1="53.9323419%" x2="27.8081711%" y2="53.9323419%" id="linearGradient-7">
            <stop stop-color="#EEEFF0" offset="0%"></stop>
            <stop stop-color="#9AA2AF" offset="100%"></stop>
        </linearGradient>
        <linearGradient x1="99.879266%" y1="54.0019573%" x2="20.9423056%" y2="54.0019573%" id="linearGradient-8">
            <stop stop-color="#EEEFF0" offset="0%"></stop>
            <stop stop-color="#969DA6" offset="100%"></stop>
        </linearGradient>
        <linearGradient x1="36.9737465%" y1="31.1786206%" x2="36.9737465%" y2="100%" id="linearGradient-9">
            <stop stop-color="#E5E6EC" stop-opacity="0.740040599" offset="0%"></stop>
            <stop stop-color="#B2B7BF" offset="100%"></stop>
        </linearGradient>
        <linearGradient x1="49.6384104%" y1="0.963086377%" x2="49.6384104%" y2="99.8420383%" id="linearGradient-10">
            <stop stop-color="#FFFFFF" offset="0%"></stop>
            <stop stop-color="#FFFFFF" stop-opacity="0.4778" offset="100%"></stop>
        </linearGradient>
    </defs>
    <g id="页面-1" stroke="none" stroke-width="1" fill="none" fill-rule="evenodd" opacity="0.519587926">
        <g id="缺省图-copy" transform="translate(-2627.212903, -574.000000)">
            <g id="暂无数据-简单" transform="translate(2627.212903, 574.000000)">
                <g id="编组-10" transform="translate(-0.000000, 0.000000)">
                    <path d="M18.3742073,15.8194113 C17.8797712,15.8194113 17.4842223,15.423448 17.4842223,14.9284938 L17.4842223,7.47380822 C17.4842223,6.97885403 17.8797712,6.58289068 18.3742073,6.58289068 L27.5212755,6.58289068 C27.5212755,2.9202297 30.4878922,0 34.1961631,0 C37.904434,0 40.8710507,2.9202297 40.8710507,6.53339526 L50.0181189,6.53339526 C50.512555,6.53339526 50.9081039,6.92935861 50.9081039,7.4243128 L50.9081039,14.8789984 C50.9081039,15.3739526 50.512555,15.7699159 50.0181189,15.7699159 L18.3742073,15.7699159 L18.3742073,15.8194113 Z" id="path-32" fill="#EDEDED"></path>
                    <path d="M18.3742073,16.0903791 C17.8797712,16.0903791 17.4842223,15.6944157 17.4842223,15.1994615 L17.4842223,7.74477596 C17.4842223,7.24982177 17.8797712,6.85385842 18.3742073,6.85385842 L27.5212755,6.85385842 C27.5212755,3.19119744 30.4878922,0.270967742 34.1961631,0.270967742 C37.904434,0.270967742 40.8710507,3.19119744 40.8710507,6.80436301 L50.0181189,6.80436301 C50.512555,6.80436301 50.9081039,7.20032635 50.9081039,7.69528054 L50.9081039,15.1499661 C50.9081039,15.6449203 50.512555,16.0408837 50.0181189,16.0408837 L18.3742073,16.0408837 L18.3742073,16.0903791 Z" id="path-32" fill="url(#linearGradient-1)"></path>
                    <g id="path-19-link" transform="translate(5.015490, 8.555218)">
                        <path d="M10.4306579,0 L48.502239,0 C53.9410363,0 58.3909613,4.45458768 58.3909613,9.89908373 L58.3909613,64.2450534 C58.3909613,69.6895495 53.9410363,74.1441372 48.502239,74.1441372 L10.4306579,74.1441372 C4.99186055,74.1441372 0.541935484,69.6895495 0.541935484,64.2450534 L0.541935484,9.89908373 C0.541935484,4.45458768 4.99186055,0 10.4306579,0 Z" id="path-19" fill="#D9CDCD"></path>
                        <path d="M10.4306579,0.325161061 L48.502239,0.325161061 C53.9410363,0.325161061 58.3909613,4.77974874 58.3909613,10.2242448 L58.3909613,64.5702145 C58.3909613,70.0147105 53.9410363,74.4692982 48.502239,74.4692982 L10.4306579,74.4692982 C4.99186055,74.4692982 0.541935484,70.0147105 0.541935484,64.5702145 L0.541935484,10.2242448 C0.541935484,4.77974874 4.99186055,0.325161061 10.4306579,0.325161061 Z" id="path-19" fill="url(#linearGradient-2)"></path>
                        <path d="M9.88872237,1.40903203 L47.9603035,1.40903203 C53.3991008,1.40903203 57.8490259,5.86361971 57.8490259,11.3081158 L57.8490259,65.6540855 C57.8490259,71.0985815 53.3991008,75.5531692 47.9603035,75.5531692 L9.88872237,75.5531692 C4.44992507,75.5531692 0,71.0985815 0,65.6540855 L0,11.3081158 C0,5.86361971 4.44992507,1.40903203 9.88872237,1.40903203 Z" id="path-19" fill="url(#linearGradient-3)"></path>
                    </g>
                    <g id="路径-4" transform="translate(8.191427, 14.034431)" fill="#FFFFFF" fill-rule="nonzero">
                        <g id="蒙版_1_" transform="translate(0.889985, 0.000000)">
                            <path d="M5.93323342,0 L43.7575965,0 C47.0208749,0 49.6908299,2.67275261 49.6908299,5.93945024 L49.6908299,60.0874383 C49.6908299,63.3541359 47.0208749,66.0268885 43.7575965,66.0268885 L5.93323342,66.0268885 C2.66995504,66.0268885 0,63.3541359 0,60.0874383 L0,5.93945024 C0,2.67275261 2.66995504,0 5.93323342,0 Z" id="path-21"></path>
                        </g>
                    </g>
                    <g id="路径-7" transform="translate(0.000000, 14.034431)">
                        <mask id="mask-6" fill="white">
                            <use xlink:href="#path-5"></use>
                        </mask>
                        <use id="path-24" fill="url(#linearGradient-4)" fill-rule="nonzero" xlink:href="#path-5"></use>
                        <g id="路径-6-Clipped" opacity="0.6515" mask="url(#mask-6)" fill="#B0B5BC" fill-rule="nonzero">
                            <g transform="translate(25.760122, 39.851189)" id="路径-6">
                                <path d="M33.105508,0 L11.3720307,9.08225112 C8.83392532,15.9439145 5.04324841,20.5791347 0,22.9879117 L28.3311896,25.0868003 L33.105508,0 Z"></path>
                            </g>
                        </g>
                        <g id="形状-Clipped" opacity="0.831608879" mask="url(#mask-6)" fill="url(#linearGradient-7)" fill-rule="nonzero">
                            <g transform="translate(14.041986, 10.196056)" id="形状">
                                <path d="M24.326257,9.94857915 C24.8701368,9.94857915 25.3151293,10.5425242 25.3151293,11.2849555 C25.3151293,12.0273867 24.8701368,12.6213318 24.326257,12.6213318 L12.7070082,12.6213318 C12.1631285,12.6213318 11.718136,12.0273867 11.718136,11.2849555 C11.718136,10.5425242 12.1631285,9.94857915 12.7070082,9.94857915 L24.326257,9.94857915 Z M37.8738067,4.99903729 C38.4176864,4.99903729 38.8626789,5.59298231 38.8626789,6.33541359 C38.8626789,7.07784487 38.4176864,7.67178989 37.8738067,7.67178989 L12.7070082,7.67178989 C12.1631285,7.67178989 11.718136,7.07784487 11.718136,6.33541359 C11.718136,5.59298231 12.1631285,4.99903729 12.7070082,4.99903729 L37.8738067,4.99903729 Z M0,0.197981675 L9.49317347,0.197981675 L9.49317347,12.8688089 L0,12.8688089 L0,0.197981675 Z M37.8738067,0 C38.4176864,0 38.8626789,0.593945024 38.8626789,1.3363763 C38.8626789,2.07880758 38.4176864,2.67275261 37.8738067,2.67275261 L12.7070082,2.67275261 C12.1631285,2.67275261 11.718136,2.07880758 11.718136,1.3363763 C11.718136,0.593945024 12.1631285,0 12.7070082,0 L37.8738067,0 Z"></path>
                            </g>
                        </g>
                        <g id="形状备份-Clipped" opacity="0.703662479" mask="url(#mask-6)" fill="url(#linearGradient-8)" fill-rule="nonzero">
                            <g transform="translate(14.041986, 30.538673)" id="形状备份">
                                <path d="M24.326257,9.99807457 C24.8701368,9.99807457 25.3151293,10.5920196 25.3151293,11.3344509 C25.3151293,12.0768822 24.8701368,12.6708272 24.326257,12.6708272 L12.7070082,12.6708272 C12.1631285,12.6708272 11.718136,12.0768822 11.718136,11.3344509 C11.718136,10.5920196 12.1631285,9.99807457 12.7070082,9.99807457 L24.326257,9.99807457 Z M37.8738067,4.99903729 C38.4176864,4.99903729 38.8626789,5.59298231 38.8626789,6.33541359 C38.8626789,7.07784487 38.4176864,7.67178989 37.8738067,7.67178989 L12.7070082,7.67178989 C12.1631285,7.67178989 11.718136,7.07784487 11.718136,6.33541359 C11.718136,5.59298231 12.1631285,4.99903729 12.7070082,4.99903729 L37.8738067,4.99903729 Z M0,0.197981675 L9.49317347,0.197981675 L9.49317347,12.8688089 L0,12.8688089 L0,0.197981675 Z M37.8738067,0 C38.4176864,0 38.8626789,0.593945024 38.8626789,1.3363763 C38.8626789,2.07880758 38.4176864,2.67275261 37.8738067,2.67275261 L12.7070082,2.67275261 C12.1631285,2.67275261 11.718136,2.07880758 11.718136,1.3363763 C11.718136,0.593945024 12.1631285,0 12.7070082,0 L37.8738067,0 Z"></path>
                            </g>
                        </g>
                    </g>
                    <g id="编组-26" transform="translate(17.206377, 1.192258)">
                        <path d="M33.4238816,12.0430274 L33.4238816,13.9577081 C33.4238816,14.4526622 33.0283327,14.8486256 32.5338966,14.8486256 L0.889985013,14.8486256 C0.395548895,14.8486256 0,14.4526622 0,13.9577081 L0,11.6436624 L33.4238816,12.0430274 Z" id="形状结合_1_" fill="#888F9B" fill-rule="nonzero"></path>
                        <path d="M0.89686262,13.1162859 C0.402426501,13.1162859 0.00687760641,12.7203226 0.00687760641,12.2253684 L0.00687760641,7.47380822 C0.00687760641,6.97885403 0.402426501,6.58289068 0.89686262,6.58289068 L10.0439308,6.58289068 C10.0439308,2.9202297 13.0105475,0 16.7188184,0 C20.4270893,0 23.393706,2.9202297 23.393706,6.53339526 L23.393706,6.53339526 L32.5407742,6.53339526 C33.0352103,6.53339526 33.4307592,6.92935861 33.4307592,7.4243128 L33.4307592,12.175873 C33.4307592,12.6708272 33.0352103,13.0667905 32.5407742,13.0667905 L0.89686262,13.0667905 L0.89686262,13.1162859 Z" id="path-32" fill="url(#linearGradient-9)"></path>
                        <ellipse id="椭圆形_10_" fill="url(#linearGradient-10)" fill-rule="nonzero" cx="16.5141664" cy="6.0879365" rx="3.41160922" ry="3.41518389"></ellipse>
                    </g>
                </g>
            </g>
        </g>
    </g>
</svg>