<?xml version="1.0" encoding="UTF-8"?>
<svg width="126.5px" height="101.007785px" viewBox="0 0 126.5 101.007785" version="1.1" xmlns="http://www.w3.org/2000/svg" xmlns:xlink="http://www.w3.org/1999/xlink">
    <title>暂无搜索-1</title>
    <defs>
        <linearGradient x1="50%" y1="-31.2127979%" x2="42.532671%" y2="143.755633%" id="linearGradient-1">
            <stop stop-color="#626262" offset="0%"></stop>
            <stop stop-color="#ECECEC" stop-opacity="0" offset="100%"></stop>
        </linearGradient>
        <linearGradient x1="50%" y1="0%" x2="50%" y2="100%" id="linearGradient-2">
            <stop stop-color="#626262" offset="0%"></stop>
            <stop stop-color="#ECECEC" stop-opacity="0" offset="100%"></stop>
        </linearGradient>
        <linearGradient x1="50%" y1="0%" x2="50%" y2="100%" id="linearGradient-3">
            <stop stop-color="#ECECEC" offset="0%"></stop>
            <stop stop-color="#ECECEC" stop-opacity="0" offset="100%"></stop>
        </linearGradient>
        <linearGradient x1="50%" y1="0%" x2="50%" y2="100%" id="linearGradient-4">
            <stop stop-color="#626262" offset="0%"></stop>
            <stop stop-color="#ECECEC" stop-opacity="0" offset="100%"></stop>
        </linearGradient>
        <linearGradient x1="50%" y1="-42.8722913%" x2="50%" y2="100%" id="linearGradient-5">
            <stop stop-color="#626262" offset="0%"></stop>
            <stop stop-color="#747474" stop-opacity="0" offset="100%"></stop>
        </linearGradient>
        <linearGradient x1="50%" y1="0%" x2="50%" y2="116.86621%" id="linearGradient-6">
            <stop stop-color="#7B7B7B" offset="0%"></stop>
            <stop stop-color="#FAFAFA" stop-opacity="0" offset="100%"></stop>
        </linearGradient>
        <linearGradient x1="62.0317227%" y1="50%" x2="15.1255325%" y2="49.382716%" id="linearGradient-7">
            <stop stop-color="#4B515A" offset="0%"></stop>
            <stop stop-color="#616266" stop-opacity="0.280808669" offset="100%"></stop>
        </linearGradient>
        <filter x="-13.3%" y="-120.0%" width="126.7%" height="340.0%" filterUnits="objectBoundingBox" id="filter-8">
            <feGaussianBlur stdDeviation="1" in="SourceGraphic"></feGaussianBlur>
        </filter>
        <linearGradient x1="62.0317227%" y1="50%" x2="15.1255325%" y2="49.7119438%" id="linearGradient-9">
            <stop stop-color="#4B515A" offset="0%"></stop>
            <stop stop-color="#616266" stop-opacity="0.280808669" offset="100%"></stop>
        </linearGradient>
        <filter x="-6.8%" y="-89.2%" width="113.5%" height="278.4%" filterUnits="objectBoundingBox" id="filter-10">
            <feGaussianBlur stdDeviation="1.12337662" in="SourceGraphic"></feGaussianBlur>
        </filter>
        <linearGradient x1="29.3835287%" y1="13.6024446%" x2="42.3521588%" y2="83.4443268%" id="linearGradient-11">
            <stop stop-color="#888D9B" offset="0%"></stop>
            <stop stop-color="#DDDFE5" offset="100%"></stop>
            <stop stop-color="#D4D7E2" offset="100%"></stop>
        </linearGradient>
        <linearGradient x1="116.944127%" y1="75.2382842%" x2="38.8868782%" y2="50%" id="linearGradient-12">
            <stop stop-color="#FBFCFF" offset="0%"></stop>
            <stop stop-color="#A4ABB6" offset="100%"></stop>
        </linearGradient>
        <path d="M35.7788232,0 C55.5389216,0 71.5576463,16.0071129 71.5576463,35.7528873 C71.5576463,55.4986617 55.5389216,71.5057746 35.7788232,71.5057746 C16.0187248,71.5057746 0,55.4986617 0,35.7528873 C0,16.0071129 16.0187248,0 35.7788232,0 Z M35.7788232,13.5010903 C23.4805801,13.5010903 13.5108843,23.4635592 13.5108843,35.7528873 C13.5108843,48.0422154 23.4805801,58.0046843 35.7788232,58.0046843 C48.0770662,58.0046843 58.0467621,48.0422154 58.0467621,35.7528873 C58.0467621,23.4635592 48.0770662,13.5010903 35.7788232,13.5010903 Z" id="path-13"></path>
        <linearGradient x1="23.7511675%" y1="5.91184403%" x2="95.8641053%" y2="50%" id="linearGradient-15">
            <stop stop-color="#F3F3F3" offset="0%"></stop>
            <stop stop-color="#FFFFFF" offset="53.3502094%"></stop>
            <stop stop-color="#F5F5F5" offset="100%"></stop>
        </linearGradient>
        <linearGradient x1="-10.6501417%" y1="44.7824774%" x2="110.986056%" y2="36.7045538%" id="linearGradient-16">
            <stop stop-color="#F5F6FB" offset="0%"></stop>
            <stop stop-color="#ACB5C3" offset="100%"></stop>
        </linearGradient>
        <linearGradient x1="-40.4803267%" y1="38.1935654%" x2="69.0028605%" y2="75.1294147%" id="linearGradient-17">
            <stop stop-color="#77859B" offset="0%"></stop>
            <stop stop-color="#D1D4E0" offset="71.134366%"></stop>
            <stop stop-color="#F3F3F4" offset="100%"></stop>
        </linearGradient>
        <radialGradient cx="36.0111857%" cy="0%" fx="36.0111857%" fy="0%" r="132.054723%" gradientTransform="translate(0.360112,0.000000),scale(1.000000,0.739032),rotate(99.944846),scale(1.000000,0.883837),translate(-0.360112,-0.000000)" id="radialGradient-18">
            <stop stop-color="#F4F4F5" offset="0%"></stop>
            <stop stop-color="#F4F4F5" offset="0%"></stop>
            <stop stop-color="#C5C6CB" offset="75.9533435%"></stop>
            <stop stop-color="#D2D4DB" offset="100%"></stop>
        </radialGradient>
        <radialGradient cx="36.0111857%" cy="0%" fx="36.0111857%" fy="0%" r="186.38818%" gradientTransform="translate(0.360112,0.000000),scale(1.000000,0.519636),rotate(97.028141),scale(1.000000,0.883837),translate(-0.360112,-0.000000)" id="radialGradient-19">
            <stop stop-color="#F4F4F5" offset="0%"></stop>
            <stop stop-color="#C5C6CB" offset="75.9533435%"></stop>
            <stop stop-color="#D2D4DB" offset="100%"></stop>
        </radialGradient>
        <linearGradient x1="86.9273295%" y1="46.3201583%" x2="3.37304905%" y2="54.1467227%" id="linearGradient-20">
            <stop stop-color="#A9ABB4" offset="0%"></stop>
            <stop stop-color="#DEDFE3" offset="100%"></stop>
        </linearGradient>
        <radialGradient cx="55.1270353%" cy="39.2622821%" fx="55.1270353%" fy="39.2622821%" r="83.3874456%" gradientTransform="translate(0.551270,0.392623),scale(1.000000,0.803630),rotate(72.975311),scale(1.000000,0.883837),translate(-0.551270,-0.392623)" id="radialGradient-21">
            <stop stop-color="#F7F7F7" offset="0%"></stop>
            <stop stop-color="#C5C6CB" offset="75.9533435%"></stop>
            <stop stop-color="#D2D4DB" offset="100%"></stop>
        </radialGradient>
        <radialGradient cx="20.5607238%" cy="65.881146%" fx="20.5607238%" fy="65.881146%" r="187.745556%" gradientTransform="translate(0.205607,0.658811),scale(1.000000,0.515823),rotate(96.977075),scale(1.000000,0.883837),translate(-0.205607,-0.658811)" id="radialGradient-22">
            <stop stop-color="#F4F4F5" offset="0%"></stop>
            <stop stop-color="#C5C6CB" offset="75.9533435%"></stop>
            <stop stop-color="#D2D4DB" offset="100%"></stop>
        </radialGradient>
        <linearGradient x1="84.4833567%" y1="-35.7351011%" x2="24.9784861%" y2="78.1242678%" id="linearGradient-23">
            <stop stop-color="#FFFFFF" offset="0%"></stop>
            <stop stop-color="#E0E0E0" offset="100%"></stop>
        </linearGradient>
        <radialGradient cx="32.0058469%" cy="31.1422445%" fx="32.0058469%" fy="31.1422445%" r="157.305053%" gradientTransform="translate(0.320058,0.311422),scale(0.717561,1.000000),rotate(32.857222),scale(1.000000,0.691289),translate(-0.320058,-0.311422)" id="radialGradient-24">
            <stop stop-color="#F4F4F5" offset="0%"></stop>
            <stop stop-color="#B6B7BD" offset="80.5199064%"></stop>
            <stop stop-color="#D2D4DB" offset="100%"></stop>
        </radialGradient>
        <path d="M13.1857502,0 L24.4201091,0.0908658983 C29.4224233,0.734626089 32.8224005,2.23881049 34.8732163,4.53120229 C36.5641083,6.4212731 37.2887201,8.7565059 37.3145725,11.6130059 L37.3152875,11.7850221 L37.3133524,14.7643142 C37.3112856,18.2927245 36.2855703,21.0279594 33.7797953,23.0671439 C31.9774346,24.533894 29.4456075,25.5809174 26.0897552,26.1807219 L25.7270422,26.2432741 C25.4221465,26.2939728 25.1106548,26.3410985 24.7924998,26.3846316 L24.4075111,26.4351455 L24.0160998,26.4822031 C23.8187842,26.5048665 23.6190504,26.526231 23.4168839,26.5462923 L23.0093029,26.5846759 L22.595209,26.6195769 L22.174576,26.6509877 C21.8213169,26.6757069 21.4612194,26.6967827 21.0942164,26.7141955 L20.6504937,26.7333313 L20.2001158,26.7489431 L19.7430568,26.7610233 L19.279291,26.7695644 C19.045727,26.772949 18.8096383,26.7750036 18.5710102,26.775724 L18.3315351,26.7759995 C18.0950587,26.7759995 17.8611069,26.7742535 17.6296662,26.7712705 L17.1701289,26.7634324 C16.5618659,26.7504875 15.9713948,26.7275736 15.3984575,26.694781 L14.9720381,26.6683357 C14.9015147,26.6636199 14.8312644,26.6587501 14.7612865,26.6537265 L14.3446844,26.6217404 C14.2069042,26.610464 14.0702098,26.5985737 13.9345971,26.5860709 L13.5310002,26.5467267 C13.3308203,26.5261373 13.1330653,26.504173 12.9377216,26.4808385 L12.550245,26.4323443 C12.2940652,26.3987989 12.0421559,26.3628233 11.7944849,26.3244289 L11.426153,26.2650247 C7.95712097,25.6834773 5.345441,24.6119105 3.49774008,23.0830316 C1.07470865,21.0780957 0.0315072346,18.3822399 0.000700477323,14.9854996 L0,14.8178817 L0.00193453103,11.6888292 C0.00567877769,5.18734631 3.68895047,1.13845082 12.904787,0.0326090097 L13.1857502,0 Z" id="path-25"></path>
        <linearGradient x1="76.9970546%" y1="50%" x2="7.1276009e-12%" y2="69.6875067%" id="linearGradient-27">
            <stop stop-color="#96979E" stop-opacity="0" offset="0%"></stop>
            <stop stop-color="#B8B8BA" offset="100%"></stop>
        </linearGradient>
        <path d="M18.2698044,4.36019344 C6.50869301,4.35221467 4.19871694,8.85772212 4.1958101,13.3632296 L4.19435119,15.8127336 C4.19144982,20.3267411 6.49561219,24.8117485 18.2567235,24.8202696 C30.6355403,24.8282485 32.8273045,20.285741 32.8302114,15.7702335 L32.8316703,13.4377297 C32.8340872,9.62022338 31.2333823,5.69021688 22.9987633,4.63471514 C21.6170411,4.45771485 20.048796,4.36121469 18.2698044,4.36019344 Z" id="path-28"></path>
        <linearGradient x1="36.0886619%" y1="27.6749802%" x2="59.3456424%" y2="73.0973907%" id="linearGradient-30">
            <stop stop-color="#E9EAEE" offset="0%"></stop>
            <stop stop-color="#FCFCFC" offset="28.865634%"></stop>
            <stop stop-color="#C6CAD0" offset="100%"></stop>
        </linearGradient>
        <linearGradient x1="36.0886619%" y1="27.6749802%" x2="59.3456424%" y2="73.0973907%" id="linearGradient-31">
            <stop stop-color="#E9EAEE" offset="0%"></stop>
            <stop stop-color="#F3F3F3" offset="28.865634%"></stop>
            <stop stop-color="#C6CAD0" offset="100%"></stop>
        </linearGradient>
        <linearGradient x1="35.6692378%" y1="13.6301387%" x2="56.8894431%" y2="82.4255685%" id="linearGradient-32">
            <stop stop-color="#E3E5ED" offset="0%"></stop>
            <stop stop-color="#E8E9ED" offset="28.865634%"></stop>
            <stop stop-color="#B4B9C2" offset="100%"></stop>
        </linearGradient>
    </defs>
    <g id="页面-1" stroke="none" stroke-width="1" fill="none" fill-rule="evenodd">
        <g id="缺省图-copy" transform="translate(-1091.000000, -610.000000)">
            <g id="暂无搜索-1" transform="translate(1091.000000, 610.000000)">
                <g id="编组-2">
                    <g id="编组-6" transform="translate(63.250000, 88.516573) scale(-1, 1) translate(-63.250000, -88.516573) translate(0.000000, 76.025360)">
                        <path d="M110.861756,0.00113211523 L110.957568,0.00240320263 C112.074535,0.100125215 113.490508,3.32662144 113.2378,6.21508293 C112.985092,9.10354441 112.425053,10.6709413 110.042429,10.4624887 L110.107745,10.467 L109.566702,15.6750286 L108.574032,15.4658776 L109.509406,10.3856727 C107.562404,9.98170758 107.027902,8.35226597 107.260632,5.69214847 C107.51334,2.80368699 109.8406,-0.09531881 110.957568,0.00240320263 Z" id="形状结合" fill="url(#linearGradient-1)" opacity="0.336830502"></path>
                        <g id="编组-5" opacity="0.336830502" transform="translate(23.535611, 8.561792) scale(-1, 1) rotate(-5.000000) translate(-23.535611, -8.561792) translate(21.773435, 3.895509)" fill="url(#linearGradient-3)">
                            <path d="M2.18048307,0.00143077927 C2.83033334,0.0596130153 3.65414418,1.98059754 3.50711922,3.70032365 C3.36009425,5.42004976 3.03425901,6.35330202 1.64805793,6.22911719 L1.686,6.231 L1.3712791,9.33256615 L0.7937452,9.20804227 L1.33833851,6.18346996 C0.205253105,5.943113 -0.105807595,4.97293824 0.0296034406,3.3889794 C0.176635677,1.66925392 1.53063267,-0.0567500365 2.18048307,0.00143077927 Z" id="形状结合"></path>
                        </g>
                        <g id="编组-5" transform="translate(15.334011, 10.979490) scale(-1, 1) translate(-15.334011, -10.979490) translate(12.894528, 3.981151)">
                            <path d="M2.67383592,7.24755951 C4.29214144,7.24724335 4.57748141,6.16070796 4.57797966,4.20448161 C4.57847759,2.24825525 3.43429685,0.163244531 2.67563965,0.163437141 C1.91698245,0.163629752 0.518716853,2.24928596 0.518218419,4.20551231 C0.517720677,6.16173867 1.0555304,7.24787553 2.67383592,7.24755951 Z" id="椭圆形" fill="url(#linearGradient-4)" opacity="0.190370106" transform="translate(2.548099, 3.705498) rotate(5.000000) translate(-2.548099, -3.705498) "></path>
                            <path d="M2.53593377,3.42293389 C3.29172083,3.48886335 4.24982696,5.66566189 4.07883457,7.61440082 C3.90784185,9.56313972 3.52888988,10.6206715 1.91671495,10.4799418 L1.961,10.4823125 L1.59481577,13.9966788 L0.923133952,13.8555723 L1.55607556,10.4281285 C0.23862887,10.155619 -0.123043573,9.05629187 0.0344321089,7.2615961 C0.205425007,5.31285722 1.7801467,3.35700444 2.53593377,3.42293389 Z" id="形状结合" fill="url(#linearGradient-5)" opacity="0.211518061"></path>
                        </g>
                        <path d="M1.14321002,23.9961247 C13.071978,12.0258505 32.9403715,6.02128406 60.7483905,5.98242537 C88.5564096,5.94380222 110.473613,12.2771356 126.5,24.9824254 L121.496781,24.9824254 L0,24.9824254 L1.14321002,23.9961247 Z" id="矩形" fill="url(#linearGradient-6)" opacity="0.171837216"></path>
                    </g>
                    <ellipse id="椭圆形" fill="url(#linearGradient-7)" opacity="0.216021583" filter="url(#filter-8)" cx="38.75" cy="93.75" rx="11.25" ry="1.25"></ellipse>
                    <g id="编组-20" opacity="0.496535" transform="translate(24.500000, 0.000000)">
                        <g id="编组-14">
                            <path d="M53.7933355,81.5065822 C66.6443086,81.5065822 77.0620807,80.7230172 77.0620807,79.7564408 C77.0620807,79.5134708 81.2862756,78.2166024 80.0965481,78.0062995 C76.5533353,77.3799815 63.4139368,78.0062995 53.7933355,78.0062995 C40.9423625,78.0062995 30.5245904,78.7898645 30.5245904,79.7564408 C30.5245904,80.7230172 40.9423625,81.5065822 53.7933355,81.5065822 Z" id="椭圆形" fill="url(#linearGradient-9)" opacity="0.125353859" filter="url(#filter-10)"></path>
                            <g id="编组-12">
                                <path d="M59.3615295,65.6263107 L74.7543494,79.5004519 C75.9932133,80.6170877 77.9027231,80.5180022 79.0193589,79.2791382 C79.020595,79.2777668 79.0218299,79.2763942 79.0230634,79.2750206 L83.9469935,73.791923 C85.0613551,72.5510131 84.9587675,70.6416883 83.7178576,69.5273266 C83.7048772,69.51567 83.691796,69.504126 83.6786156,69.4926961 L67.9184803,55.8256841 L67.9184803,55.8256841 L59.3615295,65.6263107 Z" id="路径-89" fill="url(#linearGradient-11)"></path>
                                <path d="M65.878785,51.9568294 L68.2987311,54.2759467 C68.7874654,54.7453437 69.0078244,55.4289403 68.8848612,56.0953295 C68.5838378,57.7285123 67.5818124,59.4838129 65.878785,61.3612314 C64.0552591,63.3714875 61.8642581,65.0408471 59.305782,66.3693104 C58.562735,66.7537602 57.6593381,66.6387995 57.0382221,66.0783149 L54.5220354,63.8236402 L54.5220354,63.8236402 L65.878785,51.9568294 Z" id="路径-88" fill="url(#linearGradient-12)"></path>
                                <g id="编组-11">
                                    <mask id="mask-14" fill="white">
                                        <use xlink:href="#path-13"></use>
                                    </mask>
                                    <use id="形状结合" fill="#DEDDDD" xlink:href="#path-13"></use>
                                    <ellipse id="椭圆形" fill="url(#linearGradient-15)" mask="url(#mask-14)" cx="35.2784201" cy="35.7528873" rx="35.7788232" ry="35.7528873"></ellipse>
                                    <ellipse id="椭圆形" fill="url(#linearGradient-16)" mask="url(#mask-14)" cx="34.7780169" cy="37.2530084" rx="35.7788232" ry="35.7528873"></ellipse>
                                    <ellipse id="椭圆形" fill="url(#linearGradient-17)" mask="url(#mask-14)" cx="35.7788232" cy="36.1529196" rx="26.0209623" ry="26.0020998"></ellipse>
                                </g>
                            </g>
                        </g>
                    </g>
                    <g id="编组-14" transform="translate(15.318379, 26.945560)">
                        <g id="编组-23" transform="translate(12.923131, 48.355665) rotate(7.000000) translate(-12.923131, -48.355665) translate(7.715082, 36.601528)">
                            <path d="M7.20922245,0.546289058 C8.14165963,-0.363119175 9.30372724,0.0464686074 9.85894989,0.461033063 C10.4141725,0.875597519 10.5085715,1.7716374 10.3416985,2.53616215 C10.2304499,3.04584532 8.36918197,5.82600554 4.75789484,10.8766428 L2.37791229,7.68258233 C4.97716095,3.53132564 6.58759767,1.15256121 7.20922245,0.546289058 Z" id="路径-33" fill="url(#radialGradient-18)"></path>
                            <path d="M5.92853968,8.99365205 C6.43476541,14.0514736 6.72817558,16.7630375 6.80877017,17.128344 C6.93408505,17.6963516 9.14689598,20.0860918 8.270338,21.2305196 C7.39378001,22.3749474 2.37657724,25.3835291 0.621249788,21.82041 C-0.157612779,20.2394057 -0.255120222,17.1668605 0.621249788,12.7353624 C0.831878561,11.670286 1.37388101,9.93715684 2.24725713,7.53597489 C2.7478106,7.1489417 3.41125264,7.09477071 4.23758323,7.37346192 C5.47707911,7.79149874 5.91001869,8.80860444 5.92853968,8.99365205 Z" id="路径-35" fill="url(#radialGradient-19)"></path>
                        </g>
                        <g id="编组-8" transform="translate(34.730841, 36.906739) rotate(-11.000000) translate(-34.730841, -36.906739) translate(13.274337, 15.574033)">
                            <g id="编组-10" transform="translate(11.873754, 28.508030) scale(-1, 1) rotate(7.000000) translate(-11.873754, -28.508030) translate(1.505886, 15.517343)">
                                <path d="M14.3161121,0.469182364 C14.1984705,0.433805487 14.1120622,0.409889532 14.0568873,0.397434499 C13.8935443,0.360561915 12.856036,0.0727955201 12.3477537,0.0261309568 C10.0383931,-0.185887666 9.2689412,0.956969015 7.84516096,1.12335648 C6.89597413,1.23428145 5.42884341,1.38330719 3.44376881,1.5704337 L4.38258545,3.3165655 L14.1221542,3.9562523 L14.3161121,0.469182364 Z" id="路径-4" fill="url(#linearGradient-20)"></path>
                                <path d="M19.347993,10.6952012 C20.9918201,18.5069143 21.4356456,23.5265296 19.2343466,25.3514726 C17.3363926,26.9249334 9.8242289,25.8758937 4.79594141,18.4515653 C-0.0199353358,11.3408639 -0.000358875684,7.39303659 -1.42108547e-14,6.76251903 C0.00229096031,3.59940908 1.17322429,2.25801397 3.62810988,1.41203024 C3.84112816,1.33862153 9.11842364,3.61738934 12.5543896,2.26018505 C14.9151401,1.32769019 12.8722639,0.101895763 13.3554777,0.182569652 C15.1586595,0.483615869 16.2764335,1.27767045 17.0677429,2.44987291 C17.9155572,3.70577871 18.9200247,8.6614316 19.347993,10.6952012 Z" id="Stroke-11" fill="url(#radialGradient-21)"></path>
                                <path d="M9.08648968,7.24113627 C9.48084544,5.5518312 12.5241754,5.13426973 14.1946894,4.98489322 C15.6210793,4.85734615 17.4178245,5.03122025 17.8560485,7.54756055 C18.5458977,11.5087667 17.1123555,17.7948109 14.4217666,19.2542501 C11.7311778,20.7136894 7.98817397,11.9460004 9.08648968,7.24113627 Z" id="路径-32" stroke="#AAAAAA" stroke-width="0.305960793" opacity="0.502024333" transform="translate(13.459012, 12.185354) rotate(-23.000000) translate(-13.459012, -12.185354) "></path>
                                <g id="编组-5" transform="translate(11.579331, 6.248581) rotate(-5.000000) translate(-11.579331, -6.248581) translate(6.588651, 3.248581)">
                                    <path d="M5.98548751,1.57209754 C7.84952003,0.140072213 8.99820813,-0.313628066 9.4315518,0.210996707 C10.0815673,0.997933866 10.2432485,3.83557489 9.4315518,4.70444298 C8.8904207,5.28368837 7.7417326,4.89448188 5.98548751,3.53682352 L5.98548751,1.57209754 Z M4.37320641,1.53615529 C1.99462967,0.594724612 0.612521751,0.485795539 0.226882637,1.20936807 C-0.351576033,2.29472686 0.225027513,5.27656924 1.40159609,5.89120993 C2.18597514,6.30097038 3.25667097,5.55320131 4.6136836,3.6479027 L4.37320641,1.53615529 Z" id="形状结合" fill="#7A7C85"></path>
                                    <path d="M4.50500026,2.20477987 C4.66690769,2.17688361 4.3962977,2.1358 3.69317029,2.08152905 C2.99004287,2.0272581 2.2736505,1.99215984 1.54399316,1.97623427 C2.46305216,2.19403559 3.10989972,2.35797558 3.48453587,2.46805424 C3.85917201,2.57813289 4.19932681,2.63379652 4.50500026,2.63504511 C4.34825383,2.64990862 4.1328954,2.80364514 3.85892496,3.09625467 C3.58495452,3.38886419 3.32429958,3.69073379 3.07696015,4.00186346 C3.60455067,3.6577292 3.93745508,3.43979636 4.07567339,3.34806494 C4.2138917,3.25633353 4.38526503,3.17239677 4.58979338,3.09625467 L5.7608029,2.75527723 L7.74624347,3.19288068 C7.00824423,2.86664375 6.57409458,2.68069856 6.44379451,2.63504511 C6.34391284,2.6000494 6.1754047,2.51930951 6.02901747,2.50777833 C5.99929654,2.50543716 5.96768307,2.52217235 5.93417707,2.55798391 L8.37334497,1.50186346 C7.52212681,1.64454906 6.93456009,1.76071493 6.61064479,1.85036107 C6.2867295,1.9400072 6.02768834,2.0581468 5.83352134,2.20477987 L5.23025185,2.46805424 L4.50500026,2.20477987 Z" id="路径-2" fill="#595B65" opacity="0.657323201"></path>
                                    <path d="M4.2756885,1.67194385 C4.53658017,1.36006197 6.03218268,1.45304346 6.17194444,1.67194385 C6.3117062,1.89084425 6.3117062,3.44542766 6.10963739,3.66281313 C5.90756857,3.88019861 4.77124778,4.07624315 4.52711772,3.90801377 C4.28298766,3.73978439 4.01479683,1.98382574 4.2756885,1.67194385 Z" id="路径-8" fill="#83848C"></path>
                                </g>
                            </g>
                            <g id="编组-15" transform="translate(29.595535, 15.714405) rotate(16.000000) translate(-29.595535, -15.714405) translate(19.607777, 2.230662)">
                                <g id="编组-23" transform="translate(9.987758, 13.483743) scale(-1, -1) rotate(20.000000) translate(-9.987758, -13.483743) translate(3.756121, 1.402774)" fill="url(#radialGradient-22)">
                                    <path d="M7.22295567,9.57067752 C6.65881372,11.7144531 7.78279211,17.4698411 7.87729092,17.8395255 C8.02422521,18.4143403 8.90557892,21.8869681 7.87779663,23.0451111 C6.85001433,24.2032542 2.79765219,25.3094175 0.739494597,21.7035965 C-0.173737808,20.1036449 -0.730605324,11.1916157 2.10993035,7.13659039 C4.95046601,3.08156511 8.10706999,0.815306739 10.1056295,0.0383507832 C10.9815996,-0.302189571 12.2544542,1.72434562 12.4548108,2.1994523 C12.6940281,2.76670947 7.78709763,7.42690197 7.22295567,9.57067752 Z" id="路径-35"></path>
                                </g>
                                <path d="M9.54691092,6.81247547 C8.86335817,7.95382112 8.87133163,8.4924062 9.48355142,9.79219209 C10.0957712,11.091978 10.8510237,10.2054909 11.7826557,9.62434563 C12.7142877,9.0432004 13.4623761,6.88607835 13.0786245,5.91610575 C12.6948729,4.94613315 10.2304637,5.67112982 9.54691092,6.81247547 Z" id="路径-78" fill="url(#linearGradient-23)" transform="translate(11.105249, 7.963577) scale(-1, 1) rotate(-20.000000) translate(-11.105249, -7.963577) "></path>
                            </g>
                        </g>
                        <g id="编组-12" transform="translate(21.339264, 18.413320) rotate(-12.000000) translate(-21.339264, -18.413320) translate(2.681621, 3.554440)">
                            <g id="编组-3" transform="translate(-0.000000, 2.941761)">
                                <mask id="mask-26" fill="white">
                                    <use xlink:href="#path-25"></use>
                                </mask>
                                <use id="形状结合" fill="url(#radialGradient-24)" xlink:href="#path-25"></use>
                                <polygon id="路径-79" fill="url(#linearGradient-27)" mask="url(#mask-26)" points="24.1220131 2.13811655 27.8784755 1.50025254 27.8784755 -0.179181681 23.6676408 -0.504161738"></polygon>
                                <mask id="mask-29" fill="white">
                                    <use xlink:href="#path-28"></use>
                                </mask>
                                <use id="Fill-19" fill="#8B8D96" xlink:href="#path-28"></use>
                                <path d="M13.4776082,16.1868209 C13.5481309,16.0183999 15.8865538,14.0298017 18.4514328,13.5531374 C21.0163119,13.0764731 24.0444897,14.2788316 23.8946489,14.4853765 C23.744808,14.6919215 21.3263309,14.360715 18.5426242,14.8667568 C15.7589176,15.3727987 13.4070855,16.3552418 13.4776082,16.1868209 Z" id="路径-5" fill="#FFFFFF" mask="url(#mask-29)" transform="translate(18.688029, 14.824147) rotate(10.000000) translate(-18.688029, -14.824147) "></path>
                            </g>
                            <path d="M13.5094716,4.9128559 C15.4409257,4.6739971 17.2640592,4.5545677 18.9788721,4.5545677 C20.6936851,4.5545677 22.4073564,4.6739971 24.1198861,4.9128559 C24.122722,4.32205416 24.122722,3.90328595 24.1198861,3.65655127 C24.1035603,2.23614684 23.7992735,1.34205731 22.8168347,0.745438822 C21.9146386,0.197550339 20.2978022,0.0167396003 18.803724,0.00103596067 C17.2214717,-0.0155944408 15.5983484,0.165216298 14.7039964,0.745438822 C13.8045536,1.32896406 13.5141617,2.19212287 13.5094716,3.5636736 C13.5085684,3.82778463 13.5085684,4.27751206 13.5094716,4.9128559 Z" id="路径-74" fill="#FFFFFF"></path>
                            <path d="M14.0300801,5.0000254 C15.7840903,4.7831107 17.4397314,4.67465335 18.9970034,4.67465335 C20.5542754,4.67465335 22.1105107,4.7831107 23.6657092,5.0000254 C23.6682846,4.46350098 23.6682846,4.08320527 23.6657092,3.85913826 C23.6508833,2.56922727 23.3745514,1.7572783 22.4823699,1.21547153 C21.6630591,0.717917905 20.1947625,0.553718362 18.8379462,0.539457426 C17.4010564,0.52435487 15.9270504,0.688554413 15.1148631,1.21547153 C14.2980528,1.74538794 14.0343394,2.52924781 14.0300801,3.77479332 C14.0292599,4.0146403 14.0292599,4.42305099 14.0300801,5.0000254 Z" id="路径-74" fill="#7A7C85"></path>
                        </g>
                    </g>
                </g>
                <g id="编组-13" transform="translate(40.946229, 35.017611)">
                    <path d="M0.999346071,10.8417356 L7.24388776,9.12744463 L7.24388776,9.12744463 C7.38858973,10.1052503 7.59181244,11.0090499 7.85355588,11.8388435 C8.11529932,12.6686371 8.44756943,13.4624864 8.85036619,14.2203915 L2.48254103,16.1577251 C2.02071577,16.297749 1.52511095,16.0871823 1.30457861,15.6579339 C0.989438017,15.0391256 0.747236247,14.4217539 0.577973304,13.8058187 C0.408251987,13.1882155 0.303004882,12.539815 0.262231987,11.8606171 C0.236093733,11.3892024 0.543240283,10.963741 0.999346071,10.8417356 Z" id="路径-90" fill="url(#linearGradient-30)" transform="translate(4.546630, 12.759758) rotate(4.000000) translate(-4.546630, -12.759758) "></path>
                    <path d="M4.98547885,7.40856813 L16.9374243,4.12744463 L16.9374243,4.12744463 C17.1998047,5.90044774 17.5682976,7.53925957 18.0429031,9.04388014 C18.5175086,10.5485007 19.1199963,11.9879455 19.8503662,13.3622146 L7.66245838,17.0702377 C7.21219302,17.2066947 6.72808622,17.0098853 6.5017814,16.597394 C5.76511179,15.2647588 5.21467657,13.9357914 4.85047575,12.6104917 C4.48616385,11.2847879 4.28568557,9.88082586 4.24904092,8.39860569 C4.23722677,7.93832583 4.54119913,7.52945159 4.98547885,7.40856813 Z" id="路径-90" fill="url(#linearGradient-31)" transform="translate(12.046630, 10.713725) rotate(3.000000) translate(-12.046630, -10.713725) "></path>
                    <path d="M17.4623433,2.29537415 L25.689392,0.239719432 L25.689392,0.239719432 C26.0321427,2.555815 26.5135095,4.69661487 27.1334924,6.66211905 C27.7534754,8.62762324 28.5405124,10.5079876 29.4946036,12.303212 L20.9405799,14.9093734 C20.4926765,15.0470657 20.0094305,14.854761 19.7771353,14.4478006 C18.7515329,12.6315827 17.99061,10.8205775 17.4943666,9.01478503 C16.999601,7.21436991 16.7361529,5.30346176 16.7040221,3.28206057 C16.6963473,2.81673142 17.0106878,2.40761233 17.4623433,2.29537415 Z" id="路径-90" fill="url(#linearGradient-32)"></path>
                    <path d="M27.6499092,12.625329 C28.0641228,12.625329 28.3999092,9.71517985 28.3999092,6.12532898 C28.3999092,2.5354781 28.0124949,-0.0660971509 27.5982814,-0.0660971509 C27.1840678,-0.0660971509 26.8999092,2.5354781 26.8999092,6.12532898 C26.8999092,9.71517985 27.2356957,12.625329 27.6499092,12.625329 Z" id="椭圆形" fill="#E2E2E2" transform="translate(27.649909, 6.279616) rotate(-17.400000) translate(-27.649909, -6.279616) "></path>
                </g>
            </g>
        </g>
    </g>
</svg>