<?xml version="1.0" encoding="UTF-8"?>
<svg width="131.956131px" height="113.851799px" viewBox="0 0 131.956131 113.851799" version="1.1" xmlns="http://www.w3.org/2000/svg" xmlns:xlink="http://www.w3.org/1999/xlink">
    <title>暂无网络-1</title>
    <defs>
        <linearGradient x1="50%" y1="0%" x2="50%" y2="116.86621%" id="linearGradient-1">
            <stop stop-color="#7B7B7B" offset="0%"></stop>
            <stop stop-color="#FAFAFA" stop-opacity="0" offset="100%"></stop>
        </linearGradient>
        <linearGradient x1="50%" y1="0%" x2="50%" y2="100%" id="linearGradient-2">
            <stop stop-color="#626262" offset="0%"></stop>
            <stop stop-color="#ECECEC" stop-opacity="0" offset="100%"></stop>
        </linearGradient>
        <linearGradient x1="50%" y1="0%" x2="50%" y2="100%" id="linearGradient-3">
            <stop stop-color="#626262" offset="0%"></stop>
            <stop stop-color="#ECECEC" stop-opacity="0" offset="100%"></stop>
        </linearGradient>
        <linearGradient x1="50%" y1="0%" x2="50%" y2="100%" id="linearGradient-4">
            <stop stop-color="#626262" offset="0%"></stop>
            <stop stop-color="#ECECEC" stop-opacity="0" offset="100%"></stop>
        </linearGradient>
        <linearGradient x1="62.0317227%" y1="50%" x2="15.1255325%" y2="49.0354938%" id="linearGradient-5">
            <stop stop-color="#4B515A" offset="0%"></stop>
            <stop stop-color="#616266" stop-opacity="0.280808669" offset="100%"></stop>
        </linearGradient>
        <filter x="-16.7%" y="-120.0%" width="133.3%" height="340.0%" filterUnits="objectBoundingBox" id="filter-6">
            <feGaussianBlur stdDeviation="1" in="SourceGraphic"></feGaussianBlur>
        </filter>
        <linearGradient x1="62.0317227%" y1="50%" x2="15.1255325%" y2="49.6903352%" id="linearGradient-7">
            <stop stop-color="#4B515A" offset="0%"></stop>
            <stop stop-color="#616266" stop-opacity="0.280808669" offset="100%"></stop>
        </linearGradient>
        <filter x="-9.2%" y="-117.3%" width="118.5%" height="334.6%" filterUnits="objectBoundingBox" id="filter-8">
            <feGaussianBlur stdDeviation="1" in="SourceGraphic"></feGaussianBlur>
        </filter>
        <path d="M39.5809183,55.9736263 C46.1191836,51.4726927 54.5479318,51.3187891 61.1933339,55.5124761 C61.1933339,55.5124761 61.1933339,55.5124761 61.1933339,55.5124761 C63.5086257,56.9735779 64.2010835,60.0349499 62.7399817,62.3502417 C62.5697561,62.6199846 62.3738935,62.8726685 62.1551187,63.1047795 L61.3756441,63.9317657 L61.3756441,63.9317657 L54.5766486,70.5638469 C52.4373104,72.6506647 49.0230808,72.6472666 46.8879007,70.5561945 L39.573654,63.3930435 L39.573654,63.3930435 L38.8706311,62.647169 C37.1960102,60.8704687 37.2787574,58.0726199 39.0554549,56.3979961 C39.219531,56.2433464 39.3951981,56.1014759 39.5809183,55.9736263 C39.5809183,55.9736263 39.5809183,55.9736263 39.5809183,55.9736263 Z M1.59264015,20.0843974 C29.1444749,-6.40276394 71.125028,-6.6916709 98.9532468,19.2180118 C98.9532468,19.2180118 98.9532468,19.2180118 98.9532468,19.2180118 C101.060512,21.1799981 101.178285,24.4787786 99.2162983,26.5860443 C99.1185321,26.6910498 99.0164729,26.7919746 98.910387,26.8885673 L94.4072739,30.9882322 C92.3616212,32.8506087 89.2405192,32.8696446 87.1723019,31.0323591 C87.1723019,31.0323591 87.1723019,31.0323591 87.1723019,31.0323591 C65.5825267,11.853243 35.6084342,11.9144389 14.0784568,31.2159467 C13.8480983,31.4224618 13.3723943,31.8220371 12.6513447,32.4146726 C11.2899661,33.5379337 9.30541396,33.4671616 8.02513483,32.2522806 L1.08942231,25.663697 C-0.312162585,24.3325186 -0.368792074,22.1171648 0.962668592,20.7158481 C0.977426022,20.7003164 0.992325752,20.6849206 1.00772108,20.6700126 C1.31034831,20.363547 1.50532134,20.168342 1.59264015,20.0843974 Z" id="path-9"></path>
        <linearGradient x1="23.7511675%" y1="27.3711647%" x2="95.8641053%" y2="50%" id="linearGradient-11">
            <stop stop-color="#F3F3F3" offset="0%"></stop>
            <stop stop-color="#FFFFFF" offset="53.3502094%"></stop>
            <stop stop-color="#F5F5F5" offset="100%"></stop>
        </linearGradient>
        <linearGradient x1="4.35333984%" y1="37.7342385%" x2="120.487533%" y2="37.7342385%" id="linearGradient-12">
            <stop stop-color="#ADB5C3" offset="0%"></stop>
            <stop stop-color="#A7AABA" stop-opacity="0.225047292" offset="75.7584152%"></stop>
            <stop stop-color="#F9FAFF" stop-opacity="0.437955203" offset="100%"></stop>
        </linearGradient>
        <path d="M39.0977187,56.6501057 C45.6359841,52.1491721 54.0647322,51.9952684 60.7101343,56.1889554 C60.7101343,56.1889554 60.7101343,56.1889554 60.7101343,56.1889554 C63.0254262,57.6500573 63.717884,60.7114292 62.2567821,63.026721 C62.0865566,63.296464 61.890694,63.5491479 61.6719192,63.7812589 L60.8924445,64.608245 L60.8924445,64.608245 L54.0934491,71.2403263 C51.9541109,73.327144 48.5398812,73.323746 46.4047012,71.2326739 L39.0904544,64.0695228 L39.0904544,64.0695228 L38.3874315,63.3236484 C36.7128107,61.5469481 36.7955578,58.7490993 38.5722554,57.0744755 C38.7363315,56.9198258 38.9119985,56.7779552 39.0977187,56.6501057 C39.0977187,56.6501057 39.0977187,56.6501057 39.0977187,56.6501057 Z M0.143041544,21.0507965 C27.6948763,-5.43636487 69.6754294,-5.72527183 97.5036482,20.1844109 C97.5036482,20.1844109 97.5036482,20.1844109 97.5036482,20.1844109 C99.6109139,22.1463972 99.728686,25.4451777 97.7666997,27.5524433 C97.6689335,27.6574488 97.5668743,27.7583737 97.4607883,27.8549663 L92.9576753,31.9546313 C90.9120226,33.8170078 87.7909206,33.8360436 85.7227033,31.9987581 C85.7227033,31.9987581 85.7227033,31.9987581 85.7227033,31.9987581 C64.1329281,12.8196421 34.1588356,12.8808379 12.6288582,32.1823457 C12.3984997,32.3888608 11.9227957,32.7884362 11.2017461,33.3810717 C9.84036745,34.5043328 7.85581535,34.4335607 6.57553623,33.2186796 L-0.360176299,26.630096 C-1.76176119,25.2989176 -1.81839068,23.0835639 -0.486930014,21.6822472 C-0.472172585,21.6667155 -0.457272855,21.6513197 -0.441877525,21.6364117 C-0.139250292,21.3299461 0.0557227313,21.134741 0.143041544,21.0507965 Z" id="path-13"></path>
        <filter x="-2.5%" y="-3.5%" width="105.0%" height="107.0%" filterUnits="objectBoundingBox" id="filter-14">
            <feGaussianBlur stdDeviation="1.5" in="SourceAlpha" result="shadowBlurInner1"></feGaussianBlur>
            <feOffset dx="0" dy="-2" in="shadowBlurInner1" result="shadowOffsetInner1"></feOffset>
            <feComposite in="shadowOffsetInner1" in2="SourceAlpha" operator="arithmetic" k2="-1" k3="1" result="shadowInnerInner1"></feComposite>
            <feColorMatrix values="0 0 0 0 0.49958346   0 0 0 0 0.543461352   0 0 0 0 0.620247661  0 0 0 1 0" type="matrix" in="shadowInnerInner1"></feColorMatrix>
        </filter>
        <linearGradient x1="36.5909108%" y1="50%" x2="66.7288375%" y2="46.0745489%" id="linearGradient-15">
            <stop stop-color="#D4D8E0" offset="0%"></stop>
            <stop stop-color="#A3AEC2" offset="100%"></stop>
        </linearGradient>
        <path d="M11.215415,25.9174017 C14.8666704,25.187238 14.165386,21.7731284 23.4782699,21.0395415 C29.6868592,20.5504836 38.9149191,24.8715019 51.1624497,34.0025964 L61.2496131,28.083576 C54.1056522,22.1534862 46.6889386,17.519804 38.9994722,14.1825294 C31.3100057,10.8452548 23.7210543,11.4350085 16.232618,15.9517905 L7.34520667,22.9563078 C7.4911753,25.4171462 8.78124475,26.4041775 11.215415,25.9174017 Z" id="path-16"></path>
        <filter x="-4.6%" y="-11.4%" width="109.3%" height="122.8%" filterUnits="objectBoundingBox" id="filter-17">
            <feGaussianBlur stdDeviation="1.5" in="SourceAlpha" result="shadowBlurInner1"></feGaussianBlur>
            <feOffset dx="0" dy="2" in="shadowBlurInner1" result="shadowOffsetInner1"></feOffset>
            <feComposite in="shadowOffsetInner1" in2="SourceAlpha" operator="arithmetic" k2="-1" k3="1" result="shadowInnerInner1"></feComposite>
            <feColorMatrix values="0 0 0 0 0.52512397   0 0 0 0 0.566489676   0 0 0 0 0.621643951  0 0 0 1 0" type="matrix" in="shadowInnerInner1"></feColorMatrix>
        </filter>
        <linearGradient x1="20.3104734%" y1="50%" x2="90.2399852%" y2="82.0388735%" id="linearGradient-18">
            <stop stop-color="#EFF0F1" offset="0%"></stop>
            <stop stop-color="#8D92A2" offset="100%"></stop>
        </linearGradient>
        <path d="M1.55396317,9.65317586 C2.81678073,11.6521153 4.17144277,13.2666294 5.61794928,14.4967181 C6.83124557,15.5284882 8.16221884,16.5312726 9.61086909,17.5050714 L9.60986013,17.5065725 C11.3342074,18.6655427 13.5955953,18.6374009 15.2905674,17.4358789 C20.5474636,13.7060593 26.8764874,13.0181036 34.2778988,15.3723787 C41.4285239,17.6468826 46.7383793,21.5588655 50.207465,27.1083275 C51.4328887,29.0700167 53.9460734,29.7825408 56.0186045,28.7556508 L61.5433457,26.0181672 C63.5236444,25.0390278 64.3337236,22.6394157 63.3533295,20.6597383 C63.1998907,20.3499044 63.0069286,20.0612717 62.7785216,19.8017109 C59.0093117,15.5006565 56.2312032,12.6911812 54.4441961,11.373285 C48.7463513,7.17119317 39.2085255,2.23878993 32.1314229,1.02906267 C19.361496,-1.15376967 9.49787244,0.136041466 2.54055228,4.89849608 L2.53926518,4.89661354 C0.985176416,5.95914227 0.549974772,8.06064121 1.55426278,9.6529869 Z" id="path-19"></path>
        <linearGradient x1="23.7511675%" y1="40.4913548%" x2="95.8641053%" y2="50%" id="linearGradient-21">
            <stop stop-color="#F3F3F3" offset="0%"></stop>
            <stop stop-color="#FFFFFF" offset="53.3502094%"></stop>
            <stop stop-color="#F5F5F5" offset="100%"></stop>
        </linearGradient>
        <linearGradient x1="15.7917591%" y1="44.9866757%" x2="107.526952%" y2="48.3217355%" id="linearGradient-22">
            <stop stop-color="#F9FAFF" offset="0%"></stop>
            <stop stop-color="#E4E7F4" offset="24.2415848%"></stop>
            <stop stop-color="#B1BAC9" offset="100%"></stop>
        </linearGradient>
        <linearGradient x1="80.5701219%" y1="43.2466605%" x2="39.1085873%" y2="62.9106457%" id="linearGradient-23">
            <stop stop-color="#4B515A" offset="0%"></stop>
            <stop stop-color="#616266" stop-opacity="0.280808669" offset="100%"></stop>
        </linearGradient>
        <filter x="-14.6%" y="-28.8%" width="129.3%" height="157.6%" filterUnits="objectBoundingBox" id="filter-24">
            <feGaussianBlur stdDeviation="1" in="SourceGraphic"></feGaussianBlur>
        </filter>
        <radialGradient cx="68.6739054%" cy="31.0038759%" fx="68.6739054%" fy="31.0038759%" r="80.3975568%" gradientTransform="translate(0.686739,0.310039),scale(1.000000,0.837730),rotate(67.067906),scale(1.000000,1.299773),translate(-0.686739,-0.310039)" id="radialGradient-25">
            <stop stop-color="#F4F4F5" offset="0%"></stop>
            <stop stop-color="#F2F2F3" offset="16.9440864%"></stop>
            <stop stop-color="#C5C6CB" offset="75.9533435%"></stop>
            <stop stop-color="#D2D4DB" offset="100%"></stop>
        </radialGradient>
        <radialGradient cx="59.5200546%" cy="27.7338612%" fx="59.5200546%" fy="27.7338612%" r="176.803417%" gradientTransform="translate(0.595201,0.277339),scale(0.866643,1.000000),rotate(160.151496),scale(1.000000,1.298249),translate(-0.595201,-0.277339)" id="radialGradient-26">
            <stop stop-color="#FFFFFF" offset="0%"></stop>
            <stop stop-color="#DBDBDB" offset="36.6320203%"></stop>
            <stop stop-color="#D2D3DA" offset="66.5551528%"></stop>
            <stop stop-color="#F1F1F1" offset="100%"></stop>
        </radialGradient>
        <linearGradient x1="86.9273295%" y1="45.9377991%" x2="3.37304905%" y2="54.5775938%" id="linearGradient-27">
            <stop stop-color="#A9ABB4" offset="0%"></stop>
            <stop stop-color="#DEDFE3" offset="100%"></stop>
        </linearGradient>
        <radialGradient cx="63.0139488%" cy="27.5278495%" fx="63.0139488%" fy="27.5278495%" r="86.4922413%" gradientTransform="translate(0.630139,0.275278),scale(1.000000,0.738581),rotate(75.364692),scale(1.000000,0.883837),translate(-0.630139,-0.275278)" id="radialGradient-28">
            <stop stop-color="#F7F7F7" offset="0%"></stop>
            <stop stop-color="#C5C6CB" offset="75.9533435%"></stop>
            <stop stop-color="#D2D4DB" offset="100%"></stop>
        </radialGradient>
        <radialGradient cx="86.8088243%" cy="31.4633649%" fx="86.8088243%" fy="31.4633649%" r="99.8204758%" gradientTransform="translate(0.868088,0.314634),scale(1.000000,0.777908),rotate(150.417932),scale(1.000000,0.883837),translate(-0.868088,-0.314634)" id="radialGradient-29">
            <stop stop-color="#F4F4F5" offset="0%"></stop>
            <stop stop-color="#F4F4F5" offset="6.56908063%"></stop>
            <stop stop-color="#C5C6CB" offset="87.6238935%"></stop>
            <stop stop-color="#D2D4DB" offset="100%"></stop>
        </radialGradient>
        <radialGradient cx="81.4195%" cy="57.4614874%" fx="81.4195%" fy="57.4614874%" r="105.26677%" gradientTransform="translate(0.814195,0.574615),scale(1.000000,0.527386),rotate(151.673200),scale(1.000000,2.072273),translate(-0.814195,-0.574615)" id="radialGradient-30">
            <stop stop-color="#F7F7F7" offset="0%"></stop>
            <stop stop-color="#C5C6CB" offset="75.9533435%"></stop>
            <stop stop-color="#D2D4DB" offset="100%"></stop>
        </radialGradient>
        <radialGradient cx="-8.12959954e-12%" cy="82.2054634%" fx="-8.12959954e-12%" fy="82.2054634%" r="238.342399%" gradientTransform="translate(-0.000000,0.822055),scale(1.000000,0.514693),rotate(-19.642602),scale(1.000000,1.298249),translate(0.000000,-0.822055)" id="radialGradient-31">
            <stop stop-color="#FFFFFF" offset="0%"></stop>
            <stop stop-color="#DBDBDB" offset="36.6320203%"></stop>
            <stop stop-color="#D2D3DA" offset="66.5551528%"></stop>
            <stop stop-color="#F1F1F1" offset="100%"></stop>
        </radialGradient>
        <radialGradient cx="61.4479719%" cy="61.0328971%" fx="61.4479719%" fy="61.0328971%" r="129.18639%" gradientTransform="translate(0.614480,0.610329),scale(1.000000,0.870786),rotate(-118.401915),scale(1.000000,1.298249),translate(-0.614480,-0.610329)" id="radialGradient-32">
            <stop stop-color="#FFFFFF" offset="0%"></stop>
            <stop stop-color="#DBDBDB" offset="36.6320203%"></stop>
            <stop stop-color="#D2D3DA" offset="66.5551528%"></stop>
            <stop stop-color="#F1F1F1" offset="100%"></stop>
        </radialGradient>
        <radialGradient cx="32.0058469%" cy="31.1422445%" fx="32.0058469%" fy="31.1422445%" r="145.606884%" gradientTransform="translate(0.320058,0.311422),scale(0.771460,1.000000),rotate(43.346621),scale(1.000000,0.691289),translate(-0.320058,-0.311422)" id="radialGradient-33">
            <stop stop-color="#F4F4F5" offset="0%"></stop>
            <stop stop-color="#B6B7BD" offset="80.5199064%"></stop>
            <stop stop-color="#D2D4DB" offset="100%"></stop>
        </radialGradient>
        <path d="M5.13192941,2.79028349 C-1.29356611,7.28610662 -1.56539572,19.5795908 3.64469757,24.6695996 C7.40497604,28.3432095 17.8500269,28.845674 25.7784463,27.8280998 C33.753464,26.804545 36.5482623,21.2979792 36.6661679,15.9060269 C36.7618401,11.5308347 35.1658563,7.25080736 32.5790878,5.34529288 C32.1225067,5.00895743 31.7268556,4.62689406 31.2625941,4.29590819 C24.1020962,-0.809024657 11.166185,-1.43179494 5.13192941,2.79028349 Z" id="path-34"></path>
        <linearGradient x1="97.6648953%" y1="50%" x2="50%" y2="54.9955709%" id="linearGradient-36">
            <stop stop-color="#B8B8BA" offset="0%"></stop>
            <stop stop-color="#96979E" stop-opacity="0" offset="100%"></stop>
        </linearGradient>
        <radialGradient cx="35.1633593%" cy="23.9093152%" fx="35.1633593%" fy="23.9093152%" r="149.427664%" gradientTransform="translate(0.351634,0.239093),scale(0.433900,1.000000),scale(1.000000,0.472530),translate(-0.351634,-0.239093)" id="radialGradient-37">
            <stop stop-color="#F4F4F5" offset="0%"></stop>
            <stop stop-color="#C5C6CB" offset="80.5199064%"></stop>
            <stop stop-color="#D2D4DB" offset="100%"></stop>
        </radialGradient>
        <linearGradient x1="50%" y1="50%" x2="54.0209485%" y2="-31.3253088%" id="linearGradient-38">
            <stop stop-color="#A2ADBE" offset="0%"></stop>
            <stop stop-color="#A7AABA" stop-opacity="0.225047292" offset="75.7584152%"></stop>
            <stop stop-color="#F9FAFF" stop-opacity="0.437955203" offset="100%"></stop>
        </linearGradient>
        <path d="M12.4587325,20.0729341 L13.9320161,20.3116166 L11.6221831,37.0669341 L10.3301831,36.2909341 L12.4587325,20.0729341 Z" id="path-39"></path>
        <filter x="-55.5%" y="-11.8%" width="211.1%" height="123.5%" filterUnits="objectBoundingBox" id="filter-40">
            <feGaussianBlur stdDeviation="1" in="SourceAlpha" result="shadowBlurInner1"></feGaussianBlur>
            <feOffset dx="0" dy="-2" in="shadowBlurInner1" result="shadowOffsetInner1"></feOffset>
            <feComposite in="shadowOffsetInner1" in2="SourceAlpha" operator="arithmetic" k2="-1" k3="1" result="shadowInnerInner1"></feComposite>
            <feColorMatrix values="0 0 0 0 0.49958346   0 0 0 0 0.543461352   0 0 0 0 0.620247661  0 0 0 0.811789773 0" type="matrix" in="shadowInnerInner1"></feColorMatrix>
        </filter>
        <linearGradient x1="11.3524456%" y1="76.5692489%" x2="73.7555382%" y2="19.6444186%" id="linearGradient-41">
            <stop stop-color="#90959C" offset="0%"></stop>
            <stop stop-color="#A7AABA" stop-opacity="0.225047292" offset="75.7584152%"></stop>
            <stop stop-color="#EFF0F6" stop-opacity="0.41101518" offset="100%"></stop>
        </linearGradient>
        <path d="M15.2638949,0 L15.2865905,0.0522082705 C15.2175306,0.0684260241 15.1489177,0.0908014159 15.0814356,0.119609152 C14.8834632,0.204122462 14.7108419,0.338616599 14.5804852,0.509913726 L1.81933577,17.2788911 C1.40375799,17.8249873 1.50956402,18.604578 2.05566017,19.0201558 C2.23334852,19.1553762 2.44419116,19.2402169 2.66601426,19.2657554 L23.6153747,21.6776596 C23.9367144,21.7146555 24.2435121,21.6255632 24.4863027,21.449634 L24.4991855,21.4812941 L23.2019713,22.113364 C22.6218421,22.3960329 21.9735263,22.5086437 21.332056,22.4381634 L1.3836361,20.2463704 C1.10347453,20.2155883 0.836969281,20.1091525 0.612680725,19.9384695 C-0.069939456,19.4189972 -0.202197,18.4445088 0.317275233,17.7618886 L12.4020952,1.88165197 C12.6639868,1.53750942 12.9948505,1.2518416 13.3735057,1.04293591 L15.2638949,0 Z" id="path-42"></path>
        <filter x="-10.2%" y="-11.1%" width="120.4%" height="122.3%" filterUnits="objectBoundingBox" id="filter-43">
            <feGaussianBlur stdDeviation="1.5" in="SourceAlpha" result="shadowBlurInner1"></feGaussianBlur>
            <feOffset dx="0" dy="-2" in="shadowBlurInner1" result="shadowOffsetInner1"></feOffset>
            <feComposite in="shadowOffsetInner1" in2="SourceAlpha" operator="arithmetic" k2="-1" k3="1" result="shadowInnerInner1"></feComposite>
            <feColorMatrix values="0 0 0 0 0.509858464   0 0 0 0 0.543524474   0 0 0 0 0.602439991  0 0 0 1 0" type="matrix" in="shadowInnerInner1"></feColorMatrix>
        </filter>
        <linearGradient x1="68.4154005%" y1="80.8310557%" x2="105.424237%" y2="-9.70535756%" id="linearGradient-44">
            <stop stop-color="#A4ABB6" offset="0%"></stop>
            <stop stop-color="#E7E9F2" stop-opacity="0.225047292" offset="75.7584152%"></stop>
            <stop stop-color="#EFF0F6" stop-opacity="0.41101518" offset="100%"></stop>
            <stop stop-color="#EFF0F6" stop-opacity="0.41101518" offset="100%"></stop>
        </linearGradient>
    </defs>
    <g id="页面-1" stroke="none" stroke-width="1" fill="none" fill-rule="evenodd">
        <g id="缺省图-copy" transform="translate(-1448.049081, -995.500001)">
            <g id="暂无网络-1" transform="translate(1448.049081, 995.500001)">
                <g id="编组-17">
                    <g id="编组-4" transform="translate(70.217346, 101.312989) scale(-1, 1) translate(-70.217346, -101.312989) translate(8.478561, 91.312989)">
                        <path d="M3.0209183,15.9107076 C17.7111394,7.33126288 35.4541667,3.0415405 56.25,3.0415405 C87.44375,3.0415405 101.005534,7.67656228 110.5,10.1248669 C116.829644,11.75707 121.1555,13.9205602 123.477569,16.6153376 L110.5,16.6153376 L2,16.6153376 L3.0209183,15.9107076 Z" id="矩形" fill="url(#linearGradient-1)" opacity="0.171837216"></path>
                        <path d="M8.52942418,20 C13.2400951,20 17.0588484,17.2875723 17.0588484,11.2296786 C17.0588484,5.17178487 12.550175,0.063601872 8.52942418,0.000563566921 C4.50867338,-0.0624747381 0,5.17178487 0,11.2296786 C0,17.2875723 3.81875328,20 8.52942418,20 Z" id="椭圆形" fill="url(#linearGradient-2)" opacity="0.142072405"></path>
                        <path d="M103.955357,14.3902751 C106.100392,14.3902751 107.839286,13.0351773 107.839286,10.2737536 C107.839286,7.51232981 105.786232,5.30248887 103.955357,5.27375356 C102.124482,5.24501825 100.071429,7.51232981 100.071429,10.2737536 C100.071429,13.0351773 101.810323,14.3902751 103.955357,14.3902751 Z" id="椭圆形" fill="url(#linearGradient-3)" opacity="0.128063384"></path>
                        <path d="M113.732143,17.6153376 C118.022212,17.6153376 121.5,15.385774 121.5,10.8423603 C121.5,6.29894666 117.393893,2.6630608 113.732143,2.61578214 C110.070393,2.56850348 105.964286,6.29894666 105.964286,10.8423603 C105.964286,15.385774 109.442074,17.6153376 113.732143,17.6153376 Z" id="椭圆形" fill="url(#linearGradient-4)" opacity="0.128063384"></path>
                    </g>
                    <ellipse id="椭圆形" fill="url(#linearGradient-5)" opacity="0.196022" filter="url(#filter-6)" cx="96.0223074" cy="105.929188" rx="9" ry="1.25"></ellipse>
                    <polygon id="路径-80" fill="url(#linearGradient-7)" opacity="0.13982791" filter="url(#filter-8)" transform="translate(66.155512, 98.400354) scale(-1, 1) translate(-66.155512, -98.400354) " points="55.7530218 97.7504338 49.9055121 99.4211121 82.4055121 99.6791884 82.3586939 98.0085101 70.3483869 97.1215196"></polygon>
                    <g id="编组-18" opacity="0.498696" transform="translate(55.329231, 43.489121) rotate(-9.000000) translate(-55.329231, -43.489121) translate(5.022190, 7.425755)">
                        <g id="WIFI" transform="translate(0.000000, -0.000000)">
                            <mask id="mask-10" fill="white">
                                <use xlink:href="#path-9"></use>
                            </mask>
                            <use id="形状" fill="#CBC9C9" xlink:href="#path-9"></use>
                            <path d="M39.5809183,56.360186 C46.1191836,51.8592524 54.5479318,51.7053487 61.1933339,55.8990357 C61.1933339,55.8990357 61.1933339,55.8990357 61.1933339,55.8990357 C63.5086257,57.3601376 64.2010835,60.4215095 62.7399817,62.7368013 C62.5697561,63.0065442 62.3738935,63.2592281 62.1551187,63.4913392 L61.3756441,64.3183253 L61.3756441,64.3183253 L54.5766486,70.9504066 C52.4373104,73.0372243 49.0230808,73.0338262 46.8879007,70.9427542 L39.573654,63.7796031 L39.573654,63.7796031 L38.8706311,63.0337287 C37.1960102,61.2570283 37.2787574,58.4591796 39.0554549,56.7845558 C39.219531,56.6299061 39.3951981,56.4880355 39.5809183,56.360186 C39.5809183,56.360186 39.5809183,56.360186 39.5809183,56.360186 Z M2.07583969,20.5675969 C29.6276745,-5.9195644 71.6082276,-6.20847137 99.4364464,19.7012114 C99.4364464,19.7012114 99.4364464,19.7012114 99.4364464,19.7012114 C101.543712,21.6631977 101.661484,24.9619782 99.6994979,27.0692438 C99.6017317,27.1742493 99.4996725,27.2751742 99.3935865,27.3717668 L94.8904734,31.4714317 C92.8448207,33.3338083 89.7237188,33.3528441 87.6555014,31.5155586 C87.6555014,31.5155586 87.6555014,31.5155586 87.6555014,31.5155586 C66.0657262,12.3364425 36.0916338,12.3976384 14.5616563,31.6991462 C14.3312979,31.9056613 13.8555938,32.3052366 13.1345443,32.8978722 C11.7731656,34.0211332 9.78861349,33.9503611 8.50833437,32.7354801 L1.57262184,26.1468965 C0.171036951,24.8157181 0.114407461,22.6003643 1.44586813,21.1990477 C1.46062556,21.183516 1.47552529,21.1681201 1.49092062,21.1532121 C1.79354785,20.8467466 1.98852087,20.6515415 2.07583969,20.5675969 Z" id="形状" fill="url(#linearGradient-11)" mask="url(#mask-10)"></path>
                            <g id="形状" mask="url(#mask-10)">
                                <use fill="url(#linearGradient-12)" fill-rule="evenodd" xlink:href="#path-13"></use>
                                <use fill="black" fill-opacity="1" filter="url(#filter-14)" xlink:href="#path-13"></use>
                            </g>
                        </g>
                        <g id="编组-2" transform="translate(20.976082, 24.395371)">
                            <g id="路径-103">
                                <use fill="url(#linearGradient-15)" fill-rule="evenodd" xlink:href="#path-16"></use>
                                <use fill="black" fill-opacity="1" filter="url(#filter-17)" xlink:href="#path-16"></use>
                            </g>
                            <path d="M7.19553003,5.7507726 L1.79722022,11.150373 C0.474449868,12.4689719 -0.155742924,14.3294067 0.0904670096,16.1808373 C0.195286183,16.9682728 0.391191536,17.7021721 0.67818307,18.3825352 C1.17030709,19.5492005 3.13627747,21.6267987 6.57609421,24.6153301 C8.8375914,26.5843599 12.2593447,26.3757483 14.2678798,24.1492651 L20.0348985,17.7468617 L20.0348985,17.7468617 L7.19553003,5.7507726 Z" id="路径-102" fill="url(#linearGradient-18)"></path>
                            <g id="编组-3" transform="translate(5.440337, 0.000000)">
                                <mask id="mask-20" fill="white">
                                    <use xlink:href="#path-19"></use>
                                </mask>
                                <use id="路径-101" fill="#D6CDCD" xlink:href="#path-19"></use>
                                <path d="M2.03716271,10.1363754 C3.29998027,12.1353148 4.6546423,13.7498289 6.10114881,14.9799177 C7.3144451,16.0116877 8.64541837,17.0144721 10.0940686,17.9882709 L10.0930597,17.9897721 C11.8174069,19.1487423 14.0787949,19.1206004 15.7737669,17.9190784 C21.0306632,14.1892588 27.3596869,13.5013031 34.7610984,15.8555783 C41.9117235,18.1300822 47.2215789,22.0420651 50.6906646,27.5915271 C51.9160882,29.5532162 54.429273,30.2657403 56.5018041,29.2388503 L62.0265452,26.5013668 C64.0068439,25.5222273 64.8169231,23.1226153 63.836529,21.1429379 C63.6830902,20.8331039 63.4901281,20.5444712 63.2617211,20.2849104 C59.4925112,15.9838561 56.7144027,13.1743808 54.9273956,11.8564846 C49.2295508,7.6543927 39.6917251,2.72198946 32.6146224,1.51226221 C19.8446955,-0.670570135 9.98107198,0.619241001 3.02375181,5.38169562 L3.02246472,5.37981307 C1.46837595,6.4423418 1.03317431,8.54384075 2.03746232,10.1361864 Z" id="路径-101" fill="url(#linearGradient-21)" mask="url(#mask-20)"></path>
                                <path d="M1.07076364,10.1363754 C2.3335812,12.1353148 3.68824323,13.7498289 5.13474974,14.9799177 C6.34804603,16.0116877 7.6790193,17.0144721 9.12766956,17.9882709 L9.12666059,17.9897721 C10.8510078,19.1487423 13.1123958,19.1206004 14.8073678,17.9190784 C20.0642641,14.1892588 26.3932879,13.5013031 33.7946993,15.8555783 C40.9453244,18.1300822 46.2551798,22.0420651 49.7242655,27.5915271 C50.9496892,29.5532162 53.4628739,30.2657403 55.535405,29.2388503 L61.0601461,26.5013668 C63.0404448,25.5222273 63.850524,23.1226153 62.87013,21.1429379 C62.7166911,20.8331039 62.523729,20.5444712 62.2953221,20.2849104 C58.5261122,15.9838561 55.7480036,13.1743808 53.9609965,11.8564846 C48.2631517,7.6543927 38.725326,2.72198946 31.6482233,1.51226221 C18.8782964,-0.670570135 9.01467291,0.619241001 2.05735274,5.38169562 L2.05606565,5.37981307 C0.50197688,6.4423418 0.0667752361,8.54384075 1.07106325,10.1361864 Z" id="路径-101" fill="url(#linearGradient-22)" mask="url(#mask-20)"></path>
                            </g>
                        </g>
                    </g>
                </g>
                <polygon id="路径-29" fill="url(#linearGradient-23)" opacity="0.196022" filter="url(#filter-24)" points="40.6249252 102.534248 29.5043361 110.851799 21.4785613 110.851799 40.7413535 101.095885 41.9895941 100.429188"></polygon>
                <g id="编组-8" transform="translate(69.978561, 40.929188)">
                    <g id="编组-13" transform="translate(0.000000, 27.657003)">
                        <g id="编组-9" transform="translate(11.304717, 11.662304) scale(-1, -1) rotate(35.000000) translate(-11.304717, -11.662304) translate(3.787442, 2.688912)">
                            <path d="M2.84217094e-14,16.5575334 C1.41030795,14.6488978 2.76843759,12.696713 4.07438893,10.7009791 C6.03331595,7.70737831 7.76423023,2.0452124 9.78392734,0.683560174 C11.8036245,-0.678092052 15.0345496,0.0666558435 15.0345496,2.27740944 C15.0345496,4.48816303 11.3979452,10.2768306 8.67940278,12.5112686 C6.86704115,14.0008939 4.43699005,15.812732 1.3892495,17.9467829 L2.84217094e-14,16.5575334 Z" id="路径-36" fill="url(#radialGradient-25)"></path>
                            <path d="M8.15020112,4.21709871 C7.56373839,3.73448134 7.22417245,2.93649349 7.22417245,2.62693841 C7.22417245,2.31738332 7.52446737,1.96213111 7.97068899,1.82082927 C8.41691061,1.67952743 10.1927698,1.22911402 10.5404693,1.6926196 C10.8881688,2.15612518 10.0104639,3.63040009 9.64391592,3.94567441 C9.27736792,4.26094873 8.73666386,4.69971609 8.15020112,4.21709871 Z" id="路径-45" fill="url(#radialGradient-26)" transform="translate(8.922270, 2.959957) scale(-1, 1) rotate(-45.000000) translate(-8.922270, -2.959957) "></path>
                        </g>
                        <g id="编组-10" transform="translate(25.819855, 19.469311) scale(-1, 1) rotate(7.000000) translate(-25.819855, -19.469311) translate(16.107639, 6.230082)">
                            <path d="M13.9128627,0.469182364 C13.8008944,0.433805487 13.7186533,0.409889532 13.6661392,0.397434499 C13.5106737,0.360561915 12.5232001,0.0727955201 12.0394302,0.0261309568 C9.84144067,-0.185887666 9.10909628,0.956969015 7.75397916,1.12335648 C6.85056774,1.23428145 5.45419076,1.38330719 3.56484822,1.5704337 L4.45838956,3.3165655 L13.7282586,3.9562523 L13.9128627,0.469182364 Z" id="路径-4" fill="url(#linearGradient-27)"></path>
                            <path d="M19.0691754,6.69658119 C20.9828658,14.0826242 14.787501,26.4813296 9.52189618,26.4784575 C5.62170494,26.4756438 4.55562865,20.4960718 2.41683408,13.1833664 C1.7895593,11.038665 -0.000765851829,8.05998208 2.84217094e-14,6.68376525 C0.00217116807,3.5206553 1.4038028,2.25801397 3.74029927,1.41203024 C3.94304454,1.33862153 8.96583757,3.61738934 12.2361009,2.26018505 C14.483002,1.32769019 12.5386454,0.101895764 12.9985558,0.182569652 C16.5535492,0.806158862 18.0759443,2.86312554 19.0691754,6.69658119 Z" id="Stroke-11" fill="url(#radialGradient-28)"></path>
                            <path d="M8.91636657,7.30863277 C9.41591869,5.69328935 12.2501218,5.15765036 13.8549642,4.9803979 C15.2252795,4.8290486 16.5885161,5.18812003 17.3222578,7.46068932 C18.7951706,12.0226443 15.3805533,17.5983808 12.5476121,18.9011476 C9.71467084,20.2039144 7.99026542,10.303258 8.91636657,7.30863277 Z" id="路径-32" stroke="#AAAAAA" stroke-width="0.305960793" opacity="0.502024333" transform="translate(13.170750, 11.984453) rotate(-8.000000) translate(-13.170750, -11.984453) "></path>
                            <g id="编组-5" transform="translate(12.104614, 5.464035) rotate(-5.000000) translate(-12.104614, -5.464035) translate(7.354614, 2.464035)">
                                <path d="M5.69683183,1.57209754 C7.47096967,0.140072213 8.56426122,-0.313628066 8.97670649,0.210996707 C9.59537439,0.997933866 9.74925832,3.83557489 8.97670649,4.70444298 C8.46167194,5.28368837 7.36838039,4.89448188 5.69683183,3.53682352 L5.69683183,1.57209754 Z M4.16230449,1.53615529 C1.89843681,0.594724612 0.582982323,0.485795539 0.215941012,1.20936807 C-0.334620954,2.29472686 0.214175353,5.27656924 1.33400282,5.89120993 C2.08055446,6.30097038 3.099615,5.55320131 4.39118444,3.6479027 L4.16230449,1.53615529 Z" id="形状结合" fill="#7A7C85"></path>
                                <path d="M4.28774246,2.20477987 C4.44184175,2.17688361 4.18428218,2.1358 3.51506373,2.08152905 C2.84584529,2.0272581 2.1640016,1.99215984 1.46953266,1.97623427 C2.34426919,2.19403559 2.95992193,2.35797558 3.3164909,2.46805424 C3.67305987,2.57813289 3.99681039,2.63379652 4.28774246,2.63504511 C4.13855527,2.64990862 3.93358269,2.80364514 3.67282473,3.09625467 C3.41206677,3.38886419 3.16398216,3.69073379 2.9285709,4.00186346 C3.43071788,3.6577292 3.74756767,3.43979636 3.87912027,3.34806494 C4.01067287,3.25633353 4.17378157,3.17239677 4.36844635,3.09625467 L5.48298285,2.75527723 L7.37267372,3.19288068 C6.67026517,2.86664375 6.25705279,2.68069856 6.13303656,2.63504511 C6.03797178,2.6000494 5.8775901,2.51930951 5.73826252,2.50777833 C5.70997491,2.50543716 5.67988604,2.52217235 5.64799589,2.55798391 L7.96953266,1.50186346 C7.15936529,1.64454906 6.60013451,1.76071493 6.29184033,1.85036107 C5.98354615,1.9400072 5.7369975,2.0581468 5.55219438,2.20477987 L4.97801811,2.46805424 L4.28774246,2.20477987 Z" id="路径-2" fill="#595B65" opacity="0.657323201"></path>
                                <path d="M4.06948947,1.67194385 C4.3177994,1.36006197 5.74127509,1.45304346 5.87429671,1.67194385 C6.00731833,1.89084425 6.00731833,3.44542766 5.81499447,3.66281313 C5.62267061,3.88019861 4.54114995,4.07624315 4.30879328,3.90801377 C4.07643662,3.73978439 3.82117954,1.98382574 4.06948947,1.67194385 Z" id="路径-8" fill="#83848C"></path>
                            </g>
                        </g>
                        <g id="编组-23" transform="translate(32.400865, 19.349897) scale(-1, 1) rotate(-55.000000) translate(-32.400865, -19.349897) translate(24.529897, 7.250731)">
                            <path d="M9.71862534,2.12328604 C10.7033155,1.15774471 11.9472633,1.60979768 12.5439847,2.06059858 C13.1407061,2.51139949 13.2511275,3.47375156 13.0814394,4.29216826 C12.968314,4.83777939 11.0132223,7.80028997 7.21616437,13.1797 C5.58243076,12.4430361 4.68988117,11.7141971 4.5385156,10.9931829 C4.47540534,10.6925637 4.05201202,10.2134977 4.11383384,9.86443904 C4.54018619,7.45716635 8.73393522,3.08882736 9.71862534,2.12328604 Z" id="路径-33" fill="url(#radialGradient-29)" transform="translate(8.630641, 7.365449) rotate(37.000000) translate(-8.630641, -7.365449) "></path>
                            <path d="M7.09328787,8.40532428 C7.63740255,12.9313697 7.95241604,15.3578849 8.03832831,15.6848696 C8.17191157,16.1932916 8.84567309,18.5495369 7.91959052,19.5716956 C6.99350795,20.5938544 3.35973039,23.0617923 1.49572003,19.8705528 C0.668633381,18.4545566 0.216931911,15.3971466 1.137477,11.4341631 C1.35872291,10.4816906 1.92968241,8.93218528 2.85035552,6.78564725 C3.60861461,6.64591279 4.42535523,6.70152378 5.30057737,6.9524802 C6.61341059,7.32891484 7.07338065,8.23973245 7.09328787,8.40532428 Z" id="路径-35" fill="url(#radialGradient-30)" transform="translate(4.513758, 14.079657) rotate(5.000000) translate(-4.513758, -14.079657) "></path>
                            <path d="M5.41418299,23.5210952 C5.03850402,22.7514028 5.0504024,20.9097171 5.0464502,20.4179604 C5.042498,19.9262037 5.13371881,19.5976138 5.40862942,19.4781736 C5.68354003,19.3587334 7.22820036,19.3393179 7.34006445,20.5773789 C7.45192853,21.8154399 7.05901181,22.7982217 6.83208323,23.2971824 C6.60515465,23.7961431 5.78986195,24.2907876 5.41418299,23.5210952 Z" id="路径-45" fill="url(#radialGradient-31)" transform="translate(6.203008, 21.672736) scale(-1, 1) rotate(25.000000) translate(-6.203008, -21.672736) "></path>
                            <path d="M7.73498464,20.3691628 C7.17779509,19.7779428 6.76678107,18.2784762 6.76418453,17.9016521 C6.7616224,17.5248279 7.04925273,17.0155762 7.46162038,16.9251107 C7.87398803,16.8346452 9.58875019,17.3997053 9.92057227,17.9661436 C10.2523944,18.5325818 9.48474837,19.6667871 9.14163695,20.0482447 C8.79852553,20.4297024 8.29217419,20.9603828 7.73498464,20.3691628 Z" id="路径-45" fill="url(#radialGradient-32)" transform="translate(8.383077, 18.774635) scale(-1, 1) rotate(70.000000) translate(-8.383077, -18.774635) "></path>
                        </g>
                    </g>
                    <g id="编组-7" transform="translate(24.235207, 17.757745) scale(-1, 1) rotate(6.000000) translate(-24.235207, -17.757745) translate(5.900086, 1.829284)">
                        <g id="编组" transform="translate(0.000000, 3.567303)">
                            <mask id="mask-35" fill="white">
                                <use xlink:href="#path-34"></use>
                            </mask>
                            <use id="路径-15" fill="url(#radialGradient-33)" xlink:href="#path-34"></use>
                            <path d="M15.0483746,2.37466379 C14.1403769,2.28359285 13.0953963,2.28359285 11.9134329,2.37466379 C10.7314696,2.46573473 9.60053614,2.63073273 8.52063269,2.86965779 L5.96969797,1.34654807 L10.9685093,0 L13.7346274,0.893394409 L15.0483746,2.37466379 Z" id="路径-31" fill="url(#linearGradient-36)" mask="url(#mask-35)"></path>
                        </g>
                        <path d="M11.2482063,10.7713714 C9.34186208,12.7385445 8.46476263,16.2791829 8.52338424,19.7205848 C8.57737363,22.890051 9.41259612,25.9780038 11.2482063,27.6153401 C15.0769193,31.030494 27.7895966,31.2354273 32.2587058,27.4050416 C34.5322464,25.4564345 35.6201789,22.1596444 35.7124401,18.8911633 C35.8015371,15.7347762 34.9766897,12.6098531 32.5855012,10.4705655 C27.7182051,6.11601674 14.9102575,6.99246905 11.2482063,10.7713714 Z" id="路径-18" fill="#8B8D96"></path>
                        <path d="M17.9942956,20.6489487 C18.0648183,20.4805277 20.4032412,18.4919295 22.9681202,18.0152652 C25.5329993,17.5386009 28.5611772,18.7409594 28.4113363,18.9475043 C28.2614954,19.1540493 25.8430183,18.8228428 23.0593117,19.3288846 C20.275605,19.8349265 17.9237729,20.8173696 17.9942956,20.6489487 Z" id="路径-5" fill="#FFFFFF" transform="translate(23.204717, 19.286275) rotate(10.000000) translate(-23.204717, -19.286275) "></path>
                        <path d="M15.0082134,5.96315559 C14.7905584,5.61409586 14.3378194,5.2410557 13.6499964,4.84403512 C13.1486094,4.55462784 12.5828396,4.30882837 11.8087715,4.16364401 C11.5033547,4.10635998 11.1316276,4.08537778 10.6935903,4.10069741 C10.8396662,3.59643452 11.0859658,3.1468729 11.4324888,2.75201256 C12.4402302,1.60369921 14.4401196,0.656435215 16.48382,0.30911871 C18.6948483,-0.06663431 20.7787839,-0.137907081 22.8569688,0.30911871 C23.2122112,0.385532747 23.7388055,0.551676249 24.4367516,0.807549217 L15.0082134,5.96315559 Z" id="路径-3" fill="url(#radialGradient-37)"></path>
                        <path d="M18.6816442,0.6478189 C16.5472483,0.962271181 15.0560488,2.19115431 15.0076523,3.39661017 L14.9789838,4.16710119 L14.9589942,4.83453225 L14.9511696,5.18562188 L14.9456038,5.59625164 C14.9453718,5.62773616 14.9451979,5.65853746 14.9450819,5.68865585 C14.9450539,5.80123841 14.9449959,5.88567533 14.9449079,5.94196661 C14.9449079,5.97021858 15.1063396,5.94652218 15.4292031,5.87087741 C17.1168674,5.40198908 18.872641,5.15239931 20.6965238,5.12210808 C22.5849418,5.09074504 24.455541,5.22568818 26.3083212,5.5269375 C26.6311847,5.57223685 26.7926164,5.57981169 26.7926164,5.54966201 C26.7926164,5.19018729 26.7926164,4.65097521 26.7926164,3.93202577 C26.7926164,3.08760773 26.532298,2.37975512 26.0267558,1.84238612 C25.4436194,1.22253807 24.6715846,0.769519221 23.4678349,0.556795175 C22.3178433,0.353571141 20.4993111,0.38002908 18.6816442,0.6478189 Z" id="路径" fill="#FFFFFF" fill-rule="nonzero"></path>
                        <path d="M15.4292031,5.87087741 C15.4292031,5.26984705 15.4499857,4.45168117 15.4915508,3.41637976 C15.520708,2.69013603 16.5276368,1.45888367 18.7516311,1.1312312 C20.6191921,0.856090665 22.3578323,0.856618159 23.3842676,1.0380076 C24.7278423,1.27544121 25.3742679,1.85852091 25.6754701,2.17868554 C26.0827214,2.61157561 26.3083212,3.19251809 26.3083212,3.93202577 C26.3083212,4.24238886 26.3083212,4.77402611 26.3083212,5.5269375 C24.345731,5.21679056 22.4751319,5.08184742 20.6965238,5.12210808 C18.9179157,5.16236873 17.1621421,5.41195851 15.4292031,5.87087741 Z" id="路径-19" fill="#7A7C85"></path>
                    </g>
                </g>
                <g id="编组-31" opacity="0.496385" transform="translate(31.549026, 85.636886) rotate(-31.000000) translate(-31.549026, -85.636886) translate(19.049007, 67.103419)">
                    <g id="形状结合">
                        <use fill="url(#linearGradient-38)" fill-rule="evenodd" xlink:href="#path-39"></use>
                        <use fill="black" fill-opacity="1" filter="url(#filter-40)" xlink:href="#path-39"></use>
                    </g>
                    <g id="形状结合">
                        <use fill="url(#linearGradient-41)" fill-rule="evenodd" xlink:href="#path-42"></use>
                        <use fill="black" fill-opacity="1" filter="url(#filter-43)" xlink:href="#path-42"></use>
                    </g>
                    <path d="M15.0814356,0.119609152 C15.7125726,-0.149819725 16.4426256,0.143402685 16.7120544,0.774539735 L24.9002655,19.9554213 C24.9849905,20.1538895 25.0165666,20.3710015 24.991885,20.5853815 C24.9133964,21.2671186 24.2971118,21.7561481 23.6153747,21.6776596 L2.66601426,19.2657554 C2.44419116,19.2402169 2.23334852,19.1553762 2.05566017,19.0201558 C1.50956402,18.604578 1.40375799,17.8249873 1.81933577,17.2788911 L14.5804852,0.509913726 C14.7108419,0.338616599 14.8834632,0.204122462 15.0814356,0.119609152 Z M12.8603911,16.2322475 C12.6445823,16.4086932 12.5213105,16.6433235 12.4905457,16.9360311 C12.4609553,17.2175655 12.5333446,17.4670498 12.7077501,17.6845296 C12.8820879,17.9020648 13.1142225,18.026048 13.4040678,18.056512 C13.6939132,18.086976 13.9467526,18.0139655 14.1625905,17.8374395 C14.3784014,17.6609731 14.5010795,17.4319912 14.53067,17.1504568 C14.5614348,16.8577492 14.4896392,16.6026165 14.3152315,16.3851573 C14.1408142,16.167593 13.9086774,16.0436303 13.6188321,16.0131663 C13.3289867,15.9827024 13.0761495,16.0556922 12.8603911,16.2322475 Z M12.8324131,7.81173355 C12.3554936,8.00635944 11.9596,8.2606904 11.6448322,8.57475778 C11.3300354,8.88890547 11.0976536,9.22303276 10.9477277,9.57714392 C10.7977932,9.93133754 10.7153914,10.232874 10.7004408,10.4817448 C10.6808419,10.7756259 10.7503643,10.9991728 10.9089584,11.1524635 C11.0675547,11.3057337 11.2469147,11.3957619 11.4469517,11.4223933 C11.6470594,11.4491362 11.8369189,11.4121707 12.0165667,11.3115422 C12.1961962,11.2108909 12.2978115,11.0479957 12.3214761,10.8228424 C12.3356766,10.687734 12.3949965,10.5260833 12.499279,10.3378115 C12.6036119,10.1496491 12.7377074,9.97305612 12.901532,9.808154 C13.0654178,9.64325831 13.2569818,9.50976326 13.4762734,9.40759068 C13.6955038,9.30541166 13.9333336,9.26779804 14.1897628,9.29474983 C14.6913938,9.34747338 15.0794211,9.51633317 15.3538147,9.80122182 C15.6281996,10.0861929 15.7341503,10.418906 15.6715895,10.7993112 C15.6514718,10.9907183 15.5771062,11.1621884 15.4484745,11.3136987 C15.3198363,11.4652708 15.1610949,11.6079265 14.9723275,11.7417154 C14.7835514,11.8755869 14.5836385,12.0082044 14.3726122,12.1397373 C14.1615129,12.2711791 13.9610063,12.409445 13.771045,12.5545927 C13.5810924,12.6996579 13.417483,12.8617272 13.2803167,13.040832 C13.1431569,13.219875 13.0571451,13.4214471 13.0223962,13.6454354 L12.9716064,14.2888999 C12.9538591,14.4577546 13.0150715,14.6264462 13.1551384,14.7947971 C13.2952987,14.9632411 13.4929155,15.0665057 13.7481821,15.1047152 C14.0057126,15.1204028 14.218081,15.0573949 14.3851188,14.9155279 C14.5522275,14.7737725 14.6408503,14.6009663 14.6509893,14.3970888 L14.6935864,13.9918046 C14.701353,13.8105001 14.8329379,13.630892 15.0883584,13.4528155 C15.3437789,13.2747389 15.6294658,13.0771252 15.9453461,12.8598835 C16.2612155,12.6427448 16.558043,12.3921535 16.8358498,12.1082995 C17.1136662,11.8245508 17.2850443,11.4811563 17.3498713,11.0782086 C17.4183558,10.6414429 17.4169848,10.2258267 17.3457444,9.83129585 C17.2744136,9.43683892 17.1251497,9.08815183 16.8976883,8.78539437 C16.6702473,8.48263906 16.3616959,8.22819589 15.9719374,8.02220059 C15.5821992,7.81620744 15.1141768,7.68445961 14.5678819,7.6270417 C13.8878814,7.55557076 13.3093305,7.61712827 12.8324131,7.81173355 Z" id="形状结合" fill="url(#linearGradient-44)"></path>
                </g>
            </g>
        </g>
    </g>
</svg>