<?xml version="1.0" encoding="UTF-8"?>
<svg width="123.477569px" height="95.8838003px" viewBox="0 0 123.477569 95.8838003" version="1.1" xmlns="http://www.w3.org/2000/svg" xmlns:xlink="http://www.w3.org/1999/xlink">
    <title>暂无数据-1</title>
    <defs>
        <linearGradient x1="50%" y1="0%" x2="50%" y2="116.86621%" id="linearGradient-1">
            <stop stop-color="#7B7B7B" offset="0%"></stop>
            <stop stop-color="#FAFAFA" stop-opacity="0" offset="100%"></stop>
        </linearGradient>
        <linearGradient x1="50%" y1="0%" x2="50%" y2="100%" id="linearGradient-2">
            <stop stop-color="#626262" offset="0%"></stop>
            <stop stop-color="#ECECEC" stop-opacity="0" offset="100%"></stop>
        </linearGradient>
        <linearGradient x1="50%" y1="0%" x2="50%" y2="100%" id="linearGradient-3">
            <stop stop-color="#626262" offset="0%"></stop>
            <stop stop-color="#ECECEC" stop-opacity="0" offset="100%"></stop>
        </linearGradient>
        <linearGradient x1="50%" y1="0%" x2="50%" y2="100%" id="linearGradient-4">
            <stop stop-color="#626262" offset="0%"></stop>
            <stop stop-color="#ECECEC" stop-opacity="0" offset="100%"></stop>
        </linearGradient>
        <linearGradient x1="62.0317227%" y1="50%" x2="15.1255325%" y2="49.0354938%" id="linearGradient-5">
            <stop stop-color="#4B515A" offset="0%"></stop>
            <stop stop-color="#616266" stop-opacity="0.280808669" offset="100%"></stop>
        </linearGradient>
        <filter x="-16.7%" y="-120.0%" width="133.3%" height="340.0%" filterUnits="objectBoundingBox" id="filter-6">
            <feGaussianBlur stdDeviation="1" in="SourceGraphic"></feGaussianBlur>
        </filter>
        <linearGradient x1="23.7511675%" y1="40.1094904%" x2="95.8641053%" y2="50%" id="linearGradient-7">
            <stop stop-color="#F3F3F3" offset="0%"></stop>
            <stop stop-color="#FFFFFF" offset="53.3502094%"></stop>
            <stop stop-color="#F5F5F5" offset="100%"></stop>
        </linearGradient>
        <linearGradient x1="34.0210418%" y1="5.84785588%" x2="77.9197417%" y2="50%" id="linearGradient-8">
            <stop stop-color="#F3F3F3" offset="0%"></stop>
            <stop stop-color="#FFFFFF" offset="53.3502094%"></stop>
            <stop stop-color="#F5F5F5" offset="100%"></stop>
        </linearGradient>
        <linearGradient x1="34.4420184%" y1="38.1965995%" x2="64.7810893%" y2="141.527061%" id="linearGradient-9">
            <stop stop-color="#C0C4D0" offset="0%"></stop>
            <stop stop-color="#777C8F" offset="100%"></stop>
        </linearGradient>
        <linearGradient x1="50%" y1="28.7566633%" x2="49.9615045%" y2="98.5279751%" id="linearGradient-10">
            <stop stop-color="#FAFBFF" offset="0%"></stop>
            <stop stop-color="#F5F6FB" offset="37.2776556%"></stop>
            <stop stop-color="#CCCFD8" offset="100%"></stop>
        </linearGradient>
        <path d="M13.5028149,0 L49.2214099,0 C52.0040846,0 54.2393479,2.23760539 54.2393479,5.02319576 L54.2393479,32.6507725 L52.5305367,38.0293256 C51.5742576,41.1445453 43.5118447,48.108702 41.3268341,50.3232885 C38.8573492,52.8261998 31.1819135,56.1525082 25.2706044,56.123688 L4.15120324,56.0771309 C1.87032234,56.0771309 0,54.2048488 0,51.8759126 C0,51.3279276 0.0912352361,50.7799426 0.319323327,50.3232885 L8.53049458,30.3218362 L8.53049458,5.02319576 C8.53049458,2.23760539 10.7657579,0 13.5028149,0 Z" id="path-11"></path>
        <linearGradient x1="99.879266%" y1="53.9323419%" x2="27.8081711%" y2="53.9323419%" id="linearGradient-13">
            <stop stop-color="#EEEFF0" offset="0%"></stop>
            <stop stop-color="#9AA2AF" offset="100%"></stop>
        </linearGradient>
        <linearGradient x1="99.879266%" y1="54.0019573%" x2="20.9423056%" y2="54.0019573%" id="linearGradient-14">
            <stop stop-color="#EEEFF0" offset="0%"></stop>
            <stop stop-color="#969DA6" offset="100%"></stop>
        </linearGradient>
        <linearGradient x1="36.9737465%" y1="31.1786206%" x2="36.9737465%" y2="100%" id="linearGradient-15">
            <stop stop-color="#E5E6EC" stop-opacity="0.740040599" offset="0%"></stop>
            <stop stop-color="#B2B7BF" offset="100%"></stop>
        </linearGradient>
        <linearGradient x1="49.6384104%" y1="0.963086377%" x2="49.6384104%" y2="99.8420383%" id="linearGradient-16">
            <stop stop-color="#FFFFFF" offset="0%"></stop>
            <stop stop-color="#FFFFFF" stop-opacity="0.4778" offset="100%"></stop>
        </linearGradient>
        <radialGradient cx="32.0058469%" cy="31.1422445%" fx="32.0058469%" fy="31.1422445%" r="112.216794%" gradientTransform="translate(0.320058,0.311422),scale(0.771460,1.000000),rotate(34.136479),scale(1.000000,0.691289),translate(-0.320058,-0.311422)" id="radialGradient-17">
            <stop stop-color="#F4F4F5" offset="0%"></stop>
            <stop stop-color="#B6B7BD" offset="80.5199064%"></stop>
            <stop stop-color="#D2D4DB" offset="100%"></stop>
        </radialGradient>
        <path d="M5.13192941,2.79028349 C-1.29356611,7.28610662 -1.56539572,19.5795908 3.64469757,24.6695996 C7.40497604,28.3432095 17.8500269,28.845674 25.7784463,27.8280998 C33.753464,26.804545 36.5482623,21.2979792 36.6661679,15.9060269 C36.7618401,11.5308347 35.1658563,7.25080736 32.5790878,5.34529288 C32.1225067,5.00895743 31.7268556,4.62689406 31.2625941,4.29590819 C24.1020962,-0.809024657 11.166185,-1.43179494 5.13192941,2.79028349 Z" id="path-18"></path>
        <linearGradient x1="97.6648953%" y1="50%" x2="50%" y2="54.9955709%" id="linearGradient-20">
            <stop stop-color="#B8B8BA" offset="0%"></stop>
            <stop stop-color="#96979E" stop-opacity="0" offset="100%"></stop>
        </linearGradient>
        <radialGradient cx="32.5918417%" cy="50%" fx="32.5918417%" fy="50%" r="67.1630286%" gradientTransform="translate(0.325918,0.500000),scale(0.872004,1.000000),rotate(48.112497),scale(1.000000,1.299773),translate(-0.325918,-0.500000)" id="radialGradient-21">
            <stop stop-color="#F4F4F5" offset="0%"></stop>
            <stop stop-color="#C5C6CB" offset="75.9533435%"></stop>
            <stop stop-color="#D2D4DB" offset="100%"></stop>
        </radialGradient>
        <radialGradient cx="73.5869484%" cy="25.6468487%" fx="73.5869484%" fy="25.6468487%" r="162.254072%" gradientTransform="translate(0.735869,0.256468),scale(1.000000,0.805440),rotate(152.654688),scale(1.000000,1.298249),translate(-0.735869,-0.256468)" id="radialGradient-22">
            <stop stop-color="#FFFFFF" offset="0%"></stop>
            <stop stop-color="#F6F6F6" offset="5.24926778%"></stop>
            <stop stop-color="#DDDDDD" offset="36.6320203%"></stop>
            <stop stop-color="#BBBFC3" offset="58.2585312%"></stop>
            <stop stop-color="#F1F1F1" offset="100%"></stop>
        </radialGradient>
        <radialGradient cx="72.2299048%" cy="36.7247281%" fx="72.2299048%" fy="36.7247281%" r="86.3604965%" gradientTransform="translate(0.722299,0.367247),scale(1.000000,0.717845),rotate(78.307954),scale(1.000000,1.014801),translate(-0.722299,-0.367247)" id="radialGradient-23">
            <stop stop-color="#F4F4F5" offset="0%"></stop>
            <stop stop-color="#C5C6CB" offset="75.9533435%"></stop>
            <stop stop-color="#D2D4DB" offset="100%"></stop>
        </radialGradient>
        <radialGradient cx="53.6524052%" cy="65.518798%" fx="53.6524052%" fy="65.518798%" r="165.655727%" gradientTransform="translate(0.536524,0.655188),scale(1.000000,0.776570),rotate(-73.752768),scale(1.000000,0.594568),translate(-0.536524,-0.655188)" id="radialGradient-24">
            <stop stop-color="#F9F9FA" offset="0%"></stop>
            <stop stop-color="#C5C6CB" offset="67.3740575%"></stop>
            <stop stop-color="#D2D4DB" offset="100%"></stop>
        </radialGradient>
        <radialGradient cx="74.813347%" cy="65.1878903%" fx="74.813347%" fy="65.1878903%" r="232.028845%" gradientTransform="translate(0.748133,0.651879),scale(1.000000,0.519636),rotate(-116.234978),scale(1.000000,0.668718),translate(-0.748133,-0.651879)" id="radialGradient-25">
            <stop stop-color="#FFFFFF" offset="0%"></stop>
            <stop stop-color="#C5C6CB" offset="75.9533435%"></stop>
            <stop stop-color="#D2D4DB" offset="100%"></stop>
        </radialGradient>
        <linearGradient x1="46.9197733%" y1="30.947408%" x2="55.5345009%" y2="167.680668%" id="linearGradient-26">
            <stop stop-color="#B1B1B3" offset="0%"></stop>
            <stop stop-color="#878897" offset="100%"></stop>
        </linearGradient>
        <linearGradient x1="50%" y1="12.8133439%" x2="50.8656728%" y2="100%" id="linearGradient-27">
            <stop stop-color="#ECECEC" offset="0%"></stop>
            <stop stop-color="#B5B5B5" offset="100%"></stop>
        </linearGradient>
        <linearGradient x1="124.208993%" y1="28.4468946%" x2="33.7425583%" y2="61.2849788%" id="linearGradient-28">
            <stop stop-color="#B1B1B3" offset="0%"></stop>
            <stop stop-color="#878897" offset="100%"></stop>
        </linearGradient>
        <path d="M3.46128294,3.46798576 L6,0 L6,0 L0,0 L2.53871706,3.46798576 C2.72521216,3.7227453 3.08291973,3.77808455 3.33767926,3.59158944 C3.38497323,3.55696819 3.42666169,3.51527973 3.46128294,3.46798576 Z" id="path-29"></path>
        <linearGradient x1="50%" y1="15.2593315%" x2="50%" y2="41.4714658%" id="linearGradient-31">
            <stop stop-color="#5E5F67" offset="0%"></stop>
            <stop stop-color="#898989" offset="100%"></stop>
        </linearGradient>
        <radialGradient cx="35.1633593%" cy="23.9093152%" fx="35.1633593%" fy="23.9093152%" r="149.427664%" gradientTransform="translate(0.351634,0.239093),scale(0.433900,1.000000),scale(1.000000,0.472530),translate(-0.351634,-0.239093)" id="radialGradient-32">
            <stop stop-color="#F4F4F5" offset="0%"></stop>
            <stop stop-color="#C5C6CB" offset="80.5199064%"></stop>
            <stop stop-color="#D2D4DB" offset="100%"></stop>
        </radialGradient>
    </defs>
    <g id="页面-1" stroke="none" stroke-width="1" fill="none" fill-rule="evenodd">
        <g id="缺省图-copy" transform="translate(-1823.500000, -572.000000)">
            <g id="暂无数据-1" transform="translate(1823.500000, 572.000000)">
                <g id="编组-4" transform="translate(0.000000, 67.999138)">
                    <path d="M3.0209183,23.79537 C17.7111394,15.2159252 35.4541667,10.9262029 56.25,10.9262029 C87.44375,10.9262029 101.005534,15.5612246 110.5,18.0095293 C116.829644,19.6417324 121.1555,21.8052226 123.477569,24.5 L110.5,24.5 L2,24.5 L3.0209183,23.79537 Z" id="矩形" fill="url(#linearGradient-1)" opacity="0.171837216"></path>
                    <path d="M7.25,27.8846624 C11.2540644,27.8846624 14.5,25.5791022 14.5,20.4299 C14.5,15.2806978 10.6676332,10.9387486 7.25,10.8851661 C3.83236679,10.8315836 -7.10542736e-15,15.2806978 -7.10542736e-15,20.4299 C-7.10542736e-15,25.5791022 3.24593556,27.8846624 7.25,27.8846624 Z" id="椭圆形" fill="url(#linearGradient-2)" opacity="0.142072405"></path>
                    <path d="M92.84375,18.4157312 C96.3473064,18.4157312 99.1875,16.2024048 99.1875,11.6920793 C99.1875,7.18175388 95.8341791,3.57234701 92.84375,3.52541267 C89.8533209,3.47847832 86.5,7.18175388 86.5,11.6920793 C86.5,16.2024048 89.3401936,18.4157312 92.84375,18.4157312 Z" id="椭圆形" fill="url(#linearGradient-3)" opacity="0.128063384"></path>
                    <path d="M108.8125,24.5 C115.819613,24.5 121.5,20.8583794 121.5,13.4374704 C121.5,6.0165614 114.793358,0.0779478327 108.8125,0.000726021372 C102.831642,-0.0764957899 96.125,6.0165614 96.125,13.4374704 C96.125,20.8583794 101.805387,24.5 108.8125,24.5 Z" id="椭圆形" fill="url(#linearGradient-4)" opacity="0.128063384"></path>
                </g>
                <ellipse id="椭圆形" fill="url(#linearGradient-5)" opacity="0.196022" filter="url(#filter-6)" cx="85" cy="83.35" rx="9" ry="1.25"></ellipse>
                <g id="编组-2" transform="translate(14.000000, 0.000000)">
                    <g id="EmptyPage_Order" opacity="0.519587926">
                        <g id="编组-10">
                            <path d="M16.9523936,14.5952902 C16.4962174,14.5952902 16.1312765,14.2299669 16.1312765,13.7733127 L16.1312765,6.89547782 C16.1312765,6.43882366 16.4962174,6.07350033 16.9523936,6.07350033 L25.391653,6.07350033 C25.391653,2.69425955 28.1287101,0 31.5500314,0 C34.9713528,0 37.7084098,2.69425955 37.7084098,6.02783492 L46.1476692,6.02783492 C46.6038454,6.02783492 46.9687863,6.39315824 46.9687863,6.8498124 L46.9687863,13.7276473 C46.9687863,14.1843015 46.6038454,14.5496248 46.1476692,14.5496248 L16.9523936,14.5496248 L16.9523936,14.5952902 Z" id="path-32" fill="#EDEDED"></path>
                            <path d="M16.9523936,14.8452902 C16.4962174,14.8452902 16.1312765,14.4799669 16.1312765,14.0233127 L16.1312765,7.14547782 C16.1312765,6.68882366 16.4962174,6.32350033 16.9523936,6.32350033 L25.391653,6.32350033 C25.391653,2.94425955 28.1287101,0.25 31.5500314,0.25 C34.9713528,0.25 37.7084098,2.94425955 37.7084098,6.27783492 L46.1476692,6.27783492 C46.6038454,6.27783492 46.9687863,6.64315824 46.9687863,7.0998124 L46.9687863,13.9776473 C46.9687863,14.4343015 46.6038454,14.7996248 46.1476692,14.7996248 L16.9523936,14.7996248 L16.9523936,14.8452902 Z" id="path-32" fill="url(#linearGradient-7)"></path>
                            <g id="path-19-link" transform="translate(4.627387, 7.893207)">
                                <path d="M9.62352361,0 L44.7490895,0 C49.7670275,0 53.8726131,4.10988744 53.8726131,9.13308321 L53.8726131,59.27371 C53.8726131,64.2969058 49.7670275,68.4067932 44.7490895,68.4067932 L9.62352361,68.4067932 C4.60558563,68.4067932 0.5,64.2969058 0.5,59.27371 L0.5,9.13308321 C0.5,4.10988744 4.60558563,0 9.62352361,0 Z" id="path-19" fill="#D9CDCD"></path>
                                <path d="M9.62352361,0.299999789 L44.7490895,0.299999789 C49.7670275,0.299999789 53.8726131,4.40988723 53.8726131,9.43308299 L53.8726131,59.5737098 C53.8726131,64.5969056 49.7670275,68.706793 44.7490895,68.706793 L9.62352361,68.706793 C4.60558563,68.706793 0.5,64.5969056 0.5,59.5737098 L0.5,9.43308299 C0.5,4.40988723 4.60558563,0.299999789 9.62352361,0.299999789 Z" id="path-19" fill="url(#linearGradient-8)"></path>
                                <path d="M9.12352361,1.29999979 L44.2490895,1.29999979 C49.2670275,1.29999979 53.3726131,5.40988723 53.3726131,10.433083 L53.3726131,60.5737098 C53.3726131,65.5969056 49.2670275,69.706793 44.2490895,69.706793 L9.12352361,69.706793 C4.10558563,69.706793 0,65.5969056 0,60.5737098 L0,10.433083 C0,5.40988723 4.10558563,1.29999979 9.12352361,1.29999979 Z" id="path-19" fill="url(#linearGradient-9)"></path>
                            </g>
                            <g id="路径-4" transform="translate(7.557566, 12.948434)" fill="#FFFFFF" fill-rule="nonzero">
                                <g id="蒙版_1_" transform="translate(0.821117, 0.000000)">
                                    <path d="M5.47411417,0 L40.371592,0 C43.3823548,0 45.8457062,2.46593247 45.8457062,5.47984992 L45.8457062,55.4378151 C45.8457062,58.4517325 43.3823548,60.917665 40.371592,60.917665 L5.47411417,60.917665 C2.46335138,60.917665 0,58.4517325 0,55.4378151 L0,5.47984992 C0,2.46593247 2.46335138,0 5.47411417,0 Z" id="path-21"></path>
                                </g>
                            </g>
                            <g id="路径-7" transform="translate(0.000000, 12.948434)">
                                <mask id="mask-12" fill="white">
                                    <use xlink:href="#path-11"></use>
                                </mask>
                                <use id="path-24" fill="url(#linearGradient-10)" fill-rule="nonzero" xlink:href="#path-11"></use>
                                <g id="路径-6-Clipped" opacity="0.6515" mask="url(#mask-12)" fill="#B0B5BC" fill-rule="nonzero">
                                    <g transform="translate(23.766779, 36.767466)" id="路径-6">
                                        <path d="M30.5437723,0 L10.4920522,8.37945788 C8.15034776,14.7101592 4.65299704,18.9867016 0,21.2090852 L26.1388952,23.1455598 L30.5437723,0 Z"></path>
                                    </g>
                                </g>
                                <g id="形状-Clipped" opacity="0.831608879" mask="url(#mask-12)" fill="url(#linearGradient-13)" fill-rule="nonzero">
                                    <g transform="translate(12.955404, 9.407076)" id="形状">
                                        <path d="M22.4438681,9.17874862 C22.9456619,9.17874862 23.3562205,9.72673361 23.3562205,10.4117149 C23.3562205,11.0966961 22.9456619,11.6446811 22.4438681,11.6446811 L11.7237278,11.6446811 C11.221934,11.6446811 10.8113755,11.0966961 10.8113755,10.4117149 C10.8113755,9.72673361 11.221934,9.17874862 11.7237278,9.17874862 L22.4438681,9.17874862 Z M34.9430954,4.61220702 C35.4448892,4.61220702 35.8554478,5.16019201 35.8554478,5.84517325 C35.8554478,6.53015449 35.4448892,7.07813948 34.9430954,7.07813948 L11.7237278,7.07813948 C11.221934,7.07813948 10.8113755,6.53015449 10.8113755,5.84517325 C10.8113755,5.16019201 11.221934,4.61220702 11.7237278,4.61220702 L34.9430954,4.61220702 Z M0,0.182661664 L8.75858267,0.182661664 L8.75858267,11.8730082 L0,11.8730082 L0,0.182661664 Z M34.9430954,0 C35.4448892,0 35.8554478,0.547984992 35.8554478,1.23296623 C35.8554478,1.91794747 35.4448892,2.46593247 34.9430954,2.46593247 L11.7237278,2.46593247 C11.221934,2.46593247 10.8113755,1.91794747 10.8113755,1.23296623 C10.8113755,0.547984992 11.221934,0 11.7237278,0 L34.9430954,0 Z"></path>
                                    </g>
                                </g>
                                <g id="形状备份-Clipped" opacity="0.703662479" mask="url(#mask-12)" fill="url(#linearGradient-14)" fill-rule="nonzero">
                                    <g transform="translate(12.955404, 28.175562)" id="形状备份">
                                        <path d="M22.4438681,9.22441404 C22.9456619,9.22441404 23.3562205,9.77239903 23.3562205,10.4573803 C23.3562205,11.1423615 22.9456619,11.6903465 22.4438681,11.6903465 L11.7237278,11.6903465 C11.221934,11.6903465 10.8113755,11.1423615 10.8113755,10.4573803 C10.8113755,9.77239903 11.221934,9.22441404 11.7237278,9.22441404 L22.4438681,9.22441404 Z M34.9430954,4.61220702 C35.4448892,4.61220702 35.8554478,5.16019201 35.8554478,5.84517325 C35.8554478,6.53015449 35.4448892,7.07813948 34.9430954,7.07813948 L11.7237278,7.07813948 C11.221934,7.07813948 10.8113755,6.53015449 10.8113755,5.84517325 C10.8113755,5.16019201 11.221934,4.61220702 11.7237278,4.61220702 L34.9430954,4.61220702 Z M0,0.182661664 L8.75858267,0.182661664 L8.75858267,11.8730082 L0,11.8730082 L0,0.182661664 Z M34.9430954,0 C35.4448892,0 35.8554478,0.547984992 35.8554478,1.23296623 C35.8554478,1.91794747 35.4448892,2.46593247 34.9430954,2.46593247 L11.7237278,2.46593247 C11.221934,2.46593247 10.8113755,1.91794747 10.8113755,1.23296623 C10.8113755,0.547984992 11.221934,0 11.7237278,0 L34.9430954,0 Z"></path>
                                    </g>
                                </g>
                            </g>
                            <g id="编组-26" transform="translate(15.874931, 1.100000)">
                                <path d="M30.8375098,11.1111264 L30.8375098,12.8776473 C30.8375098,13.3343015 30.4725689,13.6996248 30.0163927,13.6996248 L0.821117125,13.6996248 C0.364940945,13.6996248 0,13.3343015 0,12.8776473 L0,10.7426647 L30.8375098,11.1111264 Z" id="形状结合_1_" fill="#888F9B" fill-rule="nonzero"></path>
                                <path d="M0.827462536,12.1013352 C0.371286355,12.1013352 0.00634541067,11.7360119 0.00634541067,11.2793578 L0.00634541067,6.89547782 C0.00634541067,6.43882366 0.371286355,6.07350033 0.827462536,6.07350033 L9.26672188,6.07350033 C9.26672188,2.69425955 12.003779,0 15.4251003,0 C18.8464217,0 21.5834788,2.69425955 21.5834788,6.02783492 L21.5834788,6.02783492 L30.0227381,6.02783492 C30.4789143,6.02783492 30.8438552,6.39315824 30.8438552,6.8498124 L30.8438552,11.2336923 C30.8438552,11.6903465 30.4789143,12.0556698 30.0227381,12.0556698 L0.827462536,12.0556698 L0.827462536,12.1013352 Z" id="path-32" fill="url(#linearGradient-15)"></path>
                                <ellipse id="椭圆形_10_" fill="url(#linearGradient-16)" fill-rule="nonzero" cx="15.2362844" cy="5.61684617" rx="3.14761565" ry="3.15091371"></ellipse>
                            </g>
                        </g>
                    </g>
                    <g id="编组-6" transform="translate(71.387405, 41.008101) scale(-1, 1) rotate(-6.000000) translate(-71.387405, -41.008101) translate(47.015468, 10.882530)">
                        <g id="编组" transform="translate(0.762702, 3.567303)">
                            <mask id="mask-19" fill="white">
                                <use xlink:href="#path-18"></use>
                            </mask>
                            <use id="路径-15" fill="url(#radialGradient-17)" xlink:href="#path-18"></use>
                            <path d="M15.0483746,2.37466379 C14.1403769,2.28359285 13.0953963,2.28359285 11.9134329,2.37466379 C10.7314696,2.46573473 9.60053614,2.63073273 8.52063269,2.86965779 L5.96969797,1.34654807 L10.9685093,0 L13.7346274,0.893394409 L15.0483746,2.37466379 Z" id="路径-31" fill="url(#linearGradient-20)" mask="url(#mask-19)"></path>
                        </g>
                        <g id="编组-9" transform="translate(35.269273, 33.099770) rotate(22.000000) translate(-35.269273, -33.099770) translate(24.522624, 23.728653)">
                            <path d="M7.10542736e-15,15.5435569 C5.23681179,14.2437831 8.63412046,12.7536756 10.191926,11.0732345 C12.5286344,8.55257292 14.2229787,2.0452124 16.2426758,0.683560174 C18.2623729,-0.678092052 21.4932981,0.0666558435 21.4932981,2.27740944 C21.4932981,4.48816303 17.2446961,14.3209091 13.0167497,15.6005695 C10.1981188,16.4536764 6.1016535,17.500898 0.727353781,18.7422343 L7.10542736e-15,15.5435569 Z" id="路径-36" fill="url(#radialGradient-21)"></path>
                            <path d="M13.2676289,5.91406693 C12.5948251,5.14123763 12.1073806,3.17228999 12.1073806,2.67659039 C12.1073806,2.18089079 12.4614738,1.50840779 12.963802,1.38574429 C13.4661302,1.26308079 15.5471418,1.9912398 15.9460308,2.73346482 C16.3449199,3.47568984 15.4017662,4.97456929 14.9812537,5.47942726 C14.5607412,5.98428524 13.9404328,6.68689623 13.2676289,5.91406693 Z" id="路径-45" fill="url(#radialGradient-22)"></path>
                        </g>
                        <g id="编组-10" transform="translate(19.195349, 45.905979) rotate(7.000000) translate(-19.195349, -45.905979) translate(9.660787, 32.623783)">
                            <path d="M19.0691245,6.78271905 C19.065561,12.0885217 14.7874479,26.5674674 9.52184311,26.5643921 C4.25572957,26.5608032 -0.0030508846,12.0757057 0,6.76990311 C0.00356291852,1.4641005 4.27353596,-0.00358190555 9.53914075,0 C14.8047455,0.00359502551 19.0726836,1.47691645 19.0691245,6.78271905 Z" id="Stroke-11" fill="url(#radialGradient-23)"></path>
                            <path d="M6.12081595,6.50038303 C7.39143819,3.33961102 15.3701529,2.77060584 16.7760999,6.18470155 C18.1820469,9.59879726 14.0867169,19.3594638 11.4484579,19.4376269 C8.81019889,19.5157899 4.85019371,9.66115504 6.12081595,6.50038303 Z" id="路径-32" stroke="#AAAAAA" stroke-width="0.305960793" opacity="0.502024333"></path>
                            <g id="编组-5" transform="translate(6.120816, 1.526689)">
                                <path d="M6.67560832,1.55071894 C8.75456196,0.138167402 10.0356927,-0.309363108 10.5190004,0.20812741 C11.2439621,0.984363187 11.4242849,3.78341577 10.5190004,4.64046831 C9.91547745,5.21183668 8.63434674,4.82792292 6.67560832,3.48872705 L6.67560832,1.55071894 Z M4.8774328,1.51526546 C2.22460851,0.586637085 0.683144905,0.479189314 0.253041982,1.19292214 C-0.392112403,2.26352138 0.250972963,5.20481436 1.56319873,5.81109668 C2.43801592,6.2152849 3.63216193,5.47768457 5.14563677,3.59829569 L4.8774328,1.51526546 Z" id="形状结合" fill="#7A7C85"></path>
                                <path d="M5.04150455,2.23426537 C5.2283504,2.20863348 4.91605865,2.17088466 4.1046293,2.12101893 C3.29319995,2.07115319 2.46646246,2.03890389 1.62441681,2.02427101 C2.68503744,2.22439321 3.43151822,2.37502606 3.86385916,2.47616954 C4.29620009,2.57731302 4.68874855,2.62845838 5.04150455,2.62960562 C4.86061464,2.64326264 4.61208479,2.78452024 4.29591498,3.0533784 C3.97974518,3.32223657 3.67894185,3.59960316 3.393505,3.88547817 C4.0023597,3.56927757 4.38654101,3.36903452 4.54604893,3.28474903 C4.70555685,3.20046353 4.90332663,3.12333999 5.13935826,3.0533784 L6.49073707,2.74007839 L8.78199286,3.1421612 C7.93032041,2.8424052 7.42929917,2.67155334 7.27892913,2.62960562 C7.16366279,2.59745054 6.96919953,2.52326437 6.80026443,2.51266919 C6.76596562,2.51051806 6.72948277,2.52589484 6.69081588,2.55879955 L9.5056861,1.58840529 C8.52335576,1.71950898 7.84528678,1.82624556 7.47147917,1.90861505 C7.09767156,1.99098453 6.79873059,2.09953464 6.57465625,2.23426537 L5.87846583,2.47616954 L5.04150455,2.23426537 Z" id="路径-2" fill="#595B65" opacity="0.657323201"></path>
                                <path d="M4.82698548,1.42444446 C5.08977263,1.09064678 6.59624127,1.19016203 6.73701845,1.42444446 C6.87779564,1.65872688 6.87779564,3.32255014 6.67425871,3.55521119 C6.47072179,3.78787224 5.32614519,3.99769274 5.08024144,3.81764196 C4.83433768,3.63759118 4.56419833,1.75824213 4.82698548,1.42444446 Z" id="路径-8" fill="#83848C"></path>
                            </g>
                        </g>
                        <g id="编组-15" transform="translate(12.212466, 43.433859) rotate(-65.000000) translate(-12.212466, -43.433859) translate(5.008742, 33.318045)">
                            <path d="M8.66091946,1.33984401 C9.59335664,0.430435776 10.7554242,0.840023559 11.3106469,1.25458801 C11.8658695,1.66915247 11.9602685,2.56519235 11.7933955,3.3297171 C11.6821469,3.83940027 9.82087897,6.61956049 6.20959184,11.6701978 L3.43668123,10.145389 C3.37365303,9.63468796 3.50462905,9.07827071 3.82960929,8.47613728 C4.31707965,7.57293713 7.72848228,2.24925224 8.66091946,1.33984401 Z" id="路径-33" fill="url(#radialGradient-24)" transform="translate(7.644559, 6.231876) rotate(63.000000) translate(-7.644559, -6.231876) "></path>
                            <path d="M5.92853968,5.71700461 C6.43476541,10.7748261 6.72817558,13.4863901 6.80877017,13.8516966 C6.93408505,14.4197042 9.14689598,16.8094444 8.270338,17.9538721 C7.39378001,19.0982999 2.37657724,22.1068816 0.621249788,18.5437625 C-0.157612779,16.9627583 -0.255120222,13.8902131 0.621249788,9.45871495 C0.831878561,8.39363856 1.37388101,6.66050939 2.24725713,4.25932744 C2.7478106,3.87229425 3.41125264,3.81812326 4.23758323,4.09681447 C5.47707911,4.51485129 5.91001869,5.53195699 5.92853968,5.71700461 Z" id="路径-35" fill="url(#radialGradient-25)"></path>
                        </g>
                        <g id="编组-12" transform="translate(15.446916, 43.189798) scale(-1, 1) rotate(40.000000) translate(-15.446916, -43.189798) translate(12.435956, 28.827505)">
                            <path d="M1.14334463,0.364360771 L4.85665537,0.364360771 C5.48770384,0.365394138 5.99942944,0.876657659 6.0010329,1.50770494 L6.02191846,24.6264689 L6.02191846,24.6264689 L0.0219184585,24.6264689 L0.00103290042,1.50770494 C-0.000569988588,0.876254323 0.510860186,0.363899258 1.14231173,0.363328803 C1.14265603,0.363328492 1.14300033,0.363328336 1.14334463,0.364360771 Z" id="矩形" fill="url(#linearGradient-26)" fill-rule="nonzero"></path>
                            <path d="M2.85763035,0.364360771 L4.85665537,0.364360771 C5.48770384,0.365394138 5.99942944,0.876657659 6.0010329,1.50770494 L6.02191846,24.6264689 L6.02191846,24.6264689 L1.73620417,24.6264689 L1.71531861,1.50770494 C1.71371573,0.876254323 2.2251459,0.363899258 2.85659745,0.363328803 C2.85694175,0.363328492 2.85728605,0.363328336 2.85763035,0.364360771 Z" id="矩形" fill="url(#linearGradient-27)" fill-rule="nonzero" opacity="0.532341367"></path>
                            <path d="M1.14659156,2.84217094e-14 L4.8599023,2.84217094e-14 C5.4913541,2.77448717e-14 6.00324693,0.511892829 6.00324693,1.14334463 L6.00324693,2.85047097 L6.00324693,2.85047097 L0.00324693116,2.85047097 L0.00324693116,1.14334463 C0.00324693116,0.511892829 0.51513976,2.83156606e-14 1.14659156,2.84217094e-14 Z" id="矩形" fill="url(#linearGradient-28)" fill-rule="nonzero"></path>
                            <g id="编组-9" transform="translate(0.021918, 24.626469)">
                                <mask id="mask-30" fill="white">
                                    <use xlink:href="#path-29"></use>
                                </mask>
                                <use id="矩形" fill="#FFFFFF" xlink:href="#path-29"></use>
                                <ellipse id="椭圆形" fill="url(#linearGradient-31)" fill-rule="nonzero" mask="url(#mask-30)" cx="3" cy="4.41823001" rx="2.42857143" ry="2.42290033"></ellipse>
                            </g>
                        </g>
                        <path d="M12.0109087,10.7713714 C10.1045645,12.7385445 9.22746505,16.2791829 9.28608666,19.7205848 C9.34007605,22.890051 10.1752985,25.9780038 12.0109087,27.6153401 C15.8396218,31.030494 28.552299,31.2354273 33.0214082,27.4050416 C35.2949488,25.4564345 36.3828814,22.1596444 36.4751425,18.8911633 C36.5642395,15.7347762 35.7393921,12.6098531 33.3482036,10.4705655 C28.4809075,6.11601674 15.6729599,6.99246905 12.0109087,10.7713714 Z" id="路径-18" fill="#8B8D96"></path>
                        <path d="M23.9157269,22.6234456 C21.9095249,22.6234456 20.2835127,20.9148354 20.2835127,18.8067226 C20.2835127,16.6986098 21.9095249,14.9899996 23.9157269,14.9899996 C25.9219289,14.9899996 27.5479411,16.6986098 27.5479411,18.8067226 C27.5479411,20.9148354 25.9219289,22.6234456 23.9157269,22.6234456" id="Fill-21" fill="#FFFFFF"></path>
                        <path d="M15.7709158,5.96315559 C15.5532608,5.61409586 15.1005218,5.2410557 14.4126988,4.84403512 C13.9113118,4.55462784 13.345542,4.30882837 12.5714739,4.16364401 C12.2660571,4.10635998 11.89433,4.08537778 11.4562927,4.10069741 C11.6023687,3.59643452 11.8486682,3.1468729 12.1951913,2.75201256 C13.2029326,1.60369921 15.202822,0.656435215 17.2465225,0.30911871 C19.4575507,-0.06663431 21.5414863,-0.137907081 23.6196713,0.30911871 C23.9749136,0.385532747 24.5015079,0.551676249 25.199454,0.807549217 L15.7709158,5.96315559 Z" id="路径-3" fill="url(#radialGradient-32)"></path>
                        <path d="M19.4443466,0.6478189 C17.3099508,0.962271181 15.8187512,2.19115431 15.7703547,3.39661017 L15.7416862,4.16710119 L15.7216967,4.83453225 L15.713872,5.18562188 L15.7083062,5.59625164 C15.7080742,5.62773616 15.7079003,5.65853746 15.7077843,5.68865585 C15.7077563,5.80123841 15.7076983,5.88567533 15.7076103,5.94196661 C15.7076103,5.97021858 15.869042,5.94652218 16.1919055,5.87087741 C17.8795699,5.40198908 19.6353434,5.15239931 21.4592262,5.12210808 C23.3476442,5.09074504 25.2182434,5.22568818 27.0710236,5.5269375 C27.3938871,5.57223685 27.5553188,5.57981169 27.5553188,5.54966201 C27.5553188,5.19018729 27.5553188,4.65097521 27.5553188,3.93202577 C27.5553188,3.08760773 27.2950005,2.37975512 26.7894582,1.84238612 C26.2063219,1.22253807 25.4342871,0.769519221 24.2305374,0.556795175 C23.0805457,0.353571141 21.2620135,0.38002908 19.4443466,0.6478189 Z" id="路径" fill="#FFFFFF" fill-rule="nonzero"></path>
                        <path d="M16.1919055,5.8708774 C16.1919055,5.26984705 16.2126881,4.45168117 16.2542532,3.41637976 C16.2834104,2.69013603 17.2903392,1.45888367 19.5143335,1.1312312 C21.3818945,0.856090665 23.1205347,0.856618159 24.1469701,1.0380076 C25.4905447,1.27544121 26.1369703,1.85852091 26.4381725,2.17868554 C26.8454239,2.61157561 27.0710236,3.19251809 27.0710236,3.93202577 C27.0710236,4.24238886 27.0710236,4.77402611 27.0710236,5.5269375 C25.1084334,5.21679056 23.2378343,5.08184742 21.4592262,5.12210808 C19.6806181,5.16236873 17.9248445,5.41195851 16.1919055,5.8708774 Z" id="路径-19" fill="#7A7C85"></path>
                        <g id="编组-15" transform="translate(12.736105, 46.950810) rotate(-65.000000) translate(-12.736105, -46.950810) translate(8.498522, 38.795903)" fill="url(#radialGradient-25)">
                            <path d="M5.92853968,1.79519226 C6.43476541,6.85301376 6.72817558,9.56457775 6.80877017,9.92988422 C6.93408505,10.4978918 9.14689598,12.887632 8.270338,14.0320598 C7.39378001,15.1764876 2.37657724,18.1850693 0.621249788,14.6219502 C-0.157612779,13.0409459 -0.255120222,9.96840072 0.621249788,5.53690261 C0.831878561,4.47182622 1.37388101,2.73869704 2.24725713,0.337515094 C2.7478106,-0.0495180944 3.41125264,-0.103689083 4.23758323,0.175002129 C5.47707911,0.593038946 5.91001869,1.61014465 5.92853968,1.79519226 Z" id="路径-35"></path>
                        </g>
                    </g>
                </g>
            </g>
        </g>
    </g>
</svg>