<svg width="34" height="27" viewBox="0 0 34 27" fill="none" xmlns="http://www.w3.org/2000/svg">
<g id="Union">
<path d="M7.31494 7.65391C7.08693 7.76838 6.88079 7.92047 6.70558 8.1035L2.18298 12.7481L1.94495 4.09911C1.91599 3.05783 2.77171 2.18078 3.83611 2.15244L11.8407 1.94124L13.7188 0L3.78375 0.262067C1.6367 0.320304 -0.0561006 2.0612 0.0014237 4.15114L0.470346 21.1634C0.528267 23.2529 2.31311 24.9018 4.46134 24.8447L11.9197 24.6479L18.4068 17.9452L7.31494 7.65391Z" fill="#BFBFBF"/>
<path d="M24.5445 10.5281C26.1555 10.5281 27.4615 9.25775 27.4615 7.6904C27.4615 6.12305 26.154 4.85309 24.5445 4.85309C22.935 4.85309 21.627 6.12343 21.627 7.6904C21.627 9.25737 22.933 10.5281 24.5445 10.5281Z" fill="#BFBFBF"/>
<path d="M21.4326 0L30.7545 1.33741C32.8141 1.63285 34.2494 3.58011 33.9638 5.68614L31.6401 22.8346C31.6353 22.8805 31.6269 22.926 31.6152 22.9705C31.2637 25.0178 29.3972 26.409 27.397 26.1146L15.6923 24.4351L22.9777 18.773L20.4798 15.3703L22.1689 14.0637C23.1793 13.2849 24.6111 13.4908 25.3755 14.5246L30.0155 20.8068L32.1012 5.41874C32.2396 4.36242 31.5228 3.38941 30.4969 3.24121L19.3177 1.63759L21.4326 0Z" fill="#BFBFBF"/>
</g>
</svg>
