<svg xmlns="http://www.w3.org/2000/svg" viewBox="0 0 16 16" class="design-iconfont">
  <path d="M9,1 C10.1045695,1 11,1.8954305 11,3 L11,3.85167988 C11,4.12782225 10.7761424,4.35167988 10.5,4.35167988 C10.2238576,4.35167988 10,4.12782225 10,3.85167988 L10,3 C10,2.44771525 9.55228475,2 9,2 L3,2 C2.44771525,2 2,2.44771525 2,3 L2,13 C2,13.5522847 2.44771525,14 3,14 L9,14 C9.55228475,14 10,13.5522847 10,13 L10,12.1339375 C10,11.8577952 10.2238576,11.6339375 10.5,11.6339375 C10.7761424,11.6339375 11,11.8577952 11,12.1339375 L11,13 C11,14.1045695 10.1045695,15 9,15 L3,15 C1.8954305,15 1,14.1045695 1,13 L1,3 C1,1.8954305 1.8954305,1 3,1 L9,1 Z M12.2776654,5.149207 L14.7776654,7.68839956 C14.9714199,7.88519151 14.968938,8.20179778 14.7721223,8.39552806 L12.2721223,10.8563355 C12.0753236,11.0500489 11.758751,11.0475479 11.5650376,10.8507492 C11.3713241,10.6539506 11.3738252,10.3373779 11.5706238,10.1436645 L13.279,8.461 L7.14373947,8.46157029 C6.8675971,8.46157029 6.64373947,8.23771267 6.64373947,7.96157029 C6.64373947,7.68542792 6.8675971,7.46157029 7.14373947,7.46157029 L13.151,7.461 L11.5650807,5.850793 C11.3928694,5.67588202 11.3756803,5.40631578 11.5121878,5.21250344 L11.57058,5.14370761 C11.7673549,4.94996998 12.0839278,4.95243214 12.2776654,5.149207 Z" fill="#505766" fill-rule="nonzero"/>
</svg>
